<svg width="25" height="25" viewBox="0 0 25 25" fill="none" xmlns="http://www.w3.org/2000/svg">
<path d="M13.0727 2.08301H4.73934C4.42692 2.08301 4.21844 2.29129 4.21844 2.6039V10.9372C4.21844 11.2497 4.42672 11.4581 4.73934 11.4581H13.0727C13.3851 11.4581 13.5936 11.2498 13.5936 10.9372V2.6039C13.5936 2.2913 13.3853 2.08301 13.0727 2.08301ZM12.552 10.4163H5.26041V3.12479H12.552V10.4163Z" fill="black"/>
<path d="M13.0727 12.4995H4.73934C4.42692 12.4995 4.21844 12.7078 4.21844 13.0204C4.21844 13.3328 4.42672 13.5413 4.73934 13.5413H13.0727C13.3851 13.5413 13.5936 13.333 13.5936 13.0204C13.5936 12.7078 13.3853 12.4995 13.0727 12.4995Z" fill="black"/>
<path d="M13.0727 14.5825H11.5103C11.1978 14.5825 10.9894 14.7908 10.9894 15.1034C10.9894 15.4158 11.1977 15.6243 11.5103 15.6243H13.0727C13.3851 15.6243 13.5936 15.416 13.5936 15.1034C13.5936 14.7908 13.3853 14.5825 13.0727 14.5825Z" fill="black"/>
<path d="M6.30202 14.5825H4.73958C4.42716 14.5825 4.21869 14.7908 4.21869 15.1034C4.21869 15.4158 4.42697 15.6243 4.73958 15.6243H6.30202C6.61444 15.6243 6.82291 15.416 6.82291 15.1034C6.82291 14.7908 6.61446 14.5825 6.30202 14.5825Z" fill="black"/>
<path d="M24.4789 23.9578H16.7184V21.3536C16.7184 21.1973 16.6663 21.0931 16.5621 20.989L15.6767 20.1035L15.6769 9.06184C16.7706 9.16598 17.6039 10.0514 17.6039 11.1452V19.3741C17.6039 21.0929 19.01 22.499 20.7288 22.499C22.4475 22.499 23.8536 21.0929 23.8536 19.3741V6.35371C23.8536 6.19741 23.7495 6.04129 23.6454 5.93698L19.1663 2.91622C18.9059 2.75993 18.5935 2.81208 18.4371 3.07252C18.2808 3.33296 18.333 3.64537 18.5934 3.80168L20.6768 5.20781V8.07243C20.6768 8.38485 20.8851 8.59332 21.1977 8.59332H22.8123V19.3743C22.8123 20.5203 21.8749 21.4577 20.729 21.4577C19.583 21.4577 18.6456 20.5203 18.6456 19.3743L18.6454 11.1454C18.6454 9.47879 17.3434 8.12461 15.6766 8.02048L15.6768 1.56244C15.6768 0.676975 14.9998 0 14.1144 0H3.69794C2.81247 0 2.1355 0.676975 2.1355 1.56244V20.1039L1.25003 20.9894C1.14589 21.0936 1.09373 21.1977 1.09373 21.354V23.9582H0.52089C0.20847 23.9582 0 24.1665 0 24.4791C0 24.7915 0.208279 25 0.52089 25H24.4786C24.7911 25 24.9995 24.7917 24.9995 24.4791C24.9994 24.1665 24.7911 23.9582 24.4785 23.9582L24.4789 23.9578ZM21.7708 7.55181V5.88523L22.8645 6.61439V7.55181H21.7708ZM2.13552 23.9578V21.5621L3.02099 20.6766C3.12513 20.5725 3.17728 20.4683 3.17728 20.312V1.56225C3.17728 1.24983 3.38556 1.04136 3.69817 1.04136H14.1146C14.427 1.04136 14.6355 1.24964 14.6355 1.56225V20.312C14.6355 20.4683 14.6877 20.5725 14.7918 20.6766L15.6773 21.5621V23.9578H2.13552Z" fill="black"/>
</svg>
