<svg width="34" height="30" viewBox="0 0 34 30" fill="none" xmlns="http://www.w3.org/2000/svg">
<path d="M11.5251 18.9075H21.7244V14.5474H11.5251V18.9075ZM12.495 15.5172H20.7545V17.938L12.495 17.9377V15.5172Z" fill="black"/>
<path d="M18.2177 26.2117C18.2177 24.613 16.917 23.3123 15.3183 23.3123C13.7195 23.3123 12.4188 24.613 12.4188 26.2117C12.4188 27.5796 13.3724 28.7264 14.6491 29.0301H7.79065V29.9999H23.5256V29.0301H15.9879C17.2646 28.7267 18.2181 27.5802 18.2181 26.2117H18.2177ZM13.3891 26.2117C13.3891 25.148 14.2545 24.2821 15.3187 24.2821C16.3827 24.2821 17.2484 25.1475 17.2484 26.2117C17.2484 27.2757 16.383 28.1414 15.3187 28.1414C14.2545 28.1414 13.3891 27.276 13.3891 26.2117Z" fill="black"/>
<path d="M16.7956 26.2119H15.8257C15.8257 26.4917 15.5984 26.719 15.3186 26.719C15.0388 26.719 14.8115 26.4917 14.8115 26.2119H13.8417C13.8417 27.0262 14.5044 27.6888 15.3186 27.6888C16.1328 27.6888 16.7955 27.0261 16.7955 26.2119H16.7956Z" fill="black"/>
<path d="M32.2956 24.4287H29.9358V21.2069H26.0924L24.8801 24.4287H23.664C24.3914 23.192 25.7005 20.6589 25.7005 18.4267C25.7005 15.3689 20.2466 9.15505 20.0149 8.8925L19.8699 8.72852H0V25.3986H11.9193L12.0327 25.0728C12.5184 23.6719 13.8392 22.7307 15.3189 22.7307C16.7986 22.7307 18.1194 23.6719 18.6051 25.0723L18.718 25.3986L33.2655 25.3984V23.4032H32.2957L32.2956 24.4287ZM26.7635 22.1767H28.9659V24.4287H25.9163L26.7635 22.1767ZM8.92263 24.4287H3.78256V12.4172H8.92263V24.4287ZM19.3934 24.4287C18.6901 22.8199 17.0939 21.7608 15.3184 21.7608C13.5433 21.7608 11.9473 22.8194 11.2435 24.4287H9.89261V11.4474H2.81279V24.4287H0.969962V9.69823H19.4315C21.0359 11.5459 24.731 16.2592 24.731 18.4268C24.731 20.761 23.0292 23.6329 22.5272 24.429L19.3934 24.4287Z" fill="black"/>
<path d="M4.39624 16.9722H5.36608V18.2007H4.39624V16.9722Z" fill="black"/>
<path d="M27.6404 10.0862C29.4765 10.0862 30.9704 8.59225 30.9704 6.75649C30.9704 4.921 29.4768 3.42676 27.6404 3.42676C25.8044 3.42676 24.3104 4.92072 24.3104 6.75649C24.3104 8.59197 25.8044 10.0862 27.6404 10.0862ZM27.6404 4.39653C28.9415 4.39653 30.0006 5.4551 30.0006 6.75642C30.0006 8.05745 28.9417 9.11631 27.6404 9.11631C26.3394 9.11631 25.2803 8.05773 25.2803 6.75642C25.2803 5.45566 26.3394 4.39653 27.6404 4.39653Z" fill="black"/>
<path d="M27.1554 0.872559H28.1252V2.68318H27.1554V0.872559Z" fill="black"/>
<path d="M27.1554 10.7007H28.1252V12.5113H27.1554V10.7007Z" fill="black"/>
<path d="M31.6494 6.20679H33.46V7.17662H31.6494V6.20679Z" fill="black"/>
<path d="M21.8214 6.20679H23.632V7.17662H21.8214V6.20679Z" fill="black"/>
<path d="M32.0982 10.463L31.4125 11.1487L30.1323 9.86856L30.818 9.18286L32.0982 10.463Z" fill="black"/>
<path d="M23.8692 2.23535L25.1494 3.51581L24.4634 4.20152L23.1832 2.92105L23.8692 2.23535Z" fill="black"/>
<path d="M25.1486 9.86881L23.8684 11.149L23.1827 10.4633L24.4629 9.18311L25.1486 9.86881Z" fill="black"/>
<path d="M31.4124 2.23364L32.0981 2.91935L30.8179 4.19953L30.1322 3.51383L31.4124 2.23364Z" fill="black"/>
<path d="M3.65356 29.0298H6.35283V29.9996H3.65356V29.0298Z" fill="black"/>
<path d="M24.8058 29.0298H27.9637V29.9996H24.8058V29.0298Z" fill="black"/>
<path d="M6.33854 5.38525L7.04701 5.57764L6.94581 4.85026C6.9201 4.66788 6.90847 4.51769 6.90847 4.37725C6.90847 2.49819 8.43735 0.969313 10.317 0.969313C12.1966 0.969313 13.7249 2.49819 13.7266 4.34483L13.7247 4.92473L14.2553 4.8744C14.3297 4.86737 14.405 4.86276 14.481 4.86276C15.8224 4.86276 16.9137 5.95439 16.9137 7.29602H17.8835C17.8835 5.4827 16.458 3.99573 14.6688 3.89805C14.4291 1.70885 12.5687 0 10.317 0C7.91756 0 5.96327 1.93967 5.93923 4.33316C3.84639 4.15971 2.06909 5.83336 2.06909 7.90404H3.03893C3.03866 6.23876 4.61977 4.91902 6.33866 5.3853L6.33854 5.38525Z" fill="black"/>
</svg>
