<svg width="22" height="22" viewBox="0 0 22 22" fill="none" xmlns="http://www.w3.org/2000/svg">
<path d="M11.0363 1C13.7999 1 16.2727 2.09097 18.0909 3.90906C19.9092 5.72728 21 8.27266 21 11.0363C21 13.7999 19.909 16.2727 18.0909 18.0909C16.2727 19.9092 13.8002 21 11.0363 21C8.27255 21 5.72693 19.909 3.90906 18.0909C2.09083 16.2727 1 13.8002 1 11.0363C1 8.2723 2.09097 5.72693 3.90906 3.90906C5.72728 2.09083 8.27266 1 11.0363 1V1ZM17.0727 5.00003C15.5455 3.39998 13.3634 2.45455 11.0363 2.45455C8.63627 2.45455 6.52729 3.40002 4.99978 5.00003C3.39973 6.52725 2.4543 8.63648 2.4543 11.0365C2.4543 13.3638 3.39977 15.5455 4.99978 17.073C6.527 18.6002 8.63623 19.5458 11.0363 19.5458C13.3636 19.5458 15.5452 18.6003 17.0727 17.073C18.5999 15.5457 19.5455 13.3637 19.5455 11.0365C19.5455 8.63652 18.6001 6.52754 17.0727 5.00003Z" fill="#666666" stroke="#666666" stroke-width="0.5"/>
<path d="M13.7998 7.18202C14.0907 6.89115 14.5271 6.89115 14.818 7.18202C15.1088 7.4729 15.1088 7.90928 14.818 8.20018L11.9816 11.0366L14.818 13.8003C15.1088 14.0911 15.1088 14.6002 14.818 14.8912C14.5271 15.1821 14.0907 15.1821 13.7998 14.8912L10.9634 12.0548L8.27256 14.7457C7.98169 15.0366 7.47263 15.0366 7.18159 14.7457C6.9634 14.4548 6.9634 14.0185 7.18159 13.7276L9.94529 11.0367L7.18159 8.34582C6.9634 8.05494 6.9634 7.54588 7.18159 7.25485C7.47247 6.96397 7.98152 6.96397 8.27256 7.25485L10.9634 9.94572L13.7998 7.18202Z" fill="#666666" stroke="#666666" stroke-width="0.5"/>
</svg>
