<svg width="30" height="27" viewBox="0 0 30 27" fill="none" xmlns="http://www.w3.org/2000/svg">
<path d="M9.88379 13.1098H11.3015L12.4523 11.9796L13.5824 13.1098H14.9797L14.9795 8.89746H9.88379L9.88379 13.1098ZM14.1576 12.5138L13.0481 11.3836L14.1576 10.2945V12.5138ZM13.5618 9.71937L12.4727 10.8085L11.4043 9.71937H13.5618ZM10.7058 10.2124L11.8769 11.3836L10.7058 12.5344V10.2124Z" fill="black"/>
<path d="M7.29457 8.36317C7.29457 5.52751 9.59587 3.22621 12.4315 3.22621C15.2672 3.22621 17.5685 5.52751 17.5685 8.36317V13.1098H18.3904V8.36317C18.3904 5.07551 15.7192 2.4043 12.4315 2.4043C9.14387 2.4043 6.47266 5.07551 6.47266 8.36317V13.1098H7.29457V8.36317Z" fill="black"/>
<path d="M2.5071 9.5548H4.89076V13.1096H5.71267V1.97271C5.71267 0.883615 4.82906 0 3.73997 0H3.67827C2.58918 0 1.70557 0.883615 1.70557 1.97271V13.1096H2.52748L2.52771 9.5548H2.5071ZM2.5071 1.97265C2.5071 1.33555 3.02079 0.821854 3.65789 0.821854H3.71958C4.35668 0.821854 4.87038 1.33555 4.87038 1.97265V4.35632H2.50714L2.5071 1.97265ZM2.5071 5.19883H4.89076V8.75367L2.5071 8.75344V5.19883Z" fill="black"/>
<path d="M19.9933 11.3219H20.8356V13.1098H21.6576V11.3219H22.5001V13.1098H23.322V11.3219H24.1646V13.1098H24.9865V11.3219H25.8289V13.1098H26.6508V11.3219H27.4934V13.1098H28.3153V9.98633H27.4934V10.5H26.6508V9.98633H25.8289V10.5H24.9865V9.98633H24.1646V10.5H23.322V9.98633H22.5001V10.5H21.6576V9.98633H20.8356V10.5H19.9933V9.98633H19.1714V13.1098H19.9933V11.3219Z" fill="black"/>
<path d="M13.8083 14.5481L6.39055 26.1782V26.1988H7.35624L14.7946 14.5482H15.6165L10.6029 26.1783L11.5069 26.1781L16.5205 14.548H17.3834L14.1985 26.1781H15.0411L18.226 14.548H19.1096L17.5478 26.1781H18.3698L19.9315 14.548H20.8355V26.1781H21.6574V14.548H29.9998V13.7261H0V14.548L13.8083 14.5481Z" fill="black"/>
<path d="M12.3084 15.7603H0.000244141V16.5822H11.7947L12.3084 15.7603Z" fill="black"/>
<path d="M10.7468 18.2056H0.000244141V19.0275H10.2125L10.7468 18.2056Z" fill="black"/>
<path d="M8.69197 21.4111H0.000244141V22.233H8.17828L8.69197 21.4111Z" fill="black"/>
<path d="M5.87692 25.8286L6.18514 25.356H0.000244141V26.1779H5.75363C5.77427 26.0547 5.81532 25.952 5.87702 25.8286H5.87692Z" fill="black"/>
<path d="M22.2739 15.7603H29.9794V16.5822H22.2739V15.7603Z" fill="black"/>
<path d="M22.2739 18.2056H29.9794V19.0275H22.2739V18.2056Z" fill="black"/>
<path d="M22.2739 21.4111H29.9794V22.233H22.2739V21.4111Z" fill="black"/>
<path d="M22.2739 25.356V26.1779H29.9999V25.356H22.2739Z" fill="black"/>
<path d="M10.8699 5.21924V7.37676H14.1986L14.1988 5.21924H10.8699ZM13.3973 6.55485H11.7125V6.04115H13.3973V6.55485Z" fill="black"/>
</svg>
