<svg width="20" height="30" viewBox="0 0 20 30" fill="none" xmlns="http://www.w3.org/2000/svg">
<path d="M7.45794 21.8697C7.63046 21.9217 7.81646 21.8501 7.90947 21.6955C8.00247 21.5411 7.97908 21.3433 7.85251 21.2151C7.19435 20.558 6.82897 19.6635 6.83855 18.7337C6.83717 18.1446 6.98218 17.5646 7.26063 17.0454C7.39133 17.4089 7.6175 17.73 7.91522 17.9757C8.21293 18.2214 8.57145 18.3826 8.95278 18.4418C9.07385 18.4597 9.19628 18.4203 9.28433 18.3353C9.37238 18.2506 9.41585 18.1295 9.40265 18.0079C9.2692 17.0498 9.38889 16.0733 9.74961 15.1758C9.91333 14.7911 10.1285 14.4301 10.3888 14.103C10.4834 13.9885 10.5819 13.8743 10.6846 13.7676C10.8384 14.4026 11.3039 15.3139 12.4164 16.6039H12.4161C12.8814 17.2169 13.1345 17.9644 13.1381 18.7338C13.1417 19.6632 12.7757 20.5558 12.1203 21.2151C12.007 21.3274 11.9726 21.4969 12.0331 21.6446C12.0936 21.7921 12.237 21.889 12.3966 21.8895C12.4384 21.8956 12.4808 21.8956 12.5226 21.8895C15.9465 20.7061 18.2421 17.369 18.2421 13.5468H18.2424C18.2512 11.5574 17.6129 9.61926 16.424 8.02453C11.6116 2.4351 12.874 0.707379 12.874 0.691179H12.8737C13.0372 0.546448 13.0523 0.29661 12.9073 0.133172C12.7626 -0.0302668 12.5125 -0.0454042 12.3493 0.0996034C11.4479 0.774271 10.6354 1.56036 9.93128 2.43866C9.28633 3.25588 8.75559 4.157 8.35332 5.11694C7.52567 7.13902 7.20841 9.3336 7.43044 11.5073C6.72246 11.2828 6.10394 10.8395 5.6637 10.2413C5.22345 9.64316 4.98435 8.92062 4.98077 8.17799C4.98105 7.94631 5.00333 7.71518 5.04791 7.48763C5.14916 7.29393 5.07405 7.05455 4.88007 6.95329C4.68636 6.85204 4.44698 6.92688 4.34573 7.12086C2.66485 8.82815 1.72739 11.1309 1.73838 13.5269C1.73838 17.349 4.03397 20.7018 7.45791 21.8696L7.45794 21.8697ZM4.16825 8.53284C4.253 9.48841 4.65472 10.3879 5.30929 11.089C5.96387 11.7901 6.83393 12.2523 7.78154 12.4025C7.90233 12.4204 8.02504 12.3811 8.11282 12.296C8.20086 12.2113 8.24462 12.0902 8.23113 11.9686C7.91829 9.75586 8.19013 7.49964 9.01997 5.42473C9.40078 4.53023 9.90102 3.69159 10.5071 2.93156C10.9256 2.40603 11.3873 1.91654 11.8876 1.46834C11.9192 2.69911 12.6528 4.87637 15.773 8.50149C16.8576 9.9521 17.4417 11.7155 17.4377 13.5269C17.4566 14.942 17.102 16.337 16.4094 17.571C15.7168 18.8053 14.7109 19.835 13.4931 20.5558C13.8252 19.8418 13.9565 19.0508 13.8731 18.2674C13.7897 17.4844 13.4948 16.7387 13.0199 16.1105C11.0792 13.8543 11.4422 13.085 11.4422 13.085H11.4419C11.5685 12.9293 11.558 12.7036 11.4177 12.5603C11.2774 12.4169 11.052 12.4018 10.8938 12.5248C10.4742 12.8385 10.0962 13.2041 9.76953 13.6136C9.46412 13.996 9.21208 14.4178 9.02 14.868C8.67661 15.6937 8.5217 16.5861 8.56628 17.4792C8.16566 17.2332 7.92104 16.7976 7.9194 16.3273C7.91885 16.2374 7.9282 16.1474 7.94719 16.0591C7.98158 15.8882 7.89959 15.7151 7.74577 15.6331C7.59197 15.5514 7.40294 15.5803 7.28049 15.7041C6.48503 16.5114 6.0412 17.6005 6.04592 18.7335C6.04372 19.3625 6.17826 19.9844 6.44021 20.5559C5.2224 19.835 4.21647 18.8053 3.52392 17.571C2.83136 16.3369 2.47671 14.942 2.49565 13.5269C2.50088 11.7255 3.0875 9.97409 4.16829 8.53292L4.16825 8.53284Z" fill="black"/>
<path d="M18.6331 26.5524L16.3807 25.8621L18.6605 25.2667C19.2114 25.1214 19.6579 24.7188 19.8599 24.1861C20.0616 23.6537 19.9936 23.0564 19.6772 22.5825C19.361 22.1087 18.8355 21.8171 18.2662 21.7992C18.0932 21.7918 17.9201 21.8118 17.7534 21.8583L10.0143 23.9175L2.36184 21.5785V21.5782C1.76174 21.4021 1.11297 21.557 0.657298 21.9854C0.201632 22.4138 0.0068406 23.0514 0.145795 23.6614C0.284474 24.2714 0.735993 24.762 1.33226 24.951L3.58848 25.6609L1.30472 26.2486C0.851821 26.3725 0.466642 26.6707 0.233561 27.0782C0.000508333 27.4857 -0.0611249 27.9691 0.0621425 28.422C0.164497 28.7825 0.377742 29.1014 0.671598 29.3336C0.965453 29.5658 1.32508 29.6995 1.69901 29.716H1.75817C1.9128 29.7155 2.06634 29.6957 2.21575 29.6569L9.93933 27.5861L17.596 29.9252V29.9249C17.7424 29.9678 17.8934 29.9929 18.0459 30H18.105C18.4831 30.0011 18.8513 29.8806 19.1553 29.6561C19.4593 29.4316 19.683 29.1151 19.7933 28.7536C19.9282 28.3049 19.8792 27.8206 19.6574 27.4079C19.4354 26.9952 19.0587 26.6875 18.6099 26.5524L18.6331 26.5524ZM5.02435 25.2667L1.5649 24.2095C1.09769 24.0662 0.808812 23.5987 0.889682 23.1166C0.970574 22.6348 1.39596 22.287 1.88434 22.3041C1.96854 22.3057 2.05219 22.3189 2.1328 22.3437L8.57821 24.316L8.14429 24.4305L5.02435 25.2667ZM2.01859 28.9036V28.9033C1.92642 28.9306 1.83039 28.9427 1.73436 28.9388C1.3065 28.9207 0.938897 28.6296 0.823308 28.2171C0.690411 27.7001 0.998031 27.1727 1.51366 27.0337L17.9463 22.6079C18.039 22.584 18.1347 22.5732 18.2305 22.5762C18.6969 22.6104 19.0733 22.9711 19.1272 23.4355C19.1811 23.9003 18.8974 24.3375 18.4511 24.4775L2.01859 28.9036ZM19.0549 28.5209C18.922 28.9438 18.5235 29.2261 18.0805 29.2112C17.9964 29.2082 17.913 29.195 17.8321 29.1716L11.3867 27.1993L13.1735 26.7219L14.9408 26.2487L18.4002 27.3058H18.4C18.6487 27.379 18.8581 27.5485 18.9811 27.7766C19.1041 28.005 19.1305 28.273 19.0548 28.5209L19.0549 28.5209Z" fill="black"/>
</svg>
