<svg width="30" height="30" viewBox="0 0 30 30" fill="none" xmlns="http://www.w3.org/2000/svg">
<path d="M26.3109 19.6121C25.5239 20.3386 24.9793 21.186 24.1923 21.973C24.2529 19.0069 23.95 16.1619 23.2239 13.317C23.7081 13.6196 24.2529 13.9224 24.6767 14.2854C25.8873 15.1933 26.8559 16.3434 27.6428 17.6752C28.3085 18.8252 28.9743 19.9149 29.4588 21.1254C30.9116 24.9389 28.6114 29.1762 24.6164 29.9027C22.4977 30.2659 20.6214 29.6001 19.1079 28.0867C18.5631 27.4812 18.0789 26.8154 17.6551 26.1497C16.0812 23.5469 14.7497 21.1256 13.3575 18.7647C13.2365 18.5831 13.1152 18.5225 12.9336 18.5225C11.9653 18.6435 11.0573 18.4015 10.2099 17.9171C10.1492 17.8565 10.0283 17.7961 9.96765 17.7961C10.5731 17.3723 11.1782 16.9487 11.7837 16.5855C11.8443 16.5249 11.9653 16.5249 12.0259 16.5249C13.1155 16.6459 14.1445 16.1011 14.5681 15.1327C15.0523 14.1036 14.7497 12.9534 13.9627 12.2273C12.6914 11.1376 10.4518 11.864 10.0886 13.4985C10.028 13.6801 9.96765 13.8617 9.78605 13.9223C9.24124 14.2249 8.69644 14.5277 8.09123 14.8303C7.97024 14.2248 7.97024 13.7407 8.09123 13.1959C8.51505 11.0167 10.5125 9.50346 12.8127 9.62444C14.9313 9.74544 16.6867 11.4405 16.9289 13.6195C17.0499 14.83 16.6867 15.9197 15.9605 16.888C15.8395 17.0697 15.8395 17.1906 15.8999 17.3722C17.3528 19.8541 18.7449 22.3359 20.1975 24.7572C20.4397 25.181 20.7423 25.5442 21.0449 25.9072C21.8319 26.7546 22.7397 27.1178 23.8899 26.9362C25.0399 26.7546 26.0086 26.3308 26.7349 25.3624C27.7033 24.0912 27.8245 22.6989 27.1588 21.2462C26.9769 20.702 26.6741 20.2178 26.3109 19.6125L26.3109 19.6121Z" fill="black"/>
<path d="M11.481 0H12.389C12.6312 0 12.6916 0.0606099 12.7522 0.302591C12.8732 1.57382 12.51 2.72383 11.8442 3.7528C10.9362 5.14501 9.66498 6.11364 8.15179 6.83983C7.1834 7.26364 6.15414 7.62683 5.18575 7.98984C4.03574 8.41366 3.00653 8.95823 2.2197 9.92685C0.403666 12.1665 1.37229 15.2537 4.15672 16.0407C5.97275 16.5856 7.72815 16.2223 9.42296 15.4353C9.72555 15.3143 10.0284 15.1327 10.3309 14.9511C10.5126 15.1933 10.6942 15.4959 10.9364 15.7985C10.3916 16.1011 9.84678 16.404 9.30198 16.6459C7.66757 17.3723 5.97275 17.6749 4.21736 17.2514C2.34074 16.8886 0.94853 15.8596 0.282685 14.0436C-0.383101 12.0459 0.161691 10.3512 1.55391 8.83799C2.5223 7.80896 3.79353 7.14317 5.18575 6.71935C6.51732 6.29554 7.84919 5.75096 8.9992 4.96396C10.0282 4.23753 10.8756 3.39012 11.2994 2.17953C11.5416 1.45311 11.5416 0.726681 11.481 0.000315119L11.481 0Z" fill="black"/>
</svg>
