<svg width="30" height="28" viewBox="0 0 30 28" fill="none" xmlns="http://www.w3.org/2000/svg">
<path d="M26.6155 22.9206C26.2012 22.9206 25.7922 23.0022 25.4057 23.1505V21.2416H29.6448C29.754 21.2416 29.8556 21.1869 29.9163 21.096C29.977 21.0051 29.9877 20.89 29.9454 20.7893L27.484 14.9221H28.4447C28.554 14.9221 28.6556 14.8674 28.7163 14.7765C28.777 14.6856 28.7877 14.5703 28.7454 14.4696L26.6102 9.38796H27.4666C27.5758 9.38796 27.6775 9.33331 27.7381 9.2424C27.7988 9.15149 27.8095 9.03639 27.7672 8.93571L24.099 0.199965C24.0481 0.0785895 23.9298 0 23.7984 0C23.6668 0 23.5484 0.0790538 23.4977 0.199965L19.8321 8.93631C19.7898 9.03699 19.8005 9.15209 19.8612 9.243C19.9219 9.33368 20.0235 9.38855 20.1328 9.38855H20.9859L19.0853 13.9186L17.8543 10.9799H18.7339C18.8455 10.9799 18.9497 10.9224 19.0092 10.8283C19.0692 10.7336 19.0766 10.6153 19.0285 10.5144L15.2952 2.62267C15.2413 2.50874 15.1266 2.43596 15.0002 2.43596C14.8739 2.43596 14.7595 2.50874 14.7051 2.62267L10.9716 10.5138C10.9239 10.6147 10.9313 10.733 10.9909 10.8277C11.0509 10.9221 11.1546 10.9793 11.2662 10.9793H12.1457L10.8572 14.0557L8.97824 9.64861H9.8283C9.93805 9.64861 10.0399 9.59351 10.1003 9.50259C10.161 9.41121 10.1713 9.29565 10.1282 9.19497L6.46632 0.596723C6.41494 0.476282 6.29729 0.398389 6.16638 0.398389C6.0357 0.398389 5.91782 0.476282 5.86643 0.596491L2.20106 9.19474C2.15804 9.29565 2.16874 9.41144 2.22896 9.50282C2.28918 9.59374 2.39126 9.64884 2.501 9.64884H3.35106L1.22308 14.6407C1.18006 14.7416 1.19076 14.8574 1.25098 14.9488C1.3112 15.0397 1.41328 15.0948 1.52302 15.0948H2.481L0.0261125 20.8596C-0.0169031 20.9603 -0.00620724 21.0758 0.0540144 21.1672C0.114235 21.2581 0.216313 21.3132 0.326057 21.3132H4.55875V23.1354C4.18301 22.9971 3.78565 22.9204 3.38476 22.9204C1.51838 22.9208 4.39606e-05 24.4392 4.39606e-05 26.3056C4.39606e-05 26.6322 0.0463144 26.9531 0.137693 27.2596C0.178616 27.3979 0.305801 27.4925 0.449963 27.4925H29.5501C29.6945 27.4925 29.8214 27.3974 29.8624 27.2596C29.9537 26.9531 30 26.6322 30 26.3056C30 24.4392 28.4817 22.9208 26.6153 22.9208L26.6155 22.9206ZM24.7535 23.4802C24.7166 23.5049 24.6829 23.5339 24.6468 23.5595C24.6015 23.5921 24.5564 23.6246 24.5129 23.6595C24.4499 23.7095 24.3901 23.7632 24.3313 23.8176C24.2915 23.8539 24.2513 23.8892 24.2136 23.9273C24.152 23.9897 24.0951 24.0557 24.0386 24.122C24.0088 24.1571 23.9772 24.1899 23.9488 24.2259C23.8667 24.3305 23.7905 24.4393 23.7214 24.5526C23.6475 24.4898 23.5693 24.4328 23.4891 24.3794C23.4631 24.3619 23.4363 24.3463 23.4098 24.3301C23.3531 24.295 23.2954 24.2617 23.2366 24.2315C23.2057 24.2154 23.175 24.2001 23.1434 24.1854C23.0831 24.1571 23.0213 24.1322 22.9587 24.1087C22.9295 24.0978 22.9011 24.0857 22.8713 24.0757C22.8627 24.0727 22.8543 24.0687 22.8457 24.0659V21.2416H24.7533V23.4802L24.7535 23.4802ZM22.0566 23.9413C21.3341 23.9413 20.6536 24.244 20.17 24.7656C19.7031 24.3422 19.0952 24.1052 18.4512 24.1043C17.9859 23.5772 17.3344 23.2708 16.6306 23.2426V22.337H20.9512C21.0628 22.337 21.167 22.2795 21.2265 22.1853C21.2865 22.0907 21.2939 21.9724 21.2458 21.8715L20.9477 21.2413H22.1931V23.9483C22.148 23.946 22.1033 23.9413 22.0566 23.9413L22.0566 23.9413ZM14.5053 23.4528C14.4063 23.4095 14.3045 23.3742 14.2001 23.3437C14.1647 23.3335 14.1294 23.3237 14.0933 23.3151C14.0694 23.3096 14.0464 23.3012 14.0219 23.2958V22.337H15.9786V23.2958C15.9532 23.3012 15.9288 23.3098 15.9035 23.3158C15.8732 23.3233 15.8437 23.3314 15.8137 23.3398C15.7023 23.3714 15.5928 23.4088 15.4875 23.4553C15.4805 23.4584 15.4731 23.4605 15.4661 23.4637C15.3568 23.5135 15.2524 23.5742 15.1503 23.6395C15.1234 23.6569 15.0971 23.6746 15.0703 23.6927C15.0471 23.709 15.0227 23.7227 14.9997 23.7402C14.9771 23.7232 14.9522 23.7093 14.929 23.6927C14.9034 23.6748 14.8774 23.6574 14.8511 23.6404C14.7534 23.5774 14.653 23.5195 14.5481 23.4712C14.5344 23.4649 14.5198 23.4593 14.5053 23.4528L14.5053 23.4528ZM7.77079 21.3132H9.01848L8.75457 21.8712C8.70667 21.9721 8.71388 22.0905 8.77317 22.1851C8.83316 22.2798 8.9371 22.3372 9.04893 22.3372H13.3695V23.2429C12.6655 23.2708 12.0144 23.5774 11.5489 24.1046C10.9049 24.1055 10.2973 24.3429 9.83019 24.7658C9.30819 24.2025 8.54786 23.9011 7.77054 23.9511V21.3132L7.77079 21.3132ZM18.7655 16.6303H19.3982L19.1008 17.339L18.7655 16.6303ZM21.7766 9.18803C21.8189 9.08735 21.8082 8.97225 21.7475 8.88134C21.6868 8.79066 21.5852 8.73579 21.4759 8.73579H20.6228L23.7978 1.16849L26.9756 8.73579H26.1193C26.01 8.73579 25.9084 8.79043 25.8477 8.88134C25.787 8.97225 25.7763 9.08758 25.8186 9.18826L27.9536 14.2696H26.9933C26.884 14.2696 26.7824 14.3243 26.7217 14.4152C26.661 14.5059 26.6503 14.6212 26.6926 14.7219L29.1541 20.5892H20.6392L19.4759 18.1312L20.9063 14.7219C20.9486 14.6212 20.9379 14.5061 20.8772 14.4152C20.8166 14.3245 20.7149 14.2696 20.6057 14.2696H19.6449L21.7766 9.18803ZM20.1152 14.9219L19.8102 15.6485L19.5058 14.9219H20.1152ZM12.9075 10.4727C12.8468 10.3818 12.7452 10.3271 12.6359 10.3271H11.7812L14.9999 3.52471L18.2186 10.3277H17.3639C17.2546 10.3277 17.153 10.3821 17.0923 10.4733C17.0321 10.5639 17.0209 10.6793 17.0633 10.78L19.2412 15.979H18.2509C18.1393 15.979 18.0352 16.0365 17.9756 16.1306C17.9157 16.225 17.9082 16.3434 17.9563 16.4443L18.823 18.276C18.8236 18.2774 18.8232 18.279 18.8239 18.2807L20.1383 21.056L20.4364 21.6856H9.5649L9.82718 21.1308C9.82788 21.1294 9.82927 21.1283 9.82974 21.1269L10.2225 20.2952L12.0438 16.4445C12.0917 16.3431 12.0845 16.2248 12.0247 16.1301C11.965 16.0357 11.861 15.9785 11.7494 15.9785H10.7591L12.9371 10.7795C12.9792 10.679 12.9678 10.5637 12.9078 10.473L12.9075 10.4727ZM10.8488 17.4441L10.5023 16.6306H11.2336L10.8488 17.4441ZM10.1375 15.7735L9.84897 15.0948H10.4219L10.1375 15.7735ZM3.27381 14.8965C3.31683 14.7958 3.30613 14.6803 3.24591 14.5889C3.18569 14.498 3.08361 14.4429 2.97386 14.4429H2.01612L4.14411 9.45123C4.18712 9.35032 4.17643 9.23453 4.11621 9.14315C4.05599 9.05224 3.95391 8.99713 3.84416 8.99713H2.9941L6.16584 1.55663L9.33454 8.99713H8.48424C8.37449 8.99713 8.27265 9.05224 8.2122 9.14315C8.15152 9.23453 8.14128 9.35009 8.1843 9.45123L10.3123 14.4429H9.35502C9.24527 14.4429 9.14343 14.4975 9.08297 14.5889C9.02229 14.6803 9.01206 14.7958 9.05507 14.8965L10.4748 18.2315L9.93843 19.3675L9.32646 20.6612H0.819282L3.27381 14.8965ZM7.11847 21.3132V24.0767C7.1101 24.0792 7.10219 24.0834 7.09382 24.0864C7.06918 24.095 7.04546 24.1057 7.02104 24.115C6.95733 24.1397 6.89432 24.1659 6.83293 24.1957C6.80364 24.2097 6.77504 24.2243 6.74621 24.2394C6.68831 24.2701 6.63181 24.3027 6.57624 24.3378C6.55159 24.3534 6.52625 24.368 6.50183 24.3845C6.4244 24.4368 6.34907 24.4922 6.27792 24.5526C6.207 24.4364 6.12795 24.3245 6.04331 24.2173C6.01704 24.1841 5.98704 24.1534 5.95937 24.1206C5.89799 24.0483 5.83567 23.9774 5.76848 23.9099C5.7329 23.8746 5.69477 23.8421 5.6578 23.8079C5.59269 23.7486 5.52689 23.6902 5.45714 23.6358C5.41505 23.6028 5.3718 23.5721 5.32809 23.5412C5.28833 23.5133 5.25136 23.4819 5.21067 23.4552V21.3128L7.11847 21.3125L7.11847 21.3132ZM0.704752 26.8403C0.669642 26.6659 0.65197 26.4869 0.65197 26.3053C0.65197 24.7984 1.87757 23.5725 3.38472 23.5725C3.85208 23.5725 4.31574 23.6934 4.72264 23.9206C5.2472 24.222 5.66384 24.687 5.89521 25.2297C5.94031 25.335 6.03681 25.4094 6.15051 25.425C6.16562 25.4273 6.18027 25.4282 6.19515 25.4282C6.19887 25.4282 6.2019 25.4261 6.20515 25.4259C6.24887 25.425 6.29072 25.4157 6.32978 25.3975C6.3349 25.3952 6.33885 25.3922 6.3435 25.3899C6.38326 25.3692 6.42023 25.3422 6.44906 25.3066C6.71762 24.973 7.09639 24.7363 7.51538 24.6407C8.29199 24.4684 9.09883 24.793 9.53783 25.4442C9.59549 25.5303 9.69082 25.5833 9.79406 25.5879C9.89613 25.5958 9.99705 25.5477 10.0617 25.467C10.426 25.0153 10.9697 24.7567 11.5523 24.7567C11.5877 24.7567 11.6207 24.7592 11.6751 24.7627C11.7811 24.7667 11.8879 24.7225 11.9541 24.6367C12.321 24.1621 12.8751 23.8896 13.4734 23.8896C13.5336 23.8896 13.594 23.8919 13.6654 23.901C13.7594 23.9096 13.8507 23.9273 13.9407 23.9494C13.967 23.9556 13.9928 23.9638 14.0186 23.9715C14.0856 23.9912 14.1509 24.0142 14.2149 24.0412C14.2381 24.0512 14.2623 24.0603 14.2851 24.071C14.366 24.1093 14.4451 24.1524 14.5204 24.2023C14.5153 24.2086 14.5113 24.2156 14.5064 24.2221C14.4437 24.3012 14.386 24.3835 14.3334 24.4683C14.3225 24.486 14.3132 24.5039 14.3025 24.5216C14.2565 24.6002 14.2149 24.6809 14.1774 24.7639C14.1711 24.7778 14.1642 24.7915 14.1577 24.8055C14.1184 24.8978 14.0856 24.9924 14.0577 25.0885C14.0514 25.1101 14.0456 25.1317 14.04 25.1538C14.0144 25.2529 13.9923 25.3524 13.9793 25.4537C13.961 25.5654 13.9519 25.683 13.9519 25.813C13.9519 25.9397 13.9642 26.0636 13.9819 26.1866C13.9858 26.2141 13.9896 26.241 13.9944 26.268C14.0158 26.3878 14.0437 26.505 14.0819 26.6196C14.0872 26.6359 14.0944 26.6519 14.1002 26.6682C14.1205 26.7261 14.1405 26.7842 14.1653 26.8405H0.704573L0.704752 26.8403ZM29.2953 26.8403H14.9125C14.8958 26.8147 14.8779 26.7894 14.8626 26.7629C14.8426 26.7285 14.8233 26.6943 14.8058 26.6589C14.7791 26.6057 14.7565 26.5511 14.7351 26.4957C14.7219 26.4606 14.7072 26.426 14.6958 26.3902C14.6761 26.3281 14.6619 26.2646 14.6489 26.2002C14.6426 26.1693 14.6335 26.1386 14.6289 26.1072C14.6142 26.0105 14.6052 25.9126 14.6052 25.8128C14.6052 25.7184 14.6112 25.6359 14.6254 25.5484C14.6817 25.1134 14.8928 24.7074 15.2234 24.4036C15.5317 24.1129 15.9154 23.939 16.3467 23.8992C16.4046 23.8916 16.4651 23.8892 16.5253 23.8892C17.1236 23.8892 17.6774 24.1615 18.0445 24.6363C18.1112 24.7226 18.2391 24.7679 18.3428 24.761C18.9499 24.7217 19.5505 24.9877 19.9365 25.4666C20.0018 25.5475 20.1004 25.5964 20.2041 25.5875C20.3073 25.5831 20.4027 25.5299 20.4603 25.4438C20.8956 24.7981 21.6966 24.4707 22.4521 24.6351C22.8811 24.7242 23.2708 24.9625 23.5497 25.3071C23.579 25.3431 23.616 25.3701 23.656 25.3908C23.6604 25.3931 23.6639 25.3959 23.6683 25.3978C23.7074 25.4157 23.7497 25.4247 23.7934 25.4257C23.7967 25.4257 23.7997 25.428 23.8032 25.428C23.8183 25.428 23.8334 25.4271 23.8488 25.4247C23.9618 25.4087 24.0587 25.3348 24.1034 25.229C24.1843 25.0381 24.2954 24.8616 24.4187 24.6944C24.4677 24.6281 24.5126 24.5588 24.5672 24.4968C24.7602 24.2787 24.9883 24.0903 25.2415 23.9427C25.6591 23.7004 26.1339 23.5723 26.6138 23.5723C28.1208 23.5723 29.3466 24.7979 29.3466 26.305C29.3475 26.4869 29.3303 26.6661 29.2952 26.8403L29.2953 26.8403Z" fill="black"/>
</svg>
