<svg width="27" height="27" viewBox="0 0 27 27" fill="none" xmlns="http://www.w3.org/2000/svg">
<path d="M10.2084 1.48476C9.69065 6.85178 10.1227 7.62909 9.2194 8.40538C9.04821 8.5528 8.85304 8.66008 8.64491 8.7276V1.52162C8.64491 0.832264 7.60357 0.833031 7.60357 1.52162V8.72146C6.96055 8.49853 6.48153 7.86407 6.43914 7.1046L6.04001 1.48444C5.99067 0.789665 4.95331 0.875783 5.00164 1.55855L5.40036 7.17053C5.47248 8.4734 6.40294 9.54931 7.60353 9.79022V12.4558H6.56219C6.28312 12.4558 6.05359 12.676 6.042 12.9546L5.63069 22.8204C5.59154 23.764 5.90536 24.6556 6.49167 25.2666C8.09155 26.9355 10.7332 25.5699 10.6176 22.8204L10.2066 12.9546C10.1951 12.676 9.96553 12.4558 9.68646 12.4558H8.64511V9.8006C9.82831 9.57207 10.7714 8.56667 10.8417 7.28922L11.247 1.55809C11.2953 0.873083 10.2576 0.794176 10.2084 1.48478L10.2084 1.48476ZM9.18703 13.4973C9.35323 22.1745 10.0754 23.4305 9.00545 24.5458C8.01325 25.5804 6.60213 24.5277 6.67106 22.8642L7.06159 13.4976L9.18703 13.4973Z" fill="#A4A4A4"/>
<path d="M8.64502 23.39L8.64482 22.8698C8.64482 22.8696 8.64502 22.8694 8.64502 22.8692V20.7865C8.64502 20.7857 8.64462 20.7851 8.64462 20.7843C8.61846 20.668 8.79804 19.7451 8.12383 19.7451C7.83597 19.7451 7.60303 19.9786 7.60303 20.2659L7.60363 23.39C7.60363 24.0792 8.64497 24.079 8.64497 23.39L8.64502 23.39Z" fill="#A4A4A4"/>
<path d="M16.3027 1.15337C15.976 0.825561 15.4139 1.05808 15.4139 1.52153C15.6436 25.6601 14.9275 25.994 15.9347 25.994C19.053 25.9369 19.1738 26.1243 19.4457 25.8217C19.7396 25.494 19.5424 25.6924 18.566 15.8179C22.6659 12.58 20.0324 4.88335 16.3027 1.15379V1.15337ZM16.4551 24.9524V2.86652C19.1495 6.12622 21.2302 12.521 17.835 15.0657C17.7873 15.1178 17.4597 15.2603 17.4994 15.6346L18.4803 24.9526L16.4551 24.9524Z" fill="#A4A4A4"/>
<rect x="0.86377" width="36.6489" height="1.22163" transform="rotate(45 0.86377 0)" fill="#676767"/>
</svg>
