<svg width="25" height="10" viewBox="0 0 25 10" fill="none" xmlns="http://www.w3.org/2000/svg">
<path d="M24.7831 4.06457L20.7589 0.207961C20.4696 -0.0693204 19.9962 -0.0693204 19.6805 0.207961C19.3911 0.485243 19.3911 0.938863 19.6805 1.24148L22.4158 3.86287H2.58413L5.31943 1.24148C5.60876 0.964195 5.60876 0.510575 5.31943 0.207961C5.0301 -0.0693204 4.55677 -0.0693204 4.24101 0.207961L0.216998 4.06457C-0.0723327 4.34185 -0.0723327 4.79547 0.216998 5.09809L4.24119 8.9547C4.39898 9.10591 4.58317 9.15637 4.76718 9.15637C4.95139 9.15637 5.16164 9.08077 5.29318 8.9547C5.58251 8.67741 5.58251 8.2238 5.29318 7.92118L2.58408 5.2996H22.4157L19.6804 7.89606C19.3911 8.17335 19.3911 8.62697 19.6804 8.92958C19.8382 9.08079 20.0224 9.13126 20.2064 9.13126C20.3906 9.13126 20.6009 9.05565 20.7324 8.92958L24.783 5.07279C25.0723 4.79551 25.0723 4.34189 24.783 4.06462L24.7831 4.06457Z" fill="black"/>
</svg>
