<svg width="25" height="32" viewBox="0 0 25 32" fill="none" xmlns="http://www.w3.org/2000/svg">
<path d="M15.8117 7.40363C17.5425 7.40363 18.9847 5.96143 18.9847 4.2306C18.9847 2.49978 17.6001 1 15.8117 1C14.0809 1 12.6387 2.4422 12.6387 4.17303C12.639 5.90348 14.0812 7.40363 15.8117 7.40363ZM15.8117 1.57697C17.2539 1.57697 18.4078 2.73083 18.4078 4.17303C18.4078 5.61523 17.2539 6.76908 15.8117 6.76908C14.3695 6.76908 13.2156 5.61523 13.2156 4.17303C13.2156 2.73083 14.3695 1.57697 15.8117 1.57697Z" fill="black" stroke="black" stroke-width="0.3"/>
<path d="M24.0617 12.0191L24.8117 7.11528C24.8117 6.94216 24.7541 6.82699 24.581 6.76904C24.4079 6.76904 24.2927 6.82663 24.2348 6.99975L23.4847 11.7304L14.5427 7.57663C14.3696 7.51904 14.2544 7.4611 14.0813 7.40351H13.9082H13.7926H13.6195H13.504C13.3885 7.40351 13.3309 7.40351 13.2157 7.46109H13.1581C12.5236 7.63421 12.0043 8.09563 11.7159 8.67252C11.6583 8.84564 11.6004 8.96082 11.6004 9.19188L9.7544 19.0569C9.69681 19.1724 8.42744 26.5568 8.02357 28.8069C7.79287 29.7301 8.31186 30.6529 9.235 30.8836C9.35054 30.9412 9.52329 30.9412 9.63883 30.9412C10.3889 30.9412 11.081 30.4218 11.2541 29.6721L13.3308 22.2301L15.6386 23.0377L17.3115 29.7876C17.4846 30.5376 18.2922 30.999 19.0423 30.8259C19.3885 30.7104 19.7344 30.4797 19.9075 30.1914C20.0806 29.9031 20.1382 29.4993 20.0806 29.153L18.8692 21.4225C18.7537 20.7879 18.3498 20.2686 17.7733 20.0378L13.8503 18.365L15.2349 12.1921L22.6772 14.8461C22.7928 14.9037 22.908 14.9037 23.0235 14.9616L20.543 30.6539C20.543 30.827 20.6005 30.9421 20.7737 31.0001H20.8312C20.9468 31.0001 21.1195 30.8846 21.1195 30.7694L23.6001 14.9622C24.0615 14.8467 24.5232 14.5008 24.696 14.039C25.0426 13.231 24.7539 12.4234 24.0618 12.0196L24.0617 12.0191ZM24.1768 13.75C23.9461 14.2693 23.4268 14.5 22.8499 14.2693L14.8886 11.5002L13.2157 18.7689L17.6002 20.6729C18.004 20.846 18.2923 21.1922 18.3503 21.596L19.5617 29.3266C19.6193 29.5573 19.5617 29.788 19.4461 29.9611C19.3306 30.1343 19.1579 30.3074 18.9268 30.365C18.4654 30.4805 18.0036 30.1919 17.8885 29.7304L16.1576 22.6344L12.9846 21.4806L10.7923 29.4994C10.6192 30.0763 10.0423 30.4226 9.46538 30.307C8.88844 30.1339 8.54221 29.557 8.65774 28.9224C9.23469 25.6342 10.3306 19.4032 10.3886 19.1724L12.2345 9.24989C12.2345 9.07677 12.2921 8.9616 12.3501 8.90365C12.5232 8.44224 12.927 8.15359 13.446 8.03842H13.6767H13.7922H13.8498H13.9653H14.0229C14.1385 8.03842 14.2536 8.09601 14.3692 8.15395L23.715 12.4229C24.1767 12.6536 24.4074 13.2881 24.1767 13.7498L24.1768 13.75Z" fill="black" stroke="black" stroke-width="0.3"/>
<path d="M8.83109 20.9607L10.3312 12.9418C10.5044 12.1342 10.1581 11.3265 9.5236 10.8072C10.3312 10.5765 10.9082 9.99958 11.0813 9.13434C11.3696 7.57661 10.3313 6.13451 8.83147 5.84616C8.65835 5.78857 8.48523 5.78857 8.31211 5.78857C6.92749 5.78857 5.77364 6.76933 5.54296 8.09637C5.36984 8.9616 5.65849 9.71167 6.3506 10.231C4.216 10.5193 2.48545 12.077 2.08167 14.2692L1.85096 15.5383C1.79338 15.769 1.85096 15.9997 1.9665 16.1729C2.08203 16.346 2.31274 16.4612 2.48586 16.5191L2.71656 16.5767C2.77415 16.5767 2.8321 16.6343 2.88968 16.6922C2.94727 16.7498 2.94727 16.8078 2.94727 16.9229C2.94727 17.0385 2.83173 17.1536 2.60103 17.1536L2.37032 17.096C1.90891 16.9805 1.44715 17.3268 1.38957 17.7882L1.04333 19.5766C0.927797 20.1535 1.04333 20.7304 1.38957 21.1919C1.73581 21.6533 2.19721 21.9995 2.77419 22.115L3.98562 22.3457L5.88955 22.692L6.29338 22.7496C6.40891 22.7496 6.58167 22.8071 6.6972 22.8071C7.73516 22.7492 8.65833 21.9991 8.83116 20.9608L8.83109 20.9607ZM6.06231 8.21126C6.23543 7.17293 7.21616 6.36528 8.25458 6.36528C8.37012 6.36528 8.54287 6.36528 8.65841 6.42286C9.17777 7.11497 9.35052 7.92301 9.06223 8.38437C8.83153 8.73061 8.4277 8.73061 8.13906 8.67266C7.79282 8.61507 7.56211 8.44195 7.50453 8.21125C7.44694 8.03813 7.56211 7.80742 7.67765 7.69189C7.79318 7.6343 7.96594 7.51877 8.19701 7.6343C8.31254 7.69189 8.4853 7.6343 8.60083 7.51877C8.65842 7.40324 8.60083 7.23048 8.4853 7.11494C8.08147 6.94182 7.67766 6.99941 7.33144 7.23048C6.9852 7.51877 6.81209 7.92259 6.92762 8.32638C6.9852 8.55709 7.21591 9.01849 8.02352 9.19161C8.19664 9.2492 8.31182 9.2492 8.48494 9.2492C9.11947 9.2492 9.46569 8.90296 9.58084 8.67225C9.86913 8.15289 9.86913 7.46082 9.58084 6.76832C10.2729 7.22973 10.6767 8.15295 10.504 9.01818C10.2733 10.1141 9.40811 10.3451 8.71561 10.3451C8.48491 10.3451 8.2542 10.3451 7.96556 10.2875C7.27381 10.1727 5.77366 9.71133 6.06237 8.21116L6.06231 8.21126ZM6.92754 10.7497C7.21583 10.7497 7.4469 10.7497 7.73518 10.8073H7.85071L8.48524 10.9229C9.35047 11.096 9.92744 11.9036 9.75434 12.7688C9.4081 12.7112 9.00429 12.5957 8.60049 12.5381C6.98519 12.1343 5.19679 11.7305 3.63906 12.1343C4.50465 11.2687 5.65851 10.7497 6.92761 10.7497L6.92754 10.7497ZM6.293 21.884C6.293 21.9996 6.17747 22.1147 6.0623 22.1147L4.1008 21.7685C4.04321 21.7685 3.98526 21.7109 3.92768 21.653C3.87009 21.5954 3.87009 21.5374 3.87009 21.4798L4.62015 17.4992C4.73568 16.9798 5.19709 16.576 5.71605 16.576H5.94676L6.23505 16.6336C6.81199 16.7491 7.2158 17.3257 7.10028 17.9027L6.293 21.884ZM6.812 22.1727C6.86959 22.1151 6.86959 22.0571 6.86959 21.9996L7.61964 18.0189C7.79276 17.0957 7.21582 16.2305 6.29269 16.0574L6.0044 15.9998C5.08122 15.8267 4.216 16.4612 4.04289 17.3267L3.29284 21.3074V21.5957L2.88901 21.5381C2.02379 21.365 1.44681 20.5574 1.61991 19.6921L1.96615 17.9037C1.96615 17.7882 2.08169 17.673 2.25444 17.673L2.48515 17.7306C2.94656 17.7882 3.40833 17.4999 3.4659 17.0385C3.52349 16.8078 3.4659 16.5771 3.35037 16.404C3.23484 16.2309 3.00413 16.1157 2.83101 16.0577L2.6003 16.0002C2.54272 16.0002 2.48477 15.9426 2.42718 15.8846C2.3696 15.827 2.3696 15.7691 2.3696 15.6539L2.60031 14.3848C2.71584 13.9234 2.83101 13.4616 3.06172 13.0579C4.61944 12.2502 6.6961 12.7696 8.4845 13.231C8.88833 13.3465 9.29214 13.4041 9.63835 13.5193L8.25373 20.9612C8.13892 21.5958 7.5044 22.1151 6.8119 22.1727L6.812 22.1727Z" fill="black" stroke="black" stroke-width="0.3"/>
</svg>
