<svg width="30" height="31" viewBox="0 0 30 31" fill="none" xmlns="http://www.w3.org/2000/svg">
<path d="M16.0324 12.982C16.0873 13.0941 16.2014 13.1651 16.3263 13.1649C16.375 13.1647 16.4231 13.1535 16.4668 13.1321C16.6287 13.0544 16.6973 12.8602 16.6203 12.698C16.5374 12.5199 16.4392 12.3493 16.3263 12.1885C16.219 12.0434 16.0144 12.0126 15.8691 12.1199C15.724 12.2272 15.6933 12.432 15.8006 12.577C15.8885 12.7057 15.9662 12.841 16.0324 12.982L16.0324 12.982Z" fill="black"/>
<path d="M13.8837 3.37219C13.9326 3.40271 13.9894 3.41843 14.047 3.41797C14.1641 3.41843 14.2725 3.35602 14.331 3.25466C14.4419 3.06197 14.5563 2.86928 14.6772 2.68C14.7736 2.52762 14.7282 2.32582 14.5759 2.22947C14.4235 2.1329 14.2219 2.17822 14.1253 2.3306C14.0012 2.52648 13.8805 2.72578 13.7661 2.92803C13.6769 3.08337 13.7295 3.28153 13.8837 3.37218L13.8837 3.37219Z" fill="black"/>
<path d="M11.5881 11.0654H11.6273C11.7933 11.0666 11.9339 10.9429 11.9537 10.778C12.2006 8.63489 12.7755 6.54237 13.6583 4.57392C13.7357 4.40879 13.6649 4.21222 13.5 4.13478C13.3349 4.05712 13.1383 4.12795 13.0606 4.29308C12.1482 6.32637 11.5556 8.48834 11.3041 10.703C11.2829 10.8815 11.4098 11.0435 11.5881 11.0656L11.5881 11.0654Z" fill="black"/>
<path d="M5.08717 17.129C4.74597 17.0286 4.38198 17.0365 4.0456 17.1518L0.767069 18.2881C0.480994 18.3856 0.245707 18.5938 0.114069 18.8659C-0.0171259 19.1374 -0.0360296 19.4495 0.0619099 19.7346L1.00873 22.4774C1.10667 22.763 1.31417 22.9983 1.58544 23.1311C1.85671 23.2639 2.16946 23.2837 2.45529 23.186L5.72058 22.0528C6.05768 21.9394 6.35014 21.7221 6.5565 21.4326L7.75159 19.7576L9.89695 19.0196V19.0194C10.1006 21.1092 10.5736 23.1636 11.3043 25.1319C11.311 25.1556 11.3198 25.1784 11.3303 25.2005C12.2936 27.6624 13.4495 29.0436 14.1385 29.7032V29.7035C14.3722 29.9276 14.6833 30.0529 15.0072 30.0529C15.3308 30.0529 15.6422 29.9276 15.8757 29.7035C16.5646 29.0505 17.7206 27.6627 18.6838 25.1973C18.6929 25.1782 18.7004 25.1586 18.7066 25.1385C19.5751 22.8886 20.2773 19.7411 20.3164 15.4243L22.9679 14.51L24.9272 15.0913H24.927C25.0841 15.1364 25.2468 15.1596 25.4103 15.1598C25.6005 15.1592 25.7891 15.1273 25.9688 15.0651L29.2341 13.9354C29.5186 13.8361 29.7523 13.6283 29.8843 13.3573C30.0165 13.0865 30.0363 12.7742 29.9392 12.4888L28.9924 9.74254V9.74277C28.8931 9.45829 28.6852 9.2246 28.4141 9.09315C28.1428 8.9615 27.8308 8.9426 27.5458 9.04054L24.2805 10.1703V10.1705C23.9555 10.2867 23.6733 10.4985 23.4708 10.7777L22.2757 12.4496L20.2905 13.1354C19.9181 5.08294 17.1327 1.54009 15.8886 0.348261C15.6547 0.124822 15.3438 0 15.0201 0C14.6964 0 14.3855 0.124816 14.1516 0.348261C12.816 1.63467 9.70422 5.62177 9.70422 15.0223C9.70422 15.6329 9.70422 16.2174 9.74339 16.7822L7.05938 17.7095L5.08717 17.129ZM15.4381 29.2106C15.2038 29.4329 14.8366 29.4329 14.6022 29.2106C13.7028 28.3055 12.9719 27.2472 12.4439 26.0856C13.1976 26.6238 14.0945 26.9249 15.0202 26.9509C15.9445 26.9288 16.8412 26.6322 17.5965 26.0988C17.0685 27.2604 16.3376 28.3186 15.4381 29.2236V29.2106ZM18.1354 24.8351C16.039 26.778 14.0014 26.778 11.9086 24.8513C11.1902 22.901 10.7313 20.8645 10.5436 18.7942L12.4375 18.1412C13.0611 19.2905 13.9754 20.0285 15.0204 20.0285C16.5911 20.0285 17.9069 18.3632 18.2433 16.1396L19.6768 15.6433C19.6147 19.7315 18.9387 22.7126 18.1355 24.8479L18.1354 24.8351ZM13.061 17.9291L17.5507 16.3814C17.2013 18.1186 16.2055 19.3756 15.03 19.3756C14.2365 19.3756 13.5345 18.814 13.061 17.9291ZM25.6784 11.6335C25.6196 11.4631 25.434 11.3727 25.2636 11.431L23.3404 12.084L23.9934 11.1567C24.125 10.9788 24.3088 10.8463 24.5191 10.778L27.7844 9.64822C27.9062 9.60563 28.0397 9.61338 28.1556 9.66986C28.2716 9.72612 28.3602 9.82657 28.4016 9.94865L29.3484 12.6914C29.4368 12.942 29.3093 13.2171 29.0612 13.3119L25.7959 14.4416C25.5855 14.5161 25.3568 14.5218 25.1429 14.458L23.2295 13.8964L23.0402 13.3413L22.8999 12.9363L25.4693 12.0483C25.5525 12.0214 25.6212 11.9624 25.6604 11.8845C25.6996 11.8066 25.7062 11.7162 25.6784 11.6335L25.6784 11.6335ZM14.6026 0.822416C14.837 0.600114 15.2042 0.600114 15.4386 0.822416C16.6337 1.96853 19.3177 5.39371 19.6475 13.3676L18.2338 13.8541C17.8844 11.6565 16.5781 10.0173 15.0207 10.0173C13.1987 10.0173 11.713 12.2638 11.713 15.023C11.7127 15.3758 11.7378 15.7284 11.7879 16.0778L10.3872 16.5611C10.3708 16.0648 10.3578 15.5555 10.3578 15.0232C10.3578 5.88041 13.326 2.04311 14.6027 0.822119L14.6026 0.822416ZM15.0206 11.4311C13.8517 11.4311 12.9374 13.0082 12.9374 15.0231C12.9385 15.2413 12.9517 15.4592 12.9766 15.6761L12.4083 15.8621C12.3775 15.5836 12.3632 15.3034 12.3659 15.023C12.3659 12.623 13.5578 10.6704 15.0206 10.6704C16.2842 10.6704 17.3422 12.1268 17.6098 14.0696L13.6068 15.4508C13.6068 15.3105 13.5904 15.1668 13.5904 15.0231C13.5904 13.2925 14.3448 12.0844 15.0205 12.0844C15.2009 12.0844 15.3472 11.9382 15.3472 11.7578C15.3472 11.5774 15.2009 11.4312 15.0205 11.4312L15.0206 11.4311ZM22.2795 13.1519L22.5571 13.9585L7.76184 19.0623L7.48419 18.2526L22.2795 13.1519ZM6.03813 21.0475C5.90989 21.2254 5.72973 21.3589 5.52223 21.4295L2.25694 22.5627C2.00161 22.6517 1.72259 22.5173 1.63309 22.2622L0.686271 19.516C0.644589 19.3948 0.652789 19.2623 0.709047 19.147C0.763256 19.0327 0.860971 18.9445 0.98009 18.9022L4.24538 17.769V17.7692C4.45766 17.7 4.68634 17.7 4.89838 17.7692L6.81185 18.3309L7.00112 18.8828L7.19381 19.4379L6.03813 21.0475Z" fill="black"/>
<path d="M26.5368 11.663C26.5734 11.6626 26.6099 11.656 26.6445 11.6434L27.402 11.3822C27.4991 11.3687 27.5847 11.3123 27.6355 11.2287C27.6865 11.1451 27.697 11.043 27.6647 10.9508C27.6323 10.8583 27.5601 10.7854 27.4681 10.7519C27.3761 10.7187 27.274 10.7283 27.1898 10.7781L26.4322 11.0394C26.3457 11.0533 26.2682 11.1009 26.2167 11.1719C26.1653 11.243 26.1441 11.3316 26.158 11.4182C26.1869 11.5986 26.3564 11.7213 26.5368 11.6924L26.5368 11.663Z" fill="black"/>
<path d="M15.0201 21.0994C14.5871 21.0994 14.1719 21.2713 13.8655 21.5777C13.5594 21.8838 13.3875 22.299 13.3875 22.732C13.3875 23.165 13.5594 23.5805 13.8655 23.8866C14.1719 24.1927 14.5871 24.3647 15.0201 24.3647C15.4531 24.3647 15.8683 24.1927 16.1747 23.8866C16.4808 23.5805 16.6528 23.165 16.6528 22.732C16.6528 22.299 16.4808 21.8838 16.1747 21.5777C15.8683 21.2713 15.4531 21.0994 15.0201 21.0994ZM15.0201 23.6886V23.6889C14.7602 23.6889 14.511 23.5857 14.3275 23.4019C14.1437 23.2183 14.0405 22.9691 14.0405 22.7092C14.0405 22.4493 14.1436 22.2001 14.3275 22.0166C14.511 21.8328 14.7602 21.7296 15.0201 21.7296C15.28 21.7296 15.5292 21.8328 15.7128 22.0166C15.8966 22.2001 15.9998 22.4493 15.9998 22.7092C15.9998 22.9691 15.8966 23.2183 15.7128 23.4019C15.5292 23.5857 15.28 23.6889 15.0201 23.6889V23.6886Z" fill="black"/>
</svg>
