<svg width="19" height="25" viewBox="0 0 19 25" fill="none" xmlns="http://www.w3.org/2000/svg">
<path d="M12.7544 24.9999C12.154 24.9997 11.5874 24.7364 11.1996 24.2784C10.8184 23.8281 10.6522 23.2382 10.7405 22.656L10.8585 20.3027C10.8794 19.89 10.7341 19.4986 10.4497 19.1989C9.88098 18.5997 8.85447 18.5993 8.28504 19.198C8.00045 19.4973 7.85474 19.8887 7.87543 20.3014L7.99143 22.6549C8.07925 23.2371 7.91242 23.8268 7.53098 24.2768C7.14272 24.7347 6.57597 24.9972 5.97555 24.997C4.97496 24.9966 4.12999 24.2803 3.96603 23.2932L3.13887 18.3198C3.1327 18.2821 3.13072 18.2443 3.13314 18.2062L3.65896 10.3758C3.65874 8.40946 5.2855 6.78422 7.28449 6.78506H7.31332V6.60414C6.34113 5.93019 5.74843 4.81296 5.74882 3.6231C5.74926 2.58887 6.1932 1.60169 6.96662 0.913879C7.73963 0.227135 8.77741 -0.0968541 9.81142 0.0253039C11.3891 0.210851 12.7108 1.48196 12.9542 3.04798C13.1717 4.45071 12.5785 5.81688 11.4318 6.60634V6.78682H11.4606C13.4538 6.7877 15.0757 8.40525 15.0841 10.3965L15.6023 18.2116C15.6047 18.2497 15.6027 18.2878 15.5965 18.3252L14.7654 23.298C14.6006 24.2849 13.7547 25.0005 12.7544 25L12.7544 24.9999ZM9.36793 17.7482C10.054 17.7484 10.6918 18.0222 11.1644 18.5198C11.637 19.0168 11.878 19.6674 11.8434 20.3522L11.7239 22.7322C11.723 22.7509 11.7211 22.7698 11.7175 22.7885C11.6665 23.0942 11.7519 23.4048 11.9522 23.6414C12.1525 23.8778 12.445 24.0138 12.7546 24.0138C13.2708 24.014 13.7077 23.6445 13.7926 23.1356L14.6143 18.2192L14.099 10.4457C14.0986 10.4347 14.0981 10.4242 14.0981 10.4129C14.0988 8.95785 12.9153 7.77346 11.4603 7.77284L10.9384 7.77262C10.6659 7.7724 10.4454 7.55186 10.4456 7.27937L10.446 6.33468C10.446 6.15904 10.54 5.99616 10.6923 5.90812C11.6445 5.35677 12.1498 4.29392 11.9799 3.1989C11.8036 2.06206 10.8431 1.13917 9.6968 1.00428C8.92757 0.912498 8.19265 1.14316 7.62192 1.65096C7.0589 2.15147 6.7356 2.87012 6.73515 3.62307C6.73471 4.5596 7.23984 5.43448 8.05398 5.90683C8.20607 5.99509 8.29983 6.15774 8.29983 6.3336L8.29939 7.2783C8.29917 7.55078 8.07863 7.77132 7.80615 7.7711L7.28429 7.77088C5.82921 7.77022 4.64482 8.9537 4.6442 10.4088L4.12146 18.2149L4.93893 23.132C5.02345 23.6409 5.45991 24.0109 5.97603 24.0111C6.28571 24.0114 6.57843 23.8756 6.77874 23.6394C6.97903 23.403 7.06486 23.0926 7.01402 22.7867C7.01072 22.768 7.00874 22.7491 7.00786 22.7304L6.89033 20.3504C6.85643 19.6657 7.09788 19.0153 7.57087 18.5187C8.04365 18.0215 8.68174 17.7484 9.36803 17.7486L9.36793 17.7482Z" fill="black"/>
<path d="M0.49298 18.2087C0.368844 18.2087 0.244483 18.1618 0.14874 18.0685C-0.0403293 17.8841 -0.0504546 17.5836 0.125849 17.3866C0.214988 17.2876 0.317115 17.1907 0.431131 17.097L1.86463 15.749L17.9379 2.72412L18.5586 3.48986L3.39814 15.7744C7.49314 14.6582 13.9072 14.5515 16.8304 15.6694C18.405 16.2718 18.735 17.119 18.7348 17.7236L17.7487 17.7232C17.7489 17.1888 17.0583 16.8124 16.4781 16.5907C12.7458 15.1621 3.43792 15.9588 1.10971 17.8121L0.830398 18.0753C0.735095 18.1643 0.613816 18.2089 0.492543 18.2089L0.49298 18.2087Z" fill="black"/>
</svg>
