<svg width="20" height="27" viewBox="0 0 20 27" fill="none" xmlns="http://www.w3.org/2000/svg">
<path d="M10.0001 15.4738C6.98252 15.4738 4.5614 13.0177 4.5614 10.0351C4.5614 7.01755 7.01748 4.59644 10.0001 4.59644C12.9826 4.59644 15.4387 7.05251 15.4387 10.0351C15.4387 13.0177 13.0176 15.4738 10.0001 15.4738ZM10.0001 6.31586C7.96497 6.31586 6.31579 7.96498 6.31579 10.0001C6.31579 12.0352 7.96491 13.6844 10.0001 13.6844C12.0352 13.6844 13.6843 12.0353 13.6843 10.0001C13.6843 7.96504 12.0352 6.31586 10.0001 6.31586Z" fill="#D4002A"/>
<path d="M10.0001 26.8771C9.75433 26.8771 9.50885 26.7719 9.33333 26.5614C8.94736 26.1052 0 15.2982 0 10C0 4.4911 4.49123 0 10 0C15.5088 0 20 4.49123 20 10C20 15.2982 11.0526 26.1053 10.6667 26.5614C10.4912 26.7719 10.2457 26.8771 9.99994 26.8771H10.0001ZM10.0001 1.75433C5.4386 1.75433 1.75445 5.47356 1.75445 9.99994C1.75445 13.579 7.19311 21.0877 10.0001 24.5964C12.8071 21.0877 18.2457 13.5438 18.2457 9.99994C18.2457 5.4735 14.5614 1.75433 10.0001 1.75433Z" fill="#D4002A"/>
</svg>
