<svg width="30" height="30" viewBox="0 0 30 30" fill="none" xmlns="http://www.w3.org/2000/svg">
<path d="M29.8437 22.992C29.6826 22.8626 29.4463 22.8892 29.3169 23.0508C28.4936 24.0809 27.2688 24.6714 25.9553 24.6714C24.6422 24.6714 23.4171 24.0806 22.5938 23.0508C22.5846 23.0393 22.5716 23.0336 22.5611 23.0234C22.5512 23.0134 22.546 23.0009 22.5347 22.992C22.5258 22.9849 22.5151 22.9834 22.506 22.9771C22.484 22.9624 22.4618 22.9515 22.4377 22.942C22.4158 22.9334 22.3946 22.9258 22.3718 22.9214C22.3478 22.9167 22.3248 22.9156 22.3005 22.9156C22.2769 22.9156 22.2545 22.9167 22.2309 22.9211C22.2077 22.9256 22.1862 22.9332 22.1637 22.942C22.1399 22.9515 22.1182 22.9624 22.0966 22.9766C22.0871 22.9828 22.0762 22.9844 22.0673 22.9917C22.056 23.0006 22.0508 23.0134 22.0409 23.0234C22.0307 23.0336 22.0176 23.039 22.0084 23.0505C21.1852 24.0806 19.9604 24.6712 18.6469 24.6712C17.3337 24.6712 16.1086 24.0803 15.2854 23.0505C15.2762 23.039 15.2632 23.0336 15.253 23.0234C15.243 23.0134 15.2378 23.0009 15.2266 22.992C15.2177 22.9849 15.2067 22.9831 15.1973 22.9771C15.1756 22.9627 15.1536 22.9517 15.1298 22.9423C15.1076 22.9334 15.0864 22.9258 15.0634 22.9214C15.0396 22.9167 15.0164 22.9156 14.992 22.9156C14.9683 22.9156 14.9455 22.9167 14.9222 22.9214C14.899 22.9258 14.8775 22.9334 14.8551 22.9423C14.8313 22.9517 14.8093 22.9627 14.7876 22.9771C14.7782 22.9834 14.7675 22.9849 14.7586 22.992C14.7473 23.0009 14.7421 23.0137 14.7322 23.0234C14.722 23.0336 14.7089 23.039 14.6995 23.0505C13.8762 24.0806 12.6514 24.6712 11.338 24.6712C10.0248 24.6712 8.7997 24.0803 7.97643 23.0505C7.96728 23.039 7.95421 23.0333 7.94375 23.0231C7.93381 23.0132 7.92859 23.0006 7.91734 22.9917C7.90846 22.9847 7.89774 22.9828 7.88833 22.9768C7.86663 22.9624 7.84441 22.9515 7.82062 22.9418C7.79839 22.9329 7.77722 22.9253 7.75421 22.9209C7.73042 22.9162 7.70742 22.9151 7.68284 22.9151C7.65905 22.9151 7.63657 22.9162 7.6133 22.9209C7.58977 22.9253 7.56807 22.9329 7.54559 22.942C7.52206 22.9515 7.50036 22.9622 7.47892 22.9766C7.46951 22.9828 7.45853 22.9844 7.44964 22.9917C7.4384 23.0006 7.43317 23.0134 7.42324 23.0234C7.41304 23.0335 7.39997 23.039 7.39082 23.0505C6.56755 24.0806 5.34272 24.6712 4.02928 24.6712C2.71611 24.6712 1.49101 24.0803 0.667745 23.0505C0.538857 22.889 0.302524 22.8623 0.140956 22.9917C-0.0208735 23.1209 -0.0472759 23.3569 0.0821333 23.5185C1.04842 24.7273 2.48682 25.4207 4.02928 25.4207C5.42457 25.4207 6.73092 24.8487 7.68362 23.8458C8.63626 24.8489 9.94267 25.4207 11.338 25.4207C12.7333 25.4207 14.0396 24.8487 14.9923 23.8458C15.9449 24.8489 17.2514 25.4207 18.6467 25.4207C20.0419 25.4207 21.3483 24.8487 22.301 23.8458C23.2534 24.8489 24.56 25.4207 25.9553 25.4207C27.4978 25.4207 28.9362 24.7274 29.9025 23.5185C30.0319 23.3569 30.0055 23.1211 29.8437 22.992V22.992Z" fill="black"/>
<path d="M29.9026 28.098C30.0318 27.9362 30.0054 27.7004 29.8438 27.5712C29.6827 27.4418 29.4464 27.4687 29.317 27.63C28.494 28.6599 27.2689 29.2507 25.9557 29.2507C24.6426 29.2507 23.4175 28.6598 22.5942 27.63C22.585 27.6185 22.572 27.6128 22.5615 27.6029C22.5516 27.5929 22.5463 27.5804 22.5351 27.5715C22.5262 27.5644 22.5155 27.5629 22.5061 27.5566C22.4841 27.5419 22.4622 27.5312 22.4381 27.5216C22.4162 27.5127 22.395 27.5053 22.3722 27.5009C22.3482 27.4962 22.3249 27.4952 22.3003 27.4952C22.2768 27.4952 22.2543 27.4962 22.2313 27.5006C22.2075 27.5051 22.1858 27.5129 22.1631 27.5221C22.1398 27.5315 22.1184 27.5422 22.097 27.5561C22.0875 27.5623 22.0763 27.5642 22.0674 27.5712C22.0562 27.5801 22.0507 27.5929 22.0407 27.6029C22.0305 27.6131 22.0175 27.6185 22.0083 27.63C21.1856 28.6599 19.9605 29.2507 18.6473 29.2507C17.3342 29.2507 16.1091 28.6598 15.2858 27.63C15.2766 27.6185 15.2636 27.6131 15.2534 27.6029C15.2434 27.5929 15.2382 27.5801 15.227 27.5712C15.2181 27.5642 15.2071 27.5623 15.1977 27.5561C15.176 27.5417 15.1543 27.531 15.1305 27.5216C15.1083 27.5127 15.0868 27.5051 15.0638 27.5006C15.0398 27.4959 15.0168 27.4949 14.9922 27.4949C14.9687 27.4949 14.9464 27.4959 14.9232 27.5004C14.8994 27.5048 14.8774 27.5127 14.8547 27.5218C14.8314 27.5312 14.8097 27.5419 14.7883 27.5561C14.7789 27.5623 14.7679 27.5639 14.7587 27.5712C14.7475 27.5801 14.7423 27.5929 14.7323 27.6029C14.7221 27.6131 14.7091 27.6185 14.6999 27.63C13.8769 28.6599 12.6521 29.2507 11.3387 29.2507C10.0255 29.2507 8.80038 28.6598 7.97712 27.63C7.96797 27.6185 7.9549 27.6128 7.94444 27.6029C7.9345 27.5929 7.92927 27.5804 7.91803 27.5715C7.90914 27.5644 7.89816 27.5626 7.88901 27.5566C7.86731 27.5422 7.84536 27.5312 7.82157 27.5218C7.79934 27.5129 7.77817 27.5053 7.7549 27.5009C7.73085 27.4962 7.70784 27.4952 7.68327 27.4952C7.65974 27.4952 7.63752 27.4962 7.61451 27.5006C7.59046 27.5051 7.5685 27.5129 7.5455 27.5223C7.52249 27.5318 7.50106 27.5422 7.47988 27.5561C7.47047 27.5623 7.45923 27.5642 7.45008 27.5715C7.43883 27.5804 7.43334 27.5932 7.42341 27.6031C7.41321 27.6133 7.40014 27.6188 7.39099 27.63C6.56853 28.6599 5.34343 29.2507 4.03026 29.2507C2.71708 29.2507 1.49199 28.6598 0.668721 27.63C0.539833 27.4687 0.303501 27.4418 0.141932 27.5712C-0.0198969 27.7004 -0.0462993 27.9364 0.0831099 28.098C1.0496 29.3069 2.48806 30.0002 4.03026 30.0002C5.42555 30.0002 6.73189 29.4282 7.6846 28.4254C8.63697 29.4282 9.94365 30.0002 11.3387 30.0002C12.734 30.0002 14.0403 29.4282 14.993 28.4254C15.9457 29.4282 17.2521 30.0002 18.6474 30.0002C20.0427 30.0002 21.349 29.4282 22.3017 28.4254C23.2541 29.4282 24.5605 30.0002 25.9558 30.0002C27.498 30.0002 28.9364 29.3069 29.9027 28.098L29.9026 28.098Z" fill="black"/>
<path d="M0.376453 20.4461H29.6101C29.8172 20.4461 29.985 20.2782 29.985 20.0712C29.985 19.8641 29.8174 19.6963 29.6101 19.6963L24.7435 19.6965V11.2129C27.6656 11.0186 29.9847 8.58598 29.9847 5.61584C29.9847 2.51913 27.4655 0 24.3686 0C21.2719 0 18.7528 2.5192 18.7528 5.61584C18.7528 8.58598 21.0719 11.0186 23.9939 11.2129V19.6965H0.376118C0.16906 19.6965 0.0012207 19.8644 0.0012207 20.0714C0.0012207 20.2782 0.168799 20.4461 0.376118 20.4461H0.376453ZM19.5021 5.61572C19.5021 2.93262 21.6854 0.7494 24.3685 0.7494C27.0518 0.7494 29.2351 2.93235 29.2351 5.61572C29.2351 8.17253 27.2515 10.2706 24.7434 10.4632V8.27192L27.1404 5.87486C27.2869 5.72846 27.2869 5.49134 27.1404 5.34493C26.994 5.19853 26.7569 5.19853 26.6105 5.34493L24.7436 7.21206V4.03357C24.7436 3.82651 24.576 3.65867 24.3687 3.65867C24.1616 3.65867 23.9938 3.82651 23.9938 4.03357V7.21206L22.1269 5.34493C21.9805 5.19853 21.7434 5.19853 21.5969 5.34493C21.4505 5.49134 21.4505 5.72846 21.5969 5.87486L23.994 8.27192V10.4632C21.4856 10.2706 19.5021 8.17253 19.5021 5.61572H19.5021Z" fill="black"/>
<path d="M2.76294 5.89207C2.76294 7.4609 4.03924 8.73727 5.60787 8.73727C7.17697 8.73727 8.45333 7.46097 8.45333 5.89207C8.45333 4.32324 7.17704 3.04688 5.60787 3.04688C4.03904 3.04688 2.76294 4.32317 2.76294 5.89207ZM5.60787 3.79646C6.76343 3.79646 7.70348 4.73658 7.70348 5.89207C7.70348 7.04763 6.76309 7.98769 5.60787 7.98769C4.45231 7.98769 3.51245 7.04756 3.51245 5.89207C3.51245 4.73651 4.45231 3.79646 5.60787 3.79646Z" fill="black"/>
<path d="M5.98222 1.65789V0.391499C5.98222 0.184441 5.81464 0.0166016 5.60732 0.0166016C5.40026 0.0166016 5.23242 0.184441 5.23242 0.391499V1.65789C5.23242 1.86495 5.4 2.03279 5.60732 2.03279C5.81464 2.03253 5.98222 1.86469 5.98222 1.65789Z" fill="black"/>
<path d="M2.67799 1.22157C2.55616 1.05451 2.3227 1.01635 2.15434 1.13869C1.98702 1.26026 1.94963 1.4945 2.0712 1.66234L2.81523 2.68693C2.88869 2.78784 3.00294 2.84143 3.11901 2.84143C3.19509 2.84143 3.27248 2.81817 3.33888 2.7698C3.5062 2.64824 3.54359 2.41399 3.42202 2.24615L2.67799 1.22157Z" fill="black"/>
<path d="M0.26071 4.54868L1.46513 4.94005C1.50356 4.95259 1.54225 4.95861 1.58068 4.95861C1.73885 4.95861 1.88551 4.85769 1.93728 4.69953C2.00133 4.50267 1.89336 4.29117 1.69649 4.22712L0.492077 3.83575C0.295218 3.77196 0.0839768 3.87967 0.0199277 4.07627C-0.0441233 4.27339 0.0638481 4.48463 0.26071 4.54868V4.54868Z" fill="black"/>
<path d="M0.0196824 7.70803C0.0711847 7.8662 0.218107 7.96711 0.376276 7.96711C0.414706 7.96711 0.453396 7.9611 0.491832 7.94855L1.69625 7.55718C1.89311 7.49313 2.00108 7.28163 1.93703 7.08477C1.87298 6.88817 1.66096 6.77994 1.46488 6.84425L0.260466 7.23561C0.0636072 7.29967 -0.0443666 7.51117 0.0196824 7.70802V7.70803Z" fill="black"/>
<path d="M2.15457 10.6453C2.22124 10.6936 2.29836 10.7169 2.37444 10.7169C2.49052 10.7169 2.60476 10.6633 2.67823 10.5624L3.42226 9.53779C3.54382 9.37021 3.50644 9.13597 3.33912 9.01414C3.17076 8.89206 2.9373 8.9297 2.81547 9.09702L2.07144 10.1216C1.94988 10.2894 1.98726 10.5237 2.15458 10.6453H2.15457Z" fill="black"/>
<path d="M5.23267 10.1264V11.3928C5.23267 11.5998 5.40024 11.7677 5.60756 11.7677C5.81462 11.7677 5.98246 11.5998 5.98246 11.3928V10.1264C5.98246 9.9193 5.81488 9.75146 5.60756 9.75146C5.40024 9.75146 5.23267 9.9193 5.23267 10.1264Z" fill="black"/>
<path d="M8.39953 9.09728C8.27849 8.92996 8.04372 8.89284 7.87615 9.01441C7.70883 9.13597 7.67144 9.37048 7.79353 9.53806L8.53809 10.5626C8.6113 10.6636 8.72554 10.7171 8.84162 10.7171C8.91822 10.7171 8.99508 10.6939 9.06149 10.6455C9.22881 10.5239 9.26619 10.2894 9.1441 10.1219L8.39953 9.09728Z" fill="black"/>
<path d="M9.51938 7.55747L10.7238 7.94884C10.7622 7.96138 10.8009 7.9674 10.8394 7.9674C10.9975 7.9674 11.1442 7.86648 11.1959 7.70832C11.26 7.51146 11.152 7.29995 10.9552 7.23591L9.75074 6.84454C9.55467 6.78075 9.34265 6.88846 9.2786 7.08506C9.21428 7.28192 9.32225 7.49342 9.51938 7.55747V7.55747Z" fill="black"/>
<path d="M9.63506 4.95871C9.6735 4.95871 9.71218 4.9527 9.75062 4.94015L10.955 4.54878C11.1519 4.48473 11.2599 4.27323 11.1958 4.07637C11.1318 3.87977 10.9205 3.7718 10.7237 3.83585L9.51925 4.22722C9.32239 4.29127 9.21442 4.50277 9.27847 4.69962C9.33024 4.85779 9.4769 4.95871 9.63506 4.95871V4.95871Z" fill="black"/>
<path d="M9.06154 1.13854C8.89396 1.01672 8.65919 1.0541 8.53815 1.22142L7.79359 2.246C7.67176 2.41332 7.70915 2.64782 7.8762 2.76965C7.94287 2.81802 8.01973 2.84128 8.09607 2.84128C8.21215 2.84128 8.32639 2.78769 8.3996 2.68678L9.14416 1.66219C9.26625 1.49487 9.22886 1.26037 9.06154 1.13854H9.06154Z" fill="black"/>
</svg>
