<svg width="27" height="27" viewBox="0 0 27 27" fill="none" xmlns="http://www.w3.org/2000/svg">
<path d="M20.7516 22.6999C21.4157 22.6999 21.9561 22.1592 21.9561 21.4955V3.94855C21.9561 3.28423 21.4154 2.74411 20.7516 2.74411H18.9862C18.9737 2.73291 18.9652 2.71852 18.9508 2.70866L16.4827 1.06449C16.4728 1.05809 16.4606 1.05649 16.4502 1.05116C16.4281 1.03944 16.4062 1.03011 16.3814 1.02292C16.3569 1.01519 16.3324 1.01039 16.3068 1.00773C16.2943 1.00666 16.2831 1.00053 16.2706 1.00053L7.68471 1C7.67219 1 7.66153 1.00613 7.64927 1.00719C7.62289 1.00986 7.59838 1.01492 7.57333 1.02238C7.54934 1.03011 7.52723 1.03891 7.50537 1.05063C7.49498 1.05649 7.48272 1.05756 7.4734 1.06395L5.00529 2.70813C4.99117 2.71773 4.98237 2.73211 4.96985 2.74357H3.20445C2.54013 2.74357 2 3.28425 2 3.94802V21.4956C2 22.1597 2.54068 22.7001 3.20445 22.7001L20.7516 22.6999ZM21.1926 3.94828V21.4959C21.1926 21.7389 20.9947 21.9363 20.7522 21.9363L12.3601 21.9361V8.54021L14.2342 9.78866C14.2995 9.83183 14.3728 9.85235 14.4458 9.85235C14.5691 9.85235 14.6907 9.79266 14.7639 9.68207L18.8773 3.50702H20.7514C20.9944 3.50729 21.1924 3.70528 21.1924 3.94831L21.1926 3.94828ZM5.88396 3.04065L7.57903 1.91185L11.4483 7.72071L9.616 8.94091L5.85633 3.29646C5.88298 3.2445 5.90136 3.18801 5.90136 3.12539C5.90136 3.09528 5.89071 3.06836 5.88404 3.04065H5.88396ZM8.39811 1.76368H15.5575L11.978 7.13738L8.39811 1.76368ZM18.0993 3.29701L14.3397 8.94091L12.5074 7.72071L16.3769 1.91185L18.0714 3.04065C18.0645 3.06889 18.0541 3.09554 18.0541 3.12592C18.0544 3.18801 18.073 3.2445 18.0994 3.29699L18.0993 3.29701ZM2.76403 21.4954V3.94849C2.76403 3.70546 2.96202 3.508 3.20451 3.508H5.07913L9.19244 9.68305C9.26572 9.79391 9.38723 9.85333 9.51061 9.85333C9.58309 9.85333 9.6569 9.83281 9.72193 9.78911L11.5961 8.54066V21.9365H3.20463C2.96188 21.936 2.76415 21.7383 2.76415 21.4955L2.76403 21.4954Z" fill="#A4A4A4"/>
<path d="M23.151 5.0437C22.9397 5.0437 22.7689 5.21478 22.7689 5.42583C22.7689 5.63661 22.9397 5.80796 23.151 5.80796C23.394 5.80796 23.5915 6.00541 23.5915 6.24844V23.796C23.5915 24.039 23.3935 24.2365 23.151 24.2365L5.60342 24.236C5.36039 24.236 5.16294 24.038 5.16294 23.7955C5.16294 23.5847 4.99186 23.4134 4.78081 23.4134C4.57003 23.4134 4.39868 23.5844 4.39868 23.7955C4.39868 24.4598 4.93936 24.9999 5.60313 24.9999H23.1507C23.8148 24.9999 24.3552 24.4593 24.3552 23.7955L24.3554 6.24858C24.3554 5.58426 23.8148 5.04414 23.151 5.04414L23.151 5.0437Z" fill="#A4A4A4"/>
<path d="M14.9861 12.1609C14.3591 12.1609 13.8496 12.6704 13.8496 13.2974C13.8496 13.9239 14.3591 14.4339 14.9861 14.4339C15.6131 14.4339 16.1229 13.9244 16.1229 13.2974C16.1226 12.6704 15.6126 12.1609 14.9861 12.1609ZM14.9861 13.6694C14.7809 13.6694 14.6136 13.5026 14.6136 13.2969C14.6136 13.0914 14.7809 12.9243 14.9861 12.9243C15.1916 12.9243 15.3589 13.0917 15.3589 13.2969C15.3592 13.502 15.1918 13.6694 14.9861 13.6694Z" fill="#A4A4A4"/>
<path d="M14.9861 16.8215C14.3591 16.8215 13.8496 17.331 13.8496 17.958C13.8496 18.5845 14.3591 19.0945 14.9861 19.0945C15.6131 19.0945 16.1229 18.585 16.1229 17.958C16.1226 17.3316 15.6126 16.8215 14.9861 16.8215ZM14.9861 18.3303C14.7809 18.3303 14.6136 18.1635 14.6136 17.9578C14.6136 17.7523 14.7809 17.5852 14.9861 17.5852C15.1916 17.5852 15.3589 17.7526 15.3589 17.9578C15.3592 18.163 15.1918 18.3303 14.9861 18.3303Z" fill="#A4A4A4"/>
<rect x="1" width="36.6489" height="1.22163" transform="rotate(45 1 0)" fill="#676767"/>
</svg>
