<svg width="58" height="36" viewBox="0 0 58 36" fill="none" xmlns="http://www.w3.org/2000/svg">
<rect width="58" height="36" rx="4" fill="#EBEEF0"/>
<path d="M34.7402 15.5027H34.1187V13.1054C34.1187 10.242 32.0544 8 29.1021 8C26.1498 8 24.1299 10.2863 24.1299 13.1054V15.4806H23.5083C22.1321 15.4806 21.0223 16.5905 21 17.9889V25.4917C21 26.8679 22.1099 27.9777 23.5083 28H34.7402C36.1164 28 37.2263 26.8901 37.2486 25.4917V17.9885C37.2486 16.6123 36.1164 15.5025 34.7402 15.5025V15.5027ZM25.3729 15.5027V13.1054C25.3729 10.9744 26.838 9.24301 29.102 9.24301C31.3439 9.24301 32.8755 10.93 32.8755 13.1054V15.4806L25.3728 15.4804V15.5027L25.3729 15.5027ZM35.9833 25.4915C35.9833 26.1796 35.4283 26.7346 34.7403 26.7346H23.5084C22.8203 26.7346 22.2654 26.1796 22.2654 25.4915V17.9888C22.2654 17.3007 22.8203 16.7458 23.5084 16.7458H34.7403C35.4283 16.7458 35.9833 17.3007 35.9833 17.9888V25.4915ZM30.3673 20.4971C30.3673 20.9633 30.1232 21.3628 29.7458 21.5848H29.7237H29.7458V23.627C29.7458 23.9822 29.4572 24.2485 29.1243 24.2485C28.7691 24.2485 28.5028 23.9599 28.5028 23.627V21.5848H28.5249H28.5028C28.1254 21.3628 27.8812 20.9633 27.8812 20.4971C27.8812 19.809 28.4362 19.2541 29.1242 19.2541C29.8123 19.2318 30.3673 19.7868 30.3673 20.4971H30.3673Z" fill="black"/>
</svg>
