<svg width="30" height="18" viewBox="0 0 30 18" fill="none" xmlns="http://www.w3.org/2000/svg">
<path d="M15.0257 0C17.682 0 19.8271 2.14542 19.8271 4.85276C19.8271 7.50903 17.6817 9.65411 15.0257 9.65411C12.3184 9.65411 10.173 7.50868 10.173 4.85276C10.173 2.14547 12.3184 0 15.0257 0ZM15.0257 1.0217C12.8803 1.0217 11.1947 2.70733 11.1947 4.85276C11.1947 6.94716 12.8803 8.63276 15.0257 8.63276C17.1201 8.63276 18.8057 6.94712 18.8057 4.85276C18.8057 2.70733 17.1201 1.0217 15.0257 1.0217Z" fill="black"/>
<path d="M8.79368 17.0611C8.79368 17.3164 8.53835 17.5209 8.23182 17.4697C7.97648 17.4697 7.77203 17.2144 7.82321 16.9079C8.23182 13.2811 11.2967 10.4719 15.0255 10.4719C18.7032 10.4719 21.8191 13.2813 22.2277 16.9079C22.2277 17.2144 22.0234 17.4697 21.7679 17.4697C21.4614 17.5208 21.206 17.3164 21.206 17.0611C20.8485 13.8942 18.1922 11.4934 15.0254 11.4934C11.8586 11.4934 9.15105 13.8942 8.79381 17.0611H8.79368Z" fill="black"/>
<path d="M24.4754 4.13794C26.5699 4.13794 28.2554 5.82358 28.2554 7.86692C28.2554 9.96133 26.5698 11.6469 24.4754 11.6469C22.4323 11.6469 20.7465 9.96129 20.7465 7.86692C20.7465 5.82375 22.4321 4.13794 24.4754 4.13794ZM24.4754 5.15964C22.9941 5.15964 21.7682 6.38561 21.7682 7.86692C21.7682 9.39925 22.9941 10.6253 24.4754 10.6253C26.0078 10.6253 27.2338 9.3993 27.2338 7.86692C27.2338 6.38561 26.0078 5.15964 24.4754 5.15964Z" fill="black"/>
<path d="M22.4323 13.6896C22.177 13.8428 21.8704 13.7406 21.7172 13.4853C21.6149 13.2299 21.7172 12.9234 21.9725 12.7701C22.7387 12.4126 23.6071 12.1572 24.4755 12.1572C27.2338 12.1572 29.5836 14.2004 29.9922 16.9076C30.0432 17.1629 29.8389 17.4695 29.5836 17.4695C29.2771 17.5205 29.0217 17.3162 28.9707 17.0609C28.6641 14.8134 26.7232 13.1788 24.4756 13.1788C23.7605 13.1788 23.0453 13.3831 22.4324 13.6896L22.4323 13.6896Z" fill="black"/>
<path d="M5.52451 4.13794C7.56768 4.13794 9.25349 5.82358 9.25349 7.86692C9.25349 9.96133 7.56786 11.6469 5.52451 11.6469C3.4301 11.6469 1.74451 9.96129 1.74451 7.86692C1.74451 5.82375 3.43014 4.13794 5.52451 4.13794ZM5.52451 5.15964C3.99218 5.15964 2.76616 6.38561 2.76616 7.86692C2.76616 9.39925 3.99213 10.6253 5.52451 10.6253C7.00582 10.6253 8.2318 9.3993 8.2318 7.86692C8.2318 6.38561 7.00582 5.15964 5.52451 5.15964Z" fill="black"/>
<path d="M1.02947 17.0609C0.978436 17.3162 0.722935 17.5207 0.467606 17.4695C0.161071 17.4695 -0.0432422 17.1629 0.00781689 16.9076C0.416422 14.2003 2.76616 12.1572 5.52451 12.1572C6.3929 12.1572 7.26133 12.4126 8.07854 12.7702C8.28284 12.9234 8.38507 13.2299 8.28284 13.4853C8.12957 13.7406 7.82305 13.8428 7.56771 13.6896C6.95479 13.383 6.23966 13.1787 5.52453 13.1787C3.27703 13.1787 1.33593 14.8133 1.02945 17.0608L1.02947 17.0609Z" fill="black"/>
</svg>
