<svg width="28" height="26" viewBox="0 0 28 26" fill="none" xmlns="http://www.w3.org/2000/svg">
<path d="M18.7727 25.5221H9.09355H9.09389C7.67986 25.5197 6.32473 24.9572 5.32507 23.9576C4.32506 22.9579 3.76253 21.6024 3.7605 20.1887C3.7605 18.9235 4.89623 18.0602 5.89791 17.298C6.59719 16.7657 7.39017 16.1633 7.42394 15.6613C7.58102 11.2848 10.0158 8.65967 13.9348 8.65967C17.8538 8.65967 20.2895 11.2849 20.4474 15.6831V15.709C20.4474 16.3421 21.2583 16.9208 22.0426 17.4799C23.0106 18.1712 24.1077 18.9535 24.1077 20.1892L24.1074 20.1888C24.1057 21.6029 23.5432 22.9583 22.5428 23.9584C21.5428 24.958 20.1873 25.5205 18.7729 25.5222L18.7727 25.5221ZM13.9332 10.0987C9.69726 10.0987 8.93773 13.6284 8.86154 15.7284C8.78265 16.9068 7.75923 17.685 6.76954 18.4386C5.99827 19.0252 5.20118 19.6309 5.20118 20.182V20.1817C5.20221 21.2141 5.61282 22.2037 6.34272 22.9337C7.07265 23.6639 8.06232 24.0746 9.0947 24.0759H18.7738H18.7735C19.8058 24.0742 20.7952 23.6636 21.5247 22.9333C22.2547 22.2034 22.665 21.2137 22.6659 20.1817C22.6659 19.6877 21.9243 19.1586 21.206 18.646C20.1778 17.9133 19.0135 17.0825 19.0056 15.7166C18.9267 13.6154 18.1623 10.0983 13.9329 10.0983L13.9332 10.0987Z" fill="black" stroke="white" stroke-width="0.5"/>
<path d="M4.07058 13.156C3.34857 13.1546 2.65037 12.899 2.09781 12.4343C1.54528 11.97 1.1739 11.3258 1.04859 10.6148C0.766127 8.98305 1.73374 6.92482 3.46714 6.61864C4.27492 6.47534 5.14608 6.75988 5.86813 7.39508C6.50816 7.95485 6.94319 8.71168 7.1058 9.54634C7.24807 10.3496 7.06516 11.1763 6.59702 11.8446C6.12923 12.5129 5.41447 12.9679 4.61111 13.1088C4.43268 13.1402 4.25183 13.156 4.07064 13.156L4.07058 13.156ZM3.88594 8.0203C3.82945 8.0203 3.77296 8.02512 3.71715 8.03511C2.86562 8.1853 2.30964 9.46123 2.46881 10.361C2.57008 10.9359 2.97001 11.413 3.51873 11.6124C4.06714 11.8122 4.6803 11.7044 5.12739 11.3293C5.57452 10.9541 5.78775 10.3688 5.68647 9.79396C5.57968 9.28173 5.30858 8.81846 4.91416 8.47463C4.5821 8.18218 4.21696 8.02303 3.88593 8.02303L3.88594 8.0203Z" fill="black" stroke="white" stroke-width="0.5"/>
<path d="M10.0503 7.59064C9.23492 7.58926 8.45335 7.26512 7.87671 6.68851C7.30007 6.11187 6.97591 5.3303 6.97485 4.51494C6.97485 2.85567 8.29039 1 10.0503 1C11.8102 1 13.1257 2.85567 13.1257 4.51494H13.1261C13.125 5.33031 12.8005 6.11188 12.2239 6.68851C11.6473 7.26516 10.8657 7.58932 10.0504 7.59064H10.0503ZM10.0503 2.44182C9.18601 2.44182 8.41684 3.6003 8.41684 4.51591C8.40582 4.95615 8.57323 5.38226 8.88084 5.69741C9.18846 6.01294 9.61043 6.1907 10.0511 6.1907C10.4913 6.1907 10.9133 6.01295 11.2209 5.69741C11.5285 5.38222 11.6959 4.95611 11.6849 4.51591C11.6822 3.6003 10.9126 2.44182 10.0504 2.44182H10.0503Z" fill="black" stroke="white" stroke-width="0.5"/>
<path d="M17.9517 7.59064C17.1363 7.58926 16.3547 7.26512 15.7781 6.68851C15.2015 6.11187 14.8769 5.3303 14.876 4.51494C14.876 2.85567 16.1915 1 17.9514 1C19.7113 1 21.0268 2.85567 21.0268 4.51494H21.0272C21.0262 5.33031 20.702 6.11188 20.1253 6.68851C19.5487 7.26516 18.7671 7.58932 17.9518 7.59064H17.9517ZM17.9517 2.44182C17.0864 2.44182 16.3172 3.6003 16.3172 4.51591C16.3062 4.95615 16.4736 5.38226 16.7812 5.69741C17.0888 6.01294 17.5108 6.1907 17.951 6.1907C18.3916 6.1907 18.8136 6.01295 19.1212 5.69741C19.4289 5.38222 19.5963 4.95611 19.5852 4.51591C19.5883 3.6003 18.8188 2.44182 17.9518 2.44182H17.9517Z" fill="black" stroke="white" stroke-width="0.5"/>
<path d="M23.9314 13.1558C23.7502 13.1558 23.5694 13.1399 23.3909 13.1086C22.5876 12.967 21.8735 12.5123 21.4057 11.844C20.9376 11.1758 20.7543 10.3494 20.8962 9.54603C21.0595 8.71138 21.4949 7.95492 22.1346 7.39477C22.8535 6.75888 23.7288 6.47536 24.5346 6.61833C25.3406 6.76163 26.0675 7.32553 26.5245 8.16915H26.5249C26.9348 8.91423 27.0853 9.77437 26.9534 10.6145C26.828 11.3255 26.4567 11.9696 25.9042 12.434C25.3517 12.8987 24.6534 13.1543 23.9314 13.1557L23.9314 13.1558ZM24.116 8.0201C23.785 8.0201 23.4199 8.17925 23.0898 8.47136C22.694 8.81582 22.4223 9.28018 22.3155 9.79377C22.2397 10.2206 22.3365 10.6601 22.5848 11.0156C22.8329 11.3711 23.2121 11.6132 23.6389 11.689C24.0657 11.7651 24.5053 11.668 24.8607 11.42C25.2162 11.1716 25.4584 10.7923 25.5342 10.3656C25.6099 9.84609 25.5138 9.31633 25.2606 8.85645C25.0137 8.4021 24.6592 8.10275 24.2868 8.03764C24.2303 8.02765 24.1731 8.02283 24.116 8.02283L24.116 8.0201Z" fill="black" stroke="white" stroke-width="0.5"/>
</svg>
