<svg width="21" height="28" viewBox="0 0 21 28" fill="none" xmlns="http://www.w3.org/2000/svg">
<path d="M10.6738 15.9689C7.7547 15.9689 5.4126 13.5929 5.4126 10.7077C5.4126 7.78864 7.78852 5.44653 10.6738 5.44653C13.559 5.44653 15.9349 7.82246 15.9349 10.7077C15.9349 13.5929 13.5928 15.9689 10.6738 15.9689ZM10.6738 7.10984C8.70509 7.10984 7.10973 8.70515 7.10973 10.6739C7.10973 12.6426 8.70503 14.2379 10.6738 14.2379C12.6425 14.2379 14.2378 12.6426 14.2378 10.6739C14.2378 8.70521 12.6425 7.10984 10.6738 7.10984Z" fill="black" stroke="white" stroke-width="0.5"/>
<path d="M10.6737 27C10.436 27 10.1985 26.8982 10.0287 26.6946C9.65536 26.2532 1 15.799 1 10.6736C1 5.34454 5.34466 1 10.6736 1C16.0026 1 20.3473 5.34466 20.3473 10.6736C20.3473 15.7989 11.6919 26.2533 11.3186 26.6946C11.1488 26.8982 10.9113 27 10.6736 27H10.6737ZM10.6737 2.69708C6.26111 2.69708 2.69719 6.29493 2.69719 10.6736C2.69719 14.1358 7.95836 21.3995 10.6737 24.7937C13.3892 21.3995 18.6502 14.1018 18.6502 10.6736C18.6502 6.29487 15.0862 2.69708 10.6737 2.69708Z" fill="black" stroke="white" stroke-width="0.5"/>
</svg>
