<svg width="30" height="30" viewBox="0 0 30 30" fill="none" xmlns="http://www.w3.org/2000/svg">
<path d="M29.826 0.169093C29.6659 0.0110985 29.4292 -0.0416377 29.2175 0.0341183L4.88028 8.7117C4.03486 8.1946 2.96235 8.07365 1.97861 8.48088C0.345899 9.15722 -0.43234 11.0358 0.244005 12.6687C1.83884 16.5188 4.14158 19.9652 7.08835 22.9116C10.0351 25.8581 13.4816 28.1611 17.3313 29.756C17.7312 29.9215 18.1455 30 18.5536 30C19.8119 30 21.0083 29.2544 21.5189 28.0214C21.8625 27.1919 21.8301 26.2989 21.5013 25.5324L29.9684 0.77572C30.0412 0.562894 29.9857 0.327055 29.8256 0.169071L29.826 0.169093ZM8.56544 8.64202L11.1448 7.72252C11.4476 8.0452 11.5952 8.48924 11.5361 8.93855C11.484 9.33406 11.2811 9.68561 10.9646 9.92855C10.6482 10.1715 10.2563 10.2764 9.86057 10.2245C9.46506 10.1723 9.11351 9.96936 8.87073 9.65295C8.6466 9.36102 8.54009 9.00526 8.56541 8.64199L8.56544 8.64202ZM20.437 27.5733C20.008 28.6091 18.816 29.1028 17.7803 28.6736C10.2781 25.566 4.43451 19.7228 1.32734 12.2206C1.11954 11.7188 1.11954 11.1663 1.32734 10.6645C1.53514 10.1627 1.92584 9.77196 2.42765 9.56416C2.92947 9.35636 3.48216 9.35636 3.98375 9.56416C4.48557 9.77196 4.87626 10.1627 5.08407 10.6645C6.41415 13.8758 8.33502 16.7502 10.7927 19.2081C13.2505 21.6659 16.1252 23.5868 19.3363 24.9167C20.3722 25.3457 20.8659 26.5375 20.4369 27.5732L20.437 27.5733ZM25.6427 9.80454C25.5897 9.80328 25.5366 9.80014 25.4836 9.79324C25.0881 9.74113 24.7366 9.53814 24.4938 9.22173C24.2508 8.90532 24.1458 8.51313 24.1979 8.11767C24.3054 7.30112 25.0569 6.72458 25.8737 6.83194C26.1256 6.865 26.3621 6.96294 26.5638 7.11152L25.6427 9.80454ZM26.9533 5.97206C26.6679 5.81657 26.3541 5.71299 26.0264 5.66988C24.5691 5.47757 23.2277 6.50737 23.0359 7.96468C22.9429 8.67055 23.1304 9.3703 23.5638 9.93511C23.9813 10.4792 24.579 10.8345 25.2532 10.9429L24.0887 14.3483L22.7494 13.3205C22.4926 13.1236 22.1247 13.172 21.9278 13.4287C21.7309 13.6855 21.7792 14.0534 22.036 14.2503L23.6886 15.5185L20.6597 24.375C20.4056 24.154 20.1131 23.9692 19.7854 23.8336C13.5753 21.2613 8.73885 16.4252 6.16686 10.2156C6.0775 9.99968 5.96638 9.79921 5.83811 9.6144L7.40717 9.05506C7.462 9.52779 7.64344 9.97875 7.94059 10.3661C8.37398 10.9309 9.00137 11.2932 9.70723 11.3861C9.82546 11.4016 9.94328 11.4093 10.0607 11.4093C10.6435 11.4093 11.2074 11.2189 11.6777 10.8581C12.2425 10.4247 12.6048 9.79733 12.6979 9.09131C12.7812 8.45766 12.6334 7.82985 12.3013 7.31004L19.5849 4.71303L19.861 5.37952C19.9545 5.60511 20.1726 5.74134 20.4025 5.74134C20.4772 5.74134 20.5532 5.7269 20.6264 5.69656C20.9255 5.57267 21.0674 5.2299 20.9435 4.93107L20.6901 4.31896L28.4666 1.54618L26.9533 5.97206Z" fill="black"/>
<path d="M6.32769 15.7196C6.32601 15.7169 6.32099 15.7093 6.31911 15.7066C6.13976 15.4375 5.77648 15.3653 5.50738 15.5444C5.23869 15.7233 5.16565 16.0866 5.34353 16.3558C5.4557 16.5282 5.64341 16.6222 5.8353 16.6222C5.94391 16.6222 6.05357 16.592 6.1515 16.529C6.42375 16.3543 6.50265 15.9919 6.3277 15.7196L6.32769 15.7196Z" fill="black"/>
<path d="M5.43683 14.2635C4.86575 13.2624 4.35264 12.2146 3.91126 11.1494C3.78737 10.8504 3.4446 10.7085 3.14577 10.8324C2.84673 10.9563 2.70484 11.2991 2.82873 11.5979C3.28869 12.7083 3.82377 13.8004 4.41896 14.844C4.52715 15.0336 4.7249 15.1397 4.92852 15.1397C5.02687 15.1397 5.12669 15.1148 5.21835 15.0627C5.4994 14.9024 5.59733 14.5446 5.43683 14.2635Z" fill="black"/>
<path d="M18.3359 7.49909C18.2198 7.48382 18.1017 7.47607 17.9854 7.47607C16.6542 7.47607 15.5194 8.47241 15.3455 9.7937C15.1536 11.2508 16.183 12.5924 17.6401 12.7843C17.7563 12.7996 17.8743 12.8073 17.9906 12.8073C19.3216 12.8073 20.4566 11.811 20.6305 10.4895C20.8224 9.03259 19.793 7.69099 18.3359 7.49909ZM19.4687 10.3367C19.3712 11.0771 18.7356 11.6354 17.9904 11.6354C17.9249 11.6354 17.8584 11.631 17.7929 11.6225C16.9763 11.5149 16.3996 10.7632 16.5072 9.94668C16.6047 9.20631 17.24 8.64799 17.9852 8.64799C18.0507 8.64799 18.1172 8.65238 18.1827 8.66096C18.9995 8.76852 19.5763 9.5202 19.4687 10.3367Z" fill="black"/>
<path d="M18.1838 14.7879C18.0677 14.7726 17.9496 14.7649 17.8333 14.7649C16.5021 14.7649 15.3673 15.7612 15.1934 17.0827C15.1005 17.7886 15.288 18.4884 15.7214 19.0532C16.1548 19.618 16.7822 19.9802 17.488 20.0733C17.6042 20.0886 17.722 20.0964 17.8383 20.0964C19.1695 20.0964 20.3045 19.1 20.4784 17.7785C20.6701 16.3212 19.6407 14.9798 18.1838 14.7879H18.1838ZM19.3166 17.6253C19.2191 18.3657 18.5835 18.924 17.8383 18.924C17.7728 18.924 17.7063 18.9196 17.6408 18.9111C17.2453 18.859 16.8937 18.656 16.6508 18.3396C16.4078 18.0231 16.3028 17.631 16.3549 17.2355C16.4524 16.4951 17.0879 15.9368 17.8329 15.9368C17.8984 15.9368 17.965 15.9412 18.0305 15.9498C18.8472 16.0571 19.424 16.809 19.3166 17.6253H19.3166Z" fill="black"/>
<path d="M14.319 12.3602L12.518 12.1231C12.1974 12.0804 11.9028 12.3066 11.8606 12.6274C11.8183 12.9482 12.0441 13.2426 12.3649 13.2849L14.1658 13.522C14.1918 13.5256 14.2175 13.527 14.243 13.527C14.5324 13.527 14.7844 13.3123 14.8231 13.0175C14.8656 12.6967 14.6398 12.4025 14.319 12.3601L14.319 12.3602Z" fill="black"/>
<path d="M13.4055 16.6845L13.2465 15.4759C13.2042 15.1551 12.91 14.9291 12.5892 14.9714C12.2684 15.0137 12.0426 15.3079 12.0846 15.6287L12.2437 16.8372C12.2824 17.1321 12.5343 17.3468 12.8238 17.3468C12.8493 17.3468 12.875 17.3451 12.901 17.3418C13.222 17.2995 13.4478 17.0053 13.4055 16.6845L13.4055 16.6845Z" fill="black"/>
</svg>
