<svg width="58" height="36" viewBox="0 0 58 36" fill="none" xmlns="http://www.w3.org/2000/svg">
<rect width="58" height="36" rx="4" fill="#EBEEF0"/>
<path d="M28.9998 28.9995C31.1754 28.9996 33.3022 28.3545 35.111 27.146C36.9201 25.9373 38.33 24.2194 39.1626 22.2096C39.9953 20.1997 40.2131 17.9879 39.7886 15.854C39.3641 13.7201 38.3162 11.7603 36.7778 10.2219C34.7149 8.15893 31.9169 7 28.9998 7C26.0828 7 23.2845 8.15888 21.2219 10.2219C19.1592 12.2848 18 15.0828 18 17.9998C18 20.9169 19.1589 23.7152 21.2219 25.7778C22.241 26.8024 23.4532 27.6147 24.7882 28.1677C26.1235 28.7204 27.555 29.003 29.0001 28.999L28.9998 28.9995ZM35.7052 11.2873C37.3867 12.9746 38.3721 15.2326 38.4658 17.6131C38.5595 19.9934 37.7547 22.3217 36.2114 24.1363L22.8563 10.7812C24.6695 9.23508 26.9986 8.42849 29.38 8.52239C31.7611 8.61611 34.0195 9.60328 35.7053 11.2874L35.7052 11.2873ZM21.7885 11.8464L35.1435 25.2191C33.3291 26.7623 31.0002 27.5659 28.6198 27.4698C26.2399 27.3738 23.9831 26.3852 22.299 24.7007C20.615 23.0162 19.6268 20.7595 19.5312 18.3795C19.4357 15.9995 20.2396 13.6708 21.7833 11.8567L21.7885 11.8464Z" fill="#D4002A"/>
</svg>
