<svg width="30" height="30" viewBox="0 0 30 30" fill="none" xmlns="http://www.w3.org/2000/svg">
<path d="M29.8685 19.476C29.4031 19.105 29.3999 18.2919 29.3954 17.2646C29.3925 16.2573 29.3878 15.1164 28.9374 13.9984C28.0945 11.9034 25.9365 11.2108 25.3449 11.0582C24.5221 9.82241 22.9884 9.1245 20.7778 8.98167C18.8773 8.86043 18.0461 8.50964 17.715 8.30723C17.8433 8.11616 17.9461 7.90004 18.0036 7.65441C18.1725 6.92567 17.8984 6.14322 17.1895 5.32327L17.3039 5.09951C17.3909 4.93057 17.3273 4.72289 17.16 4.63223C16.0531 4.03001 12.9437 3.15896 11.7888 2.84691C11.8879 2.6055 11.9424 2.34141 11.9424 2.06521C11.9424 1.72391 11.8581 1.40185 11.7108 1.11719C11.7084 1.11218 11.7063 1.10849 11.7039 1.10428C11.3579 0.448026 10.6687 0 9.87589 0C8.73707 0 7.81044 0.926359 7.81044 2.06518V2.07757V2.0802C7.81228 2.29447 7.84628 2.49951 7.90795 2.69349C7.69685 2.65185 7.50999 2.57963 7.30732 2.50109C6.96022 2.36694 6.56724 2.21382 6.0009 2.20222C5.04607 2.18114 4.32259 2.56197 4.06459 2.71878C3.68981 2.72563 2.47669 2.79363 1.74768 3.41561L0.514805 2.76121C0.389615 2.69479 0.236756 2.70981 0.127644 2.79969C0.0185319 2.89035 -0.0260053 3.03688 0.015104 3.17235C0.157425 3.64121 0.485017 4.56283 0.967574 5.02513C0.966519 5.02803 0.964674 5.03093 0.963357 5.03357C0.531922 6.49125 0.35534 8.41441 0.347959 8.49537C0.347169 8.50328 0.348223 8.51118 0.347959 8.51909C0.347959 8.52779 0.347169 8.53754 0.347959 8.54703C0.349013 8.56126 0.350858 8.57681 0.354284 8.59078C0.355075 8.59684 0.355075 8.60211 0.35692 8.60844C0.357184 8.60949 0.357974 8.61107 0.357974 8.61265C0.358238 8.6145 0.358238 8.61608 0.358765 8.61792L0.764635 10.1212C0.805486 10.2743 0.944908 10.3811 1.1033 10.3811H2.41107C2.53283 10.3811 2.64563 10.3176 2.70967 10.2145L3.24759 9.33896L5.44271 8.65819C5.7653 8.91146 6.04388 9.20954 6.18623 9.54191C6.0679 9.92986 5.80118 11.0766 6.46612 11.8955C6.61872 12.0852 6.65535 12.1914 6.66379 12.2325C6.64639 12.2412 6.62267 12.2497 6.60633 12.2518C6.5921 12.2526 6.58973 12.2544 6.57497 12.257L3.37515 12.9333C3.37146 12.9341 3.36804 12.9359 3.36487 12.9367C3.35881 12.9378 3.35328 12.9394 3.34722 12.9412C3.33061 12.9462 3.31506 12.9523 3.29951 12.9597C3.29661 12.9607 3.29345 12.9615 3.29082 12.9633C3.28923 12.9633 3.28844 12.9644 3.28739 12.9644C3.2692 12.9739 3.25155 12.9852 3.23521 12.9973C3.23099 13.0018 3.22677 13.005 3.22203 13.0087C3.21096 13.0176 3.19963 13.0287 3.18908 13.0398C3.18539 13.0448 3.18065 13.0485 3.17749 13.0535C3.1651 13.069 3.15324 13.0846 3.14375 13.102C3.14191 13.1062 3.14006 13.1091 3.13796 13.1125C3.13031 13.1273 3.12399 13.1415 3.11819 13.1571C3.11555 13.1634 3.11371 13.1692 3.11213 13.1752C3.11028 13.181 3.10844 13.1855 3.10686 13.1908C3.10448 13.2003 3.10343 13.21 3.10158 13.2193C3.10079 13.2245 3.09921 13.2298 3.09895 13.2359C3.09658 13.2548 3.09552 13.2751 3.0971 13.2941C3.0971 13.2999 3.09816 13.3046 3.09895 13.3112C3.1 13.326 3.10264 13.3408 3.10607 13.3558C3.10765 13.3616 3.10896 13.3679 3.11107 13.3742C3.11634 13.3935 3.12346 13.4132 3.13295 13.4312C3.13295 13.4319 3.13295 13.4327 3.13321 13.4327L4.21482 15.5965C4.24697 15.6608 4.29837 15.7143 4.36136 15.748L7.60651 17.5062C7.65791 17.5334 7.71562 17.5489 7.77361 17.5489H8.36186C8.58852 17.8301 8.91348 18.065 9.28114 18.065C9.4145 18.065 9.55286 18.0339 9.6936 17.9632C10.3643 17.6293 10.4584 16.7232 10.2052 16.039C10.0175 15.5301 9.73471 15.2335 9.36597 15.1561C9.01913 15.0839 8.70866 15.2346 8.50944 15.3714L7.3329 14.6614L9.80479 14.9152C10.2394 15.4494 12.045 17.3613 15.1858 16.7754C18.0543 16.2401 18.9266 17.2382 20.2468 18.7488C20.3854 18.9067 20.5275 19.0696 20.6756 19.2348C20.679 19.2377 20.6827 19.2406 20.6854 19.2433C21.0246 19.9533 21.5148 20.6525 22.2232 21.1996L22.3624 21.3061C22.7717 21.6218 23.1833 21.9394 23.5847 22.2605L25.04 24.9295L25.4817 26.5395L25.8563 28.8206L19.5895 28.8198C19.396 28.8198 19.2389 28.9766 19.2389 29.1701C19.2389 29.3638 19.396 29.5211 19.5895 29.5211H27.7108C27.7137 29.5211 27.7169 29.5203 27.7198 29.5203C27.7361 29.5195 27.7535 29.5177 27.7701 29.5143C27.778 29.5127 27.7859 29.5114 27.7935 29.5098C27.8065 29.5069 27.8196 29.5021 27.8328 29.4977C27.8391 29.495 27.8449 29.4935 27.8513 29.4913C27.8663 29.4845 27.8808 29.4766 27.8948 29.4679L27.9058 29.4608H27.9077L29.066 28.7465C29.1851 28.6748 29.2489 28.5381 29.2297 28.4L28.9595 26.4613C28.9587 26.4571 28.9571 26.4542 28.9569 26.4502C28.9558 26.4431 28.9545 26.4365 28.9532 26.4291L27.8713 21.8341C27.8502 21.7424 27.7938 21.6644 27.7145 21.6151L26.018 20.5714L24.6069 18.556C24.8006 18.1944 25.2115 17.3711 25.5436 16.3472C26.1938 19.5694 27.9583 20.5116 28.0471 20.5577C28.0987 20.5841 28.1527 20.5967 28.2068 20.5967C28.3156 20.5967 28.4226 20.5451 28.4906 20.452C28.5926 20.3126 28.5771 20.1207 28.4548 19.999C28.1583 19.7012 28.0792 19.357 28.089 19.0552C28.6638 19.7732 29.4895 20.0662 29.5354 20.0815C29.6972 20.1374 29.8743 20.0686 29.9563 19.9197C30.039 19.77 30.0013 19.5826 29.8685 19.4761L29.8685 19.476ZM8.89082 15.9607C8.98517 15.8927 9.11932 15.8211 9.22211 15.8424C9.33439 15.8661 9.45325 16.0269 9.54786 16.2823C9.75501 16.8418 9.57079 17.2416 9.38156 17.3365C9.23766 17.4079 9.05818 17.3154 8.89083 17.0887L8.89082 15.9607ZM20.7338 9.6816C20.8121 9.68661 20.8898 9.69293 20.967 9.69978C21.1188 10.3031 20.6349 11.0898 20.1774 11.6686C19.7007 12.2716 19.1554 12.7649 18.9569 12.9383L15.8625 13.2688L14.9282 10.511L16.3372 9.38959C16.48 9.32976 16.8672 9.14975 17.2388 8.83296C17.6628 9.13209 18.6201 9.5451 20.7338 9.68159V9.6816ZM14.311 13.2106L13.5346 10.8249L14.2733 10.7633L15.1382 13.3181L14.769 13.3864C14.7274 13.3901 14.5571 13.4049 14.317 13.4041C14.3326 13.3419 14.3315 13.2744 14.311 13.2106L14.311 13.2106ZM12.7162 10.5435C12.717 10.5471 12.717 10.5522 12.7173 10.5564C12.7196 10.5761 12.7241 10.5956 12.7297 10.6162C12.7305 10.618 12.7307 10.6199 12.7312 10.6212L13.5591 13.1647L13.3287 13.3068C12.6177 13.1605 11.8602 12.8074 11.6014 11.9838C11.3196 11.0861 11.8349 9.93285 12.3162 9.1224C12.6928 8.4904 13.1097 7.96273 13.3348 7.69339C13.4626 7.75348 13.5823 7.81041 13.6893 7.8618L12.7368 10.389C12.7345 10.3948 12.7331 10.4011 12.7308 10.4075C12.7289 10.4125 12.7279 10.4172 12.7263 10.423C12.7213 10.4415 12.7179 10.4596 12.716 10.4786C12.7157 10.4839 12.7157 10.4876 12.7157 10.4907C12.7147 10.5087 12.7152 10.5255 12.7163 10.5435L12.7162 10.5435ZM16.7968 6.0889L16.8403 6.00378C17.2612 6.55434 17.4225 7.05374 17.321 7.49364C17.1294 8.32777 16.0454 8.75209 16.0349 8.75607C16.0012 8.76846 15.9693 8.78717 15.9405 8.80984L14.3816 10.0499L13.5886 10.1171L14.4146 7.92612L16.0886 6.9412C16.2499 6.84606 16.3082 6.64075 16.2209 6.47603L16.0336 6.12076L16.3514 6.25306C16.519 6.32264 16.7135 6.25148 16.7968 6.08887L16.7968 6.0889ZM11.3937 3.4671C12.2186 3.68769 15.1886 4.50128 16.5177 5.09717L16.3205 5.48064L15.4028 5.09796C15.2663 5.04129 15.1089 5.07556 15.0096 5.1844C14.9092 5.29404 14.8899 5.45375 14.9582 5.58447L15.4442 6.50611L14.1137 7.28835C13.6981 7.08595 12.6855 6.60367 12.038 6.38568L12.1328 5.70599C12.1592 5.51439 12.0258 5.33728 11.8342 5.31013C11.6411 5.28377 11.465 5.41739 11.4386 5.609L11.0915 8.09512C10.7057 7.87875 10.0871 7.39566 9.47673 6.85692C9.46803 6.84822 9.45854 6.83979 9.44985 6.83267C9.30885 6.70801 9.16863 6.57992 9.03159 6.4521L9.38897 6.06178L9.74529 6.18011V6.63817C9.74529 6.83162 9.90131 6.9887 10.0955 6.9887C10.2893 6.9887 10.4458 6.83162 10.4458 6.63817L10.4455 4.69579L11.3937 3.4671ZM9.30711 5.05898L9.74566 5.19656V5.44219L9.50978 5.36312L9.30711 5.05898ZM11.2419 2.06528C11.2419 2.37786 11.1357 2.66565 10.9578 2.89577L10.4011 1.87029L11.1841 1.67685C11.2215 1.80019 11.2418 1.93117 11.2418 2.06532L11.2419 2.06528ZM9.87642 0.700842C10.2275 0.700842 10.5458 0.834466 10.7878 1.05216L8.59638 1.59613C8.78878 1.07508 9.28903 0.700808 9.87649 0.700808L9.87642 0.700842ZM9.69852 2.04578L10.3956 3.32825C10.2359 3.39387 10.0609 3.43129 9.87695 3.43129C9.21648 3.43129 8.66384 2.95822 8.53916 2.3341L9.69852 2.04578ZM5.98661 2.90339C6.42938 2.91235 6.73276 3.03069 7.05425 3.15535C7.40372 3.29029 7.76241 3.42971 8.26978 3.42971C8.28876 3.42971 8.308 3.42865 8.32618 3.42865C8.70518 3.8593 9.25942 4.13209 9.87664 4.13209C9.91775 4.13209 9.95913 4.13025 9.99893 4.12761L9.81786 4.36218C9.79362 4.3946 9.77491 4.42991 9.76278 4.4676L5.14455 3.01147C5.38438 2.94453 5.66875 2.8963 5.98657 2.90341L5.98661 2.90339ZM8.84065 5.62323L8.63613 5.84646L8.56207 5.6878L8.72257 5.4456L8.84065 5.62323ZM3.01322 3.56405C2.95576 4.25744 3.01823 5.26395 3.06461 5.84298H1.47617C1.51887 5.65823 1.56604 5.47532 1.61638 5.30032C1.66488 5.2961 1.71311 5.28925 1.75949 5.27475C2.57702 5.02622 2.86613 4.4156 2.87746 4.39002C2.95521 4.22109 2.88774 4.02132 2.72382 3.93434L2.44392 3.78464C2.61629 3.69003 2.8129 3.61807 3.0132 3.56405L3.01322 3.56405ZM2.02121 4.355C1.91421 4.44567 1.76398 4.54133 1.56052 4.60353C1.43955 4.57823 1.22159 4.26961 1.01049 3.81812L2.02121 4.355ZM2.21466 9.67984H1.37183L1.13569 8.80429C1.61166 8.74341 2.3048 8.73524 2.60315 9.04913L2.21466 9.67984ZM3.01087 8.38632L2.97608 8.44324C2.71648 8.23873 2.31667 8.08086 1.69679 8.07137C1.4783 8.06768 1.2701 8.08297 1.09562 8.10431C1.14069 7.72532 1.21738 7.15077 1.33019 6.54462H3.20773L3.55536 7.43279L3.01087 8.38632ZM3.78832 8.43771L4.09879 7.89373C4.26509 7.96278 4.46328 8.05345 4.67044 8.16309L3.78832 8.43771ZM5.56939 7.88399C5.02594 7.51949 4.4751 7.2873 4.21102 7.18608L3.79092 6.11183C3.71001 5.24207 3.64912 3.97891 3.72714 3.44016C3.87763 3.42593 4.0094 3.42013 4.10692 3.42013H4.11298L8.3409 4.75401L7.8694 5.46352C7.80167 5.56604 7.79244 5.69518 7.8441 5.80614L8.22335 6.61732C8.23126 6.63393 8.24048 6.65053 8.2505 6.66529C8.25287 6.66872 8.25551 6.67109 8.25735 6.67399C8.26842 6.68822 8.27923 6.70192 8.29161 6.71405C8.29398 6.71668 8.2953 6.71906 8.29688 6.72011C8.36251 6.78389 8.44685 6.86532 8.54699 6.95863L5.56939 7.88399ZM8.19045 15.9972V16.8467L7.86285 16.8464L4.79271 15.1839L4.37946 14.3571L5.98396 14.5226C6.0003 14.6191 6.05617 14.7082 6.14684 14.764L8.19045 15.9972ZM25.7056 24.7055C25.6979 24.6794 25.6882 24.6541 25.675 24.6304L25.0868 23.5509C25.8972 24.321 26.5527 25.1169 26.8852 25.9542L26.0803 26.072L25.7056 24.7055ZM26.5242 28.5605L26.228 26.7586L27.0468 26.6392L27.2226 28.0674L26.5242 28.5605ZM28.5046 28.2704L27.9925 28.5866L27.944 28.1921L27.7671 26.6888L27.8122 26.6978L28.3001 26.8016L28.5046 28.2704ZM23.8919 18.4016C23.8236 18.5199 23.8299 18.6667 23.9082 18.7782L25.4864 21.0326C25.5135 21.0719 25.5489 21.1043 25.5892 21.1294L27.2232 22.1351L28.1449 26.0517L27.6264 25.9413C27.1149 24.3895 25.6772 23.0398 24.0793 21.7579C24.0769 21.7561 24.0751 21.7542 24.0732 21.7526C23.6521 21.4145 23.2185 21.0811 22.7898 20.7511L22.6506 20.6441C20.6526 19.1034 20.6244 15.9937 20.6244 15.9623C20.6242 15.7689 20.4666 15.6121 20.2731 15.6121C20.0799 15.6121 19.9226 15.7689 19.9226 15.9631C19.9226 16.0243 19.9279 16.6832 20.1176 17.5534C18.9925 16.3624 17.7886 15.5762 15.0577 16.0854C11.9485 16.6657 10.3424 14.4722 10.2757 14.3791C10.2172 14.2964 10.126 14.2442 10.0256 14.2329L4.44649 13.6586L4.22142 13.4686L6.70828 12.9433C6.80843 12.9275 7.17767 12.8468 7.31761 12.5016C7.43779 12.2069 7.33422 11.854 7.00978 11.4534C6.47029 10.7893 6.88011 9.66786 6.88459 9.6576C6.91253 9.58196 6.9149 9.49894 6.88907 9.42251C6.76073 9.03666 6.5172 8.70038 6.22518 8.41282L9.14959 7.50461C9.8844 8.14663 10.8419 8.88909 11.3627 8.91358C11.3687 8.91358 11.374 8.91437 11.3798 8.91437C11.554 8.91437 11.7024 8.78629 11.7269 8.61208L11.9388 7.09246C12.152 7.16941 12.4095 7.27616 12.6717 7.39106C11.9717 8.25447 10.3885 10.4633 10.9317 12.1914C11.1663 12.9388 11.7124 13.4852 12.5254 13.7988L12.4743 13.8299C12.3312 13.919 12.2711 14.0966 12.3312 14.255C12.3842 14.3921 12.5149 14.4796 12.6577 14.4796C12.6794 14.4796 12.7004 14.478 12.7213 14.4735L14.8695 14.0787L19.1383 13.6235C19.2071 13.6156 19.2719 13.5887 19.3246 13.5453C19.3557 13.5192 20.08 12.9159 20.7188 12.111C21.4235 11.2239 21.7472 10.4448 21.6895 9.78618C23.2901 10.046 24.3733 10.6872 24.9138 11.6991C26.2708 14.2376 23.916 18.3602 23.892 18.4015L23.8919 18.4016ZM28.3164 18.0239C28.2755 17.8895 28.158 17.7922 28.0183 17.7775C27.8781 17.7635 27.7432 17.8334 27.6757 17.957C27.5458 18.1897 27.4124 18.5697 27.3926 18.9959C27.3402 18.926 27.2888 18.8522 27.2366 18.7734C26.2876 17.3418 26.0464 15.4848 26.0122 14.1657C26.0847 13.3369 26.0069 12.5952 25.7824 11.9453C26.5606 12.26 27.7567 12.9386 28.2883 14.2606C28.6881 15.2531 28.6923 16.3234 28.6962 17.2667C28.6978 17.8141 28.7005 18.3264 28.7766 18.7761C28.5824 18.5763 28.4105 18.328 28.3165 18.0239H28.3164Z" fill="black"/>
<path d="M15.8248 28.8213H8.72019C8.52648 28.8213 8.36914 28.9781 8.36914 29.1715C8.36914 29.3653 8.52622 29.5226 8.72019 29.5226H15.8248C16.0185 29.5226 16.1758 29.3655 16.1758 29.1715C16.1755 28.9781 16.0182 28.8213 15.8248 28.8213Z" fill="black"/>
<path d="M6.81416 28.8213H3.44647C3.25276 28.8213 3.09595 28.9781 3.09595 29.1715C3.09595 29.3653 3.25276 29.5226 3.44647 29.5226H6.81416C7.00787 29.5226 7.16521 29.3655 7.16521 29.1715C7.16521 28.9781 7.00813 28.8213 6.81416 28.8213Z" fill="black"/>
<path d="M22.7059 24.5182C22.7712 24.573 22.8503 24.5983 22.9283 24.5983C23.0301 24.5983 23.1302 24.5548 23.1993 24.471C23.3229 24.321 23.3012 24.1007 23.1513 23.9768C21.7908 22.8562 20.5258 21.6852 19.6816 20.7615C19.5506 20.6187 19.329 20.6097 19.1864 20.7396C19.0435 20.8706 19.0338 21.0917 19.1645 21.2354C20.03 22.1813 21.3209 23.3778 22.7059 24.5182L22.7059 24.5182Z" fill="black"/>
<path d="M18.1902 19.2465C17.6689 18.9068 17.1489 18.6872 17.127 18.6775C16.9491 18.6024 16.7435 18.6859 16.6687 18.8641C16.5936 19.0428 16.6771 19.2481 16.8558 19.3232C16.8608 19.3258 17.3405 19.5296 17.8083 19.8337C17.8673 19.873 17.9329 19.8912 17.9991 19.8912C18.1135 19.8912 18.2258 19.8348 18.293 19.7314C18.3986 19.5694 18.353 19.3522 18.1902 19.2465L18.1902 19.2465Z" fill="black"/>
<path d="M25.3656 7.21087L26.6014 7.61359C26.6373 7.62571 26.6744 7.63098 26.7103 7.63098C26.8576 7.63098 26.9949 7.5369 27.0431 7.38957C27.103 7.20508 27.0031 7.00689 26.8181 6.9468L25.5826 6.54488C25.3986 6.48453 25.2007 6.58494 25.1406 6.76943C25.0807 6.95286 25.1812 7.15052 25.3656 7.21088L25.3656 7.21087Z" fill="black"/>
<path d="M20.2931 5.55795L23.5409 6.61769C23.5778 6.62876 23.6139 6.6343 23.65 6.6343C23.7973 6.6343 23.9349 6.54047 23.9831 6.39209C24.043 6.20893 23.9423 6.01047 23.7586 5.95038L20.51 4.8909C20.3261 4.83081 20.1276 4.93175 20.0683 5.11545C20.009 5.29941 20.1092 5.4976 20.2931 5.55795L20.2931 5.55795Z" fill="black"/>
<path d="M18.6855 6.76465L23.5381 8.41004C23.5755 8.42242 23.6132 8.42822 23.6506 8.42822C23.7964 8.42822 23.9323 8.33677 23.9824 8.19024C24.0444 8.00786 23.9461 7.80782 23.7626 7.74589L18.9109 6.10077C18.7277 6.03831 18.5285 6.13714 18.4665 6.32031C18.4041 6.50428 18.5026 6.703 18.6855 6.76466L18.6855 6.76465Z" fill="black"/>
</svg>
