<svg width="20" height="20" viewBox="0 0 20 20" fill="none" xmlns="http://www.w3.org/2000/svg">
<path d="M11.0241 14.7356C11.0241 15.3025 10.5645 15.7623 9.99758 15.7623C9.43064 15.7623 8.97083 15.3025 8.97083 14.7356C8.97083 14.1686 9.43063 13.709 9.99758 13.709C10.5645 13.709 11.0241 14.1686 11.0241 14.7356Z" fill="#104FF2"/>
<path d="M9.99762 0C7.34554 0.000541177 4.80243 1.05474 2.92755 2.93041C1.05257 4.80627 -0.00050779 7.34974 1.83689e-07 10.0019C0.000360984 12.654 1.05437 15.1971 2.92986 17.0724C4.80534 18.9475 7.349 20.0008 10.0009 20.0005C12.6529 20.0003 15.196 18.9466 17.0714 17.0711C18.9465 15.1958 20 12.6523 20 10.0001C19.9968 7.3484 18.9417 4.80677 17.0664 2.93189C15.1912 1.05709 12.6488 0.00272456 9.99721 4.61541e-05L9.99762 0ZM9.99762 18.4233V18.4231C7.76388 18.4226 5.62193 17.5345 4.04278 15.9547C2.46386 14.3748 1.57689 12.2324 1.5774 9.99846C1.57776 7.7649 2.46543 5.62277 4.04527 4.04362C5.62494 2.46451 7.76725 1.57736 10.001 1.57773C12.2348 1.57791 14.3769 2.46543 15.9563 4.04491C17.5358 5.62457 18.4232 7.7667 18.4232 10.0002C18.4203 12.2336 17.5317 14.3748 15.9522 15.9541C14.3725 17.5331 12.2311 18.4211 9.99781 18.4231L9.99762 18.4233Z" fill="#104FF2"/>
<path d="M9.99758 10.9596C10.2067 10.9596 10.4074 10.8764 10.5553 10.7285C10.7033 10.5806 10.7862 10.38 10.7862 10.1708V5.47709C10.7862 5.19532 10.636 4.93503 10.3919 4.79414C10.1478 4.65326 9.84713 4.65326 9.60325 4.79414C9.35918 4.93502 9.20874 5.19532 9.20874 5.47709V10.1708C9.20874 10.38 9.2919 10.5806 9.43982 10.7285C9.58774 10.8764 9.78833 10.9596 9.99757 10.9596H9.99758Z" fill="#104FF2"/>
</svg>
