<svg width="16" height="25" viewBox="0 0 16 25" fill="none" xmlns="http://www.w3.org/2000/svg">
<path fill-rule="evenodd" clip-rule="evenodd" d="M15.1215 0C14.7357 0.030808 14.4358 0.352455 14.4358 0.746577V2.49142C14.4358 2.88553 14.7358 3.20719 15.1215 3.238V0ZM7.85566 0.963591C6.26062 0.963591 4.9564 2.26781 4.9564 3.86285V6.84018C5.16121 6.76267 5.38597 6.72334 5.60744 6.72741C5.83666 6.72121 6.0562 6.76074 6.26721 6.84018V3.86285C6.26721 2.97059 6.96339 2.2744 7.85566 2.2744H14.2183V0.963591H7.85566ZM5.61617 6.9879C4.70724 6.9879 3.97559 7.71974 3.97559 8.62847V10.6509C2.4807 11.1036 1.25109 12.1566 0.564236 13.533H10.6684C9.98269 12.1592 8.74821 11.105 7.25704 10.6509V8.62847C7.25704 7.71954 6.5252 6.9879 5.61647 6.9879H5.61617ZM0.625099 13.8629C0.278264 13.8629 0 14.1409 0 14.488C0 14.8348 0.278051 15.1216 0.625099 15.1216H10.6077C10.9546 15.1216 11.2328 14.8348 11.2328 14.488C11.2328 14.1412 10.9548 13.8629 10.6077 13.8629H0.625099ZM0.842113 16.1024C0.691171 16.5325 0.166667 16.916 0.191072 17.3523C0.192428 17.7151 0.480551 18.0208 0.842113 18.0208C1.20368 18.0208 1.49182 17.7153 1.49316 17.3523C1.51757 16.916 0.993056 16.5325 0.842113 16.1024ZM4.01925 16.1024C3.8683 16.5325 3.3438 16.916 3.3682 17.3523C3.36956 17.7151 3.65768 18.0208 4.01925 18.0208C4.38081 18.0208 4.67763 17.7153 4.67902 17.3523C4.70343 16.916 4.17019 16.5325 4.01925 16.1024ZM7.20511 16.1024C7.05417 16.5325 6.52966 16.916 6.55407 17.3523C6.55542 17.7151 6.84355 18.0208 7.20511 18.0208C7.56667 18.0208 7.85481 17.7153 7.85615 17.3523C7.88056 16.916 7.35605 16.5325 7.20511 16.1024ZM10.391 16.1024C10.24 16.5325 9.70679 16.916 9.7312 17.3523C9.73256 17.7151 10.0294 18.0208 10.391 18.0208C10.7525 18.0208 11.0407 17.7153 11.042 17.3523C11.0664 16.916 10.5419 16.5325 10.391 16.1024ZM0.842361 19.5921C0.691418 20.0222 0.166914 20.4057 0.191319 20.842C0.192675 21.2047 0.480798 21.5105 0.842361 21.5105C1.20392 21.5105 1.49206 21.205 1.4934 20.842C1.51782 20.4057 0.993303 20.0222 0.842361 19.5921ZM4.01949 19.5921C3.86855 20.0222 3.34405 20.4057 3.36845 20.842C3.36981 21.2047 3.65793 21.5105 4.01949 21.5105C4.38106 21.5105 4.67788 21.205 4.67927 20.842C4.70368 20.4057 4.17044 20.0222 4.01949 19.5921ZM7.20536 19.5921C7.05441 20.0222 6.52991 20.4057 6.55432 20.842C6.55567 21.2047 6.84379 21.5105 7.20536 21.5105C7.56692 21.5105 7.85506 21.205 7.8564 20.842C7.88081 20.4057 7.3563 20.0222 7.20536 19.5921ZM10.3912 19.5921C10.2403 20.0222 9.70704 20.4057 9.73145 20.842C9.7328 21.2047 10.0296 21.5105 10.3912 21.5105C10.7528 21.5105 11.0409 21.205 11.0423 20.842C11.0667 20.4057 10.5422 20.0222 10.3912 19.5921ZM0.842609 23.0817C0.691667 23.5119 0.167163 23.8953 0.191567 24.3317C0.192536 24.6944 0.48066 25 0.842212 25C1.20378 25 1.49191 24.6944 1.49325 24.3315C1.51767 23.8951 0.993155 23.5117 0.842212 23.0815L0.842609 23.0817ZM4.01974 23.0817C3.8688 23.5119 3.3443 23.8953 3.3687 24.3317C3.36967 24.6944 3.65779 25 4.01934 25C4.38091 25 4.67773 24.6944 4.67912 24.3315C4.70353 23.8951 4.17029 23.5117 4.01934 23.0815L4.01974 23.0817ZM7.20561 23.0817C7.05466 23.5119 6.53016 23.8953 6.55456 24.3317C6.55534 24.6944 6.84346 25 7.20501 25C7.56657 25 7.85471 24.6944 7.85605 24.3315C7.88047 23.8951 7.35595 23.5117 7.20501 23.0815L7.20561 23.0817ZM10.3915 23.0817C10.2405 23.5119 9.70729 23.8953 9.7317 24.3317C9.73247 24.6944 10.0293 25 10.3909 25C10.7524 25 11.0406 24.6944 11.0419 24.3315C11.0663 23.8951 10.5418 23.5117 10.3909 23.0815L10.3915 23.0817Z" fill="black"/>
</svg>
