<svg width="38" height="30" viewBox="0 0 38 30" fill="none" xmlns="http://www.w3.org/2000/svg">
<path d="M7.49992 27.1424V25.9376C7.49992 25.7649 7.36013 25.6251 7.18742 25.6251C7.01471 25.6251 6.87492 25.7649 6.87492 25.9376V27.1424L5.95193 26.3678C5.81968 26.257 5.62269 26.2743 5.51164 26.4066C5.40087 26.5386 5.4179 26.7358 5.55015 26.8466L6.32886 27.5001H5.31244C5.13972 27.5001 4.99994 27.6398 4.99994 27.8126C4.99994 27.9853 5.13972 28.1251 5.31244 28.1251H6.32886L5.55015 28.7785C5.41789 28.8893 5.40088 29.0865 5.51164 29.2185C5.62269 29.3508 5.81968 29.3681 5.95193 29.2573L6.87492 28.4827V29.6875C6.87492 29.8602 7.01471 30 7.18742 30C7.36013 30 7.49992 29.8602 7.49992 29.6875V28.4827L8.4229 29.2573C8.55516 29.3681 8.75214 29.3508 8.86319 29.2185C8.97396 29.0865 8.95694 28.8893 8.82469 28.7785L8.04598 28.1251H9.0624C9.23511 28.1251 9.3749 27.9853 9.3749 27.8126C9.3749 27.6398 9.23511 27.5001 9.0624 27.5001H8.04598L8.82469 26.8466C8.95695 26.7358 8.97396 26.5386 8.86319 26.4066C8.75214 26.2743 8.55516 26.257 8.4229 26.3678L7.49992 27.1424ZM30.6247 26.5174V25.3126C30.6247 25.1399 30.4849 25.0001 30.3122 25.0001C30.1394 25.0001 29.9997 25.1399 29.9997 25.3126V26.5174L29.0767 25.7428C28.9444 25.6321 28.7474 25.6494 28.6364 25.7816C28.5256 25.9136 28.5426 26.1108 28.6749 26.2216L29.4536 26.8751H28.4372C28.2645 26.8751 28.1247 27.0149 28.1247 27.1876C28.1247 27.3603 28.2645 27.5001 28.4372 27.5001H29.4536L28.6749 28.1535C28.5426 28.2643 28.5256 28.4615 28.6364 28.5935C28.7474 28.7258 28.9444 28.7431 29.0767 28.6323L29.9997 27.8577V29.0625C29.9997 29.2352 30.1394 29.375 30.3122 29.375C30.4849 29.375 30.6247 29.2352 30.6247 29.0625V27.8577L31.5476 28.6323C31.6799 28.7431 31.8769 28.7258 31.9879 28.5935C32.0987 28.4615 32.0817 28.2643 31.9494 28.1535L31.1707 27.5001H32.1871C32.3599 27.5001 32.4996 27.3603 32.4996 27.1876C32.4996 27.0149 32.3599 26.8751 32.1871 26.8751H31.1707L31.9494 26.2216C32.0817 26.1108 32.0987 25.9136 31.9879 25.7816C31.8769 25.6494 31.6799 25.6321 31.5476 25.7428L30.6247 26.5174ZM24.9997 23.3924V22.1877C24.9997 22.0149 24.8599 21.8752 24.6872 21.8752C24.5145 21.8752 24.3747 22.0149 24.3747 22.1877V23.3924L23.4517 22.6179C23.3195 22.5071 23.1225 22.5244 23.0114 22.6566C22.9007 22.7886 22.9177 22.9859 23.05 23.0967L23.8287 23.7501H22.8122C22.6395 23.7501 22.4997 23.8899 22.4997 24.0626C22.4997 24.2353 22.6395 24.3751 22.8122 24.3751H23.8287L23.05 25.0285C22.9177 25.1393 22.9007 25.3366 23.0114 25.4686C23.1225 25.6008 23.3195 25.6181 23.4517 25.5073L24.3747 24.7328V25.9375C24.3747 26.1103 24.5145 26.25 24.6872 26.25C24.8599 26.25 24.9997 26.1103 24.9997 25.9375V24.7328L25.9227 25.5073C26.055 25.6181 26.2519 25.6008 26.363 25.4686C26.4738 25.3366 26.4567 25.1393 26.3245 25.0285L25.5458 24.3751H26.5622C26.7349 24.3751 26.8747 24.2353 26.8747 24.0626C26.8747 23.8899 26.7349 23.7501 26.5622 23.7501H25.5458L26.3245 23.0967C26.4567 22.9859 26.4738 22.7886 26.363 22.6566C26.2519 22.5244 26.055 22.5071 25.9227 22.6179L24.9997 23.3924ZM19.3748 27.1424V25.9376C19.3748 25.7649 19.235 25.6251 19.0623 25.6251C18.8896 25.6251 18.7498 25.7649 18.7498 25.9376V27.1424L17.8268 26.3678C17.6945 26.257 17.4976 26.2743 17.3865 26.4066C17.2757 26.5386 17.2928 26.7358 17.425 26.8466L18.2037 27.5001H17.1873C17.0146 27.5001 16.8748 27.6398 16.8748 27.8126C16.8748 27.9853 17.0146 28.1251 17.1873 28.1251H18.2037L17.425 28.7785C17.2928 28.8893 17.2757 29.0865 17.3865 29.2185C17.4976 29.3508 17.6945 29.3681 17.8268 29.2573L18.7498 28.4827V29.6875C18.7498 29.8602 18.8896 30 19.0623 30C19.235 30 19.3748 29.8602 19.3748 29.6875V28.4827L20.2978 29.2573C20.43 29.3681 20.627 29.3508 20.7381 29.2185C20.8488 29.0865 20.8318 28.8893 20.6996 28.7785L19.9209 28.1251H20.9373C21.11 28.1251 21.2498 27.9853 21.2498 27.8126C21.2498 27.6398 21.11 27.5001 20.9373 27.5001H19.9209L20.6996 26.8466C20.8318 26.7358 20.8488 26.5386 20.7381 26.4066C20.627 26.2743 20.43 26.257 20.2978 26.3678L19.3748 27.1424ZM13.1249 24.0174V22.8126C13.1249 22.6399 12.9851 22.5001 12.8124 22.5001C12.6396 22.5001 12.4999 22.6399 12.4999 22.8126V24.0174L11.5769 23.2429C11.4446 23.1321 11.2476 23.1494 11.1366 23.2816C11.0258 23.4136 11.0428 23.6109 11.1751 23.7216L11.9538 24.3751H10.9374C10.7647 24.3751 10.6249 24.5149 10.6249 24.6876C10.6249 24.8603 10.7647 25.0001 10.9374 25.0001H11.9538L11.1751 25.6535C11.0428 25.7643 11.0258 25.9616 11.1366 26.0935C11.2476 26.2258 11.4446 26.2431 11.5769 26.1323L12.4999 25.3578V26.5625C12.4999 26.7353 12.6396 26.875 12.8124 26.875C12.9851 26.875 13.1249 26.7353 13.1249 26.5625V25.3578L14.0478 26.1323C14.1801 26.2431 14.3771 26.2258 14.4881 26.0935C14.5989 25.9616 14.5819 25.7643 14.4496 25.6535L13.6709 25.0001H14.6873C14.86 25.0001 14.9998 24.8603 14.9998 24.6876C14.9998 24.5149 14.86 24.3751 14.6873 24.3751H13.6709L14.4496 23.7216C14.5819 23.6109 14.5989 23.4136 14.4881 23.2816C14.3771 23.1494 14.1801 23.1321 14.0478 23.2429L13.1249 24.0174ZM37.4996 15.9375C37.4996 18.1743 36.1042 20.1481 34.0898 20.897C33.5962 21.1283 33.0557 21.25 32.4996 21.25H6.87492C3.07811 21.25 0 18.1719 0 14.3751C0 10.8893 2.60154 7.98784 5.99772 7.55563C7.2187 3.13854 11.2602 0 15.9376 0C18.581 0 21.0673 0.999703 22.9582 2.7589C23.6197 2.58759 24.3042 2.49997 25 2.49997C29.4874 2.49997 33.1249 6.1375 33.1249 10.6249C33.1249 10.6522 33.1249 10.6798 33.1246 10.7072C35.621 11.1511 37.4999 13.3333 37.4999 15.9373L37.4996 15.9375ZM6.87492 20H32.4996C32.8716 20 33.2306 19.919 33.6059 19.7455C35.1826 19.1579 36.2496 17.6482 36.2496 15.9375C36.2496 13.7864 34.5722 12.0112 32.4357 11.8826L31.797 11.8441L31.8503 11.2065C31.8665 11.014 31.8746 10.8201 31.8746 10.6251C31.8746 6.82825 28.7965 3.75015 24.9997 3.75015C24.3024 3.75015 23.6197 3.85366 22.9674 4.05539L22.6077 4.16643L22.3412 3.90025C20.6526 2.21391 18.372 1.25014 15.9373 1.25014C11.6918 1.25014 8.04168 4.19346 7.10455 8.27627L6.99992 8.73218L6.53257 8.76036C3.57332 8.93754 1.24999 11.3957 1.24999 14.3749C1.24999 17.4815 3.76839 19.9999 6.87493 19.9999L6.87492 20Z" fill="#0FC3CE"/>
</svg>
