<svg width="17" height="25" viewBox="0 0 17 25" fill="none" xmlns="http://www.w3.org/2000/svg">
<path d="M8.33744 0.00815151C8.18196 0.0331225 8.04014 0.111567 7.93649 0.229831C3.86385 4.84313 0 10.3302 0 15.5329C0 20.7123 3.74239 25 8.44307 25C13.1438 25 16.8861 20.7125 16.8861 15.5329C16.8861 10.33 13.0222 4.84337 8.94966 0.229831C8.79701 0.0559757 8.56614 -0.0276532 8.33766 0.00815151H8.33744ZM8.44298 1.74954C12.2228 6.14325 15.5352 11.2215 15.5352 15.5329C15.5352 20.067 12.3172 23.6485 8.44298 23.6485C4.56875 23.6485 1.35079 20.0667 1.35079 15.5329C1.35079 11.2216 4.66301 6.14295 8.44298 1.74954ZM3.47206 14.5939C3.1227 14.5981 2.8346 14.8683 2.80729 15.2165C2.61835 17.3185 3.61203 19.6467 5.19251 20.7994C5.3348 20.9259 5.52421 20.9865 5.71361 20.966C5.90301 20.9455 6.07475 20.8458 6.18689 20.692C6.29902 20.5379 6.34095 20.3438 6.30232 20.1572C6.26369 19.9706 6.14802 19.809 5.98406 19.7124C4.94966 18.9581 4.0205 16.877 4.15836 15.3432L4.15813 15.343C4.17957 15.1496 4.11643 14.9564 3.98498 14.8129C3.85353 14.6695 3.66672 14.5896 3.47213 14.5938L3.47206 14.5939Z" fill="black"/>
</svg>
