<svg width="30" height="25" viewBox="0 0 30 25" fill="none" xmlns="http://www.w3.org/2000/svg">
<path d="M29.4735 23.8249L23.7194 15.2956L22.1729 16.2977L19.9011 13.8398L16.8641 16.5581L14.4149 11.9419L12.9946 13.4932L10.1533 10.063L7.2579 15.5402L6.61401 14.9119L5.34306 15.7611L3.52065 18.4041L2.15483 17.6626L0.0377725 24.5321L0 24.6341L0.0382173 24.6332L0.037773 24.6341H0.679902L0.91209 24.6339H20.6083L20.6087 24.6344L20.6478 24.6339H20.9018L20.8989 24.6308L21.1391 24.6277L28.2702 24.6341H30L29.4735 23.8249ZM16.3676 18.5054L14.7367 19.9106L11.588 16.4813V18.7863L10.0136 15.9751L8.83259 17.9408L8.55152 22.3287L7.48324 18.7305L5.34668 19.9672L3.88467 22.3853L2.81593 20.9233L0.834197 23.5696L2.43932 18.3616L3.66915 19.0293L5.68398 16.1084L6.55676 15.5251L7.38063 16.3295L10.2411 10.92L12.9765 14.2215L14.3099 12.7646L19.9602 23.4144L16.3676 18.5054ZM25.3075 22.2725L24.8581 23.285L22.2353 21.0358V22.3287L20.3034 20.4992L19.4604 21.4524L17.0945 16.9932L19.869 14.5106L22.0951 16.9183L23.5851 15.9526L26.9051 20.8735L27.3884 23.9315L25.3075 22.2725Z" fill="black"/>
<path d="M10.1088 9.63464L13.0035 13.1291L14.4669 11.5308L16.9319 16.1762L19.9166 13.5048L21.6737 15.4052C22.0061 14.563 22.1921 13.6456 22.1921 12.6849C22.1921 8.5977 18.8786 5.28467 14.7908 5.28467C10.7029 5.28467 7.3894 8.59776 7.3894 12.6849C7.3894 13.2746 7.46028 13.8472 7.59049 14.3973L10.1088 9.63464Z" fill="black"/>
<path d="M6.58391 12.4404H2.53535C2.33716 12.4404 2.17651 12.28 2.17651 12.082C2.17651 11.8838 2.33694 11.7231 2.53535 11.7231H6.58391C6.78211 11.7231 6.94231 11.8836 6.94231 12.082C6.94275 12.2797 6.78211 12.4404 6.58391 12.4404Z" fill="black"/>
<path d="M8.09128 7.73087C7.99974 7.73087 7.90775 7.69576 7.83754 7.62577L5.91667 5.7049C5.77647 5.56514 5.77647 5.33784 5.91667 5.19808C6.05643 5.05832 6.28373 5.05832 6.42394 5.19808L8.34481 7.11895C8.48501 7.25871 8.48501 7.48601 8.34481 7.62577C8.27504 7.69576 8.18305 7.73087 8.09129 7.73087H8.09128Z" fill="black"/>
<path d="M14.9028 4.62802C14.7046 4.62802 14.5444 4.46715 14.5444 4.26918V0.358839C14.5444 0.160643 14.7049 0 14.9028 0C15.101 0 15.2612 0.160865 15.2612 0.358839V4.26918C15.2612 4.46715 15.101 4.62802 14.9028 4.62802Z" fill="black"/>
<path d="M26.8678 12.4404H22.9892C22.791 12.4404 22.6304 12.28 22.6304 12.082C22.6304 11.8838 22.7908 11.7231 22.9892 11.7231H26.8678C27.066 11.7231 27.2267 11.8836 27.2267 12.082C27.2269 12.2797 27.066 12.4404 26.8678 12.4404Z" fill="black"/>
<path d="M21.463 7.63987C21.3705 7.63987 21.2785 7.60476 21.209 7.53477C21.0684 7.39501 21.0684 7.16771 21.209 7.02795L22.9446 5.29109C23.0852 5.15044 23.3121 5.15044 23.4518 5.29065C23.5925 5.43129 23.5925 5.6577 23.4518 5.79835L21.715 7.53476C21.6459 7.60475 21.5545 7.63986 21.463 7.63986L21.463 7.63987Z" fill="black"/>
<path d="M18.8748 5.53647C18.8166 5.53647 18.7577 5.52247 18.7029 5.49314C18.5289 5.39804 18.4651 5.18007 18.5602 5.00654L20.1095 2.16915C20.204 1.99562 20.4222 1.9314 20.5961 2.02628C20.7701 2.12138 20.8343 2.33935 20.739 2.51288L19.1897 5.35027C19.1246 5.46914 19.0015 5.53647 18.8748 5.53647V5.53647Z" fill="black"/>
<path d="M23.1069 10.1378C22.9545 10.1378 22.8132 10.0394 22.765 9.88608C22.7065 9.69744 22.8112 9.49635 23.0003 9.43703L26.0856 8.47273C26.2751 8.4143 26.4762 8.51895 26.5351 8.70803C26.594 8.89667 26.4893 9.09776 26.2998 9.15708L23.214 10.1214C23.178 10.1327 23.1427 10.1378 23.1069 10.1378L23.1069 10.1378Z" fill="black"/>
<path d="M6.5077 9.91511C6.47237 9.91511 6.43593 9.91 6.4006 9.89845L3.31481 8.93415C3.12572 8.87571 3.02018 8.67418 3.07951 8.4851C3.13839 8.29646 3.33991 8.19136 3.52855 8.25024L6.61435 9.21455C6.80343 9.27298 6.90853 9.47451 6.84965 9.66359C6.8021 9.81668 6.66034 9.91512 6.5077 9.91512V9.91511Z" fill="black"/>
<path d="M11.2249 5.32783C11.0983 5.32783 10.9752 5.2605 10.9101 5.14119L9.36074 2.3038C9.26609 2.13026 9.32964 1.9123 9.50361 1.8172C9.67714 1.72254 9.89533 1.78653 9.99021 1.96006L11.5395 4.79746C11.6342 4.97144 11.5706 5.18896 11.3967 5.2845C11.342 5.31383 11.2831 5.32783 11.2249 5.32783V5.32783Z" fill="black"/>
</svg>
