<svg width="22" height="25" viewBox="0 0 22 25" fill="none" xmlns="http://www.w3.org/2000/svg">
<path d="M20.5645 17.7419H17.7419V16.129H18.9516C19.1746 16.129 19.3548 15.9483 19.3548 15.7258V14.1129C19.3548 13.0012 18.4504 12.0968 17.3387 12.0968H12.0968V6.04839L12.4892 6.34235C12.929 6.67303 13.475 6.85484 14.0254 6.85484H14.2004C14.7508 6.85484 15.2968 6.67303 15.7366 6.34272L16.199 5.99602C16.5002 5.76974 16.8741 5.64518 17.251 5.64518C17.7196 5.64518 18.1602 5.82789 18.4917 6.15891L19.4727 7.13997C19.55 7.21701 19.6533 7.25806 19.758 7.25806C19.8101 7.25806 19.8625 7.24798 19.9125 7.22745C20.0633 7.16499 20.1613 7.01774 20.1613 6.85483C20.1613 3.07497 17.0863 0 13.3064 0H8.46773C4.68788 0 1.6129 3.07497 1.6129 6.85483C1.6129 7.01774 1.71083 7.16499 1.86168 7.22745C2.01288 7.28992 2.18588 7.25536 2.30127 7.13997L3.28232 6.15928C3.61372 5.82788 4.0544 5.64518 4.52297 5.64518C4.90045 5.64518 5.2738 5.76975 5.57532 5.99638L6.03739 6.34272C6.47734 6.67304 7.02333 6.85484 7.5738 6.85484H7.74877C8.29923 6.85484 8.84522 6.67303 9.28499 6.34272L9.67741 6.0484V12.0968H4.43548C3.32373 12.0968 2.41935 13.0012 2.41935 14.1129V15.7258C2.41935 15.9483 2.59955 16.129 2.82258 16.129H4.03225V17.7419H1.20968C0.542718 17.7419 0 18.2847 0 18.9516V20.5645C0 21.0895 0.338239 21.533 0.806451 21.7V24.5968C0.806451 24.8193 0.986644 25 1.20968 25H2.82258C3.04561 25 3.2258 24.8193 3.2258 24.5968V21.7742H18.5484V24.5968C18.5484 24.8193 18.7286 25 18.9516 25H20.5645C20.7875 25 20.9677 24.8193 20.9677 24.5968V21.7C21.4359 21.5332 21.7742 21.0896 21.7742 20.5645V18.9516C21.7742 18.2847 21.2315 17.7419 20.5645 17.7419L20.5645 17.7419ZM16.9355 17.7419H16.129V16.129H16.9355V17.7419ZM6.45161 17.7419V16.129H15.3226V17.7419H6.45161ZM9.26373 5.3507L8.80129 5.6974C8.49959 5.92368 8.12571 6.04824 7.74875 6.04824H7.57378C7.1963 6.04824 6.82295 5.92367 6.52143 5.69704L6.05936 5.3507C5.61941 5.02038 5.07342 4.83858 4.52295 4.83858C3.83908 4.83858 3.19591 5.10518 2.71203 5.58849L2.51402 5.7865C3.01932 2.95908 5.49715 0.80632 8.46793 0.80632H13.3066C16.2772 0.80632 18.755 2.95908 19.2606 5.78696L19.0625 5.58859C18.5787 5.10509 17.9355 4.83868 17.2516 4.83868C16.7012 4.83868 16.1552 5.02049 15.7154 5.3508L15.253 5.6975C14.9513 5.92378 14.5774 6.04834 14.2004 6.04834H14.0254C13.648 6.04834 13.2746 5.92378 12.9731 5.69714L12.511 5.3508C12.0711 5.02048 11.5251 4.83868 10.9746 4.83868H10.7997C10.2492 4.83868 9.7032 5.02049 9.2638 5.3508L9.26373 5.3507ZM10.4839 5.67652C10.5879 5.65744 10.6936 5.64502 10.7996 5.64502H10.9746C11.0806 5.64502 11.1863 5.65744 11.2903 5.67652V12.0968H10.4839L10.4839 5.67652ZM3.22581 14.1129C3.22581 13.446 3.76853 12.9032 4.43548 12.9032H17.3387C18.0057 12.9032 18.5484 13.446 18.5484 14.1129V15.3226H3.22581V14.1129ZM4.83871 16.129H5.64516V17.7419H4.83871V16.129ZM2.41936 24.1936H1.61291V21.7742H2.41936V24.1936ZM20.1613 24.1936H19.3548V21.7742H20.1613V24.1936ZM20.9677 20.5645C20.9677 20.7867 20.787 20.9677 20.5645 20.9677H1.20968C0.987188 20.9677 0.806455 20.7867 0.806455 20.5645V18.9516C0.806455 18.7295 0.987188 18.5484 1.20968 18.5484H20.5645C20.787 18.5484 20.9677 18.7295 20.9677 18.9516V20.5645Z" fill="black"/>
</svg>
