<svg width="29" height="30" viewBox="0 0 29 30" fill="none" xmlns="http://www.w3.org/2000/svg">
<path d="M24.2894 14.9475C24.5674 14.9475 24.8358 14.887 25.1162 14.7573C26.2946 14.3181 27.0921 13.1898 27.0921 11.9113C27.0921 10.3036 25.8384 8.9769 24.2416 8.88075L23.7643 8.85198L23.8042 8.37549C23.8162 8.2316 23.8223 8.08667 23.8223 7.94092C23.8223 5.10327 21.5218 2.80277 18.6842 2.80277C18.163 2.80277 17.6528 2.88013 17.1652 3.0309L16.8964 3.11389L16.6973 2.91495C15.4353 1.65462 13.7308 0.934323 11.9112 0.934323C8.73815 0.934323 6.01016 3.13409 5.30977 6.18548L5.23157 6.52622L4.88228 6.54728C2.67061 6.6797 0.93421 8.51686 0.93421 10.7435C0.93421 13.0652 2.8164 14.9474 5.13815 14.9474L24.2894 14.9475ZM28.0263 11.9113C28.0263 13.5831 26.9834 15.0582 25.4778 15.6179C25.109 15.7908 24.705 15.8817 24.2894 15.8817H5.13815C2.3005 15.8817 0 13.5812 0 10.7436C0 8.1384 1.94433 5.96991 4.48255 5.64689C5.39508 2.34566 8.41562 0 11.9114 0C13.887 0 15.7452 0.747154 17.1584 2.06193C17.6528 1.9339 18.1643 1.86842 18.6844 1.86842C22.0381 1.86842 24.7567 4.58702 24.7567 7.94077C24.7567 7.96121 24.7567 7.98185 24.7565 8.00229C26.6222 8.33405 28.0265 9.96498 28.0265 11.9112L28.0263 11.9113ZM8.24559 20.5557H9.65523L8.3751 26.2421L12.1759 21.479L10.976 21.5043L12.4979 17.283H9.32762L8.24559 20.5557ZM6.95292 21.4899L8.65264 16.3486H13.8277L12.3161 20.5415L14.1497 20.5031L6.57192 30L8.48747 21.4902L6.95292 21.4899ZM16.6121 19.1744H17.5384L16.7829 22.53L18.7158 20.1079L18.0139 20.1227L19.0378 17.2828H17.2375L16.6121 19.1744ZM15.9657 20.1086H15.3193L16.5625 16.3486H20.3675L19.3539 19.1602L20.6895 19.1322L14.9796 26.2877L16.3705 20.1086L15.9657 20.1086Z" fill="#1C4BA6"/>
</svg>
