<svg width="20" height="20" viewBox="0 0 20 20" fill="none" xmlns="http://www.w3.org/2000/svg">
<path d="M19.7332 2.09086C19.5626 1.92013 19.3314 1.82422 19.0901 1.82422C18.8488 1.82422 18.6175 1.92013 18.4469 2.09086L9.9996 10.5382L7.00646 7.54503C6.77675 7.31532 6.44179 7.2256 6.12792 7.30961C5.81404 7.39379 5.56897 7.63887 5.48476 7.95277C5.40074 8.26665 5.49047 8.60161 5.72018 8.83131L9.35648 12.4676C9.52705 12.6383 9.75834 12.7342 9.99963 12.7342C10.2409 12.7342 10.4722 12.6383 10.6428 12.4676L19.7333 3.37706C19.9041 3.20649 20 2.9752 20 2.7339C20 2.49263 19.9041 2.26119 19.7333 2.09075L19.7332 2.09086Z" fill="black"/>
<path d="M19.799 8.00213C19.734 7.6838 19.5041 7.42431 19.1961 7.32143C18.888 7.21855 18.5484 7.28782 18.3052 7.50326C18.062 7.7187 17.9523 8.04748 18.0172 8.36565C18.3918 10.1947 18.1296 12.0969 17.274 13.7563C16.4185 15.4157 15.021 16.7326 13.3139 17.4883C11.6067 18.244 9.69234 18.3932 7.88876 17.9108C6.08522 17.4285 4.50074 16.3439 3.39868 14.8369C2.29645 13.33 1.74286 11.4914 1.82958 9.62651C1.91646 7.76145 2.63856 5.9823 3.87601 4.58451C5.11346 3.18647 6.79181 2.25367 8.63232 1.94106C10.473 1.62845 12.3651 1.95486 13.9949 2.86591C14.279 3.02507 14.6265 3.02047 14.9065 2.85402C15.1864 2.6874 15.3562 2.38431 15.3519 2.05851C15.3477 1.7329 15.17 1.43423 14.8857 1.27506C12.9704 0.202296 10.7552 -0.210188 8.582 0.101001C6.40891 0.41219 4.39831 1.42993 2.86104 2.99727C1.3238 4.56446 0.344903 6.59409 0.075555 8.77302C-0.193781 10.9518 0.261347 13.1588 1.37088 15.0532C2.48025 16.9476 4.18233 18.4243 6.21444 19.2552C8.24642 20.0863 10.4951 20.2255 12.6143 19.6515C14.7334 19.0774 16.6046 17.8221 17.9392 16.0791C19.2739 14.3359 19.9979 12.2022 19.9993 10.0067C19.999 9.33357 19.9321 8.66205 19.7994 8.00225L19.799 8.00213Z" fill="black"/>
</svg>
