<svg width="22" height="22" viewBox="0 0 22 22" fill="none" xmlns="http://www.w3.org/2000/svg">
<path d="M20.7332 3.09086C20.5626 2.92013 20.3314 2.82422 20.0901 2.82422C19.8488 2.82422 19.6175 2.92013 19.4469 3.09086L10.9996 11.5382L8.00646 8.54503C7.77675 8.31532 7.44179 8.2256 7.12792 8.30961C6.81404 8.39379 6.56897 8.63887 6.48476 8.95277C6.40074 9.26665 6.49047 9.60161 6.72018 9.83131L10.3565 13.4676C10.5271 13.6383 10.7583 13.7342 10.9996 13.7342C11.2409 13.7342 11.4722 13.6383 11.6428 13.4676L20.7333 4.37706C20.9041 4.20649 21 3.9752 21 3.7339C21 3.49263 20.9041 3.26119 20.7333 3.09075L20.7332 3.09086Z" fill="#0ABF32" stroke="#0ABF32" stroke-width="0.2"/>
<path d="M20.799 9.00213C20.734 8.6838 20.5041 8.42431 20.1961 8.32143C19.888 8.21855 19.5484 8.28782 19.3052 8.50326C19.062 8.7187 18.9523 9.04748 19.0172 9.36565C19.3918 11.1947 19.1296 13.0969 18.274 14.7563C17.4185 16.4157 16.021 17.7326 14.3139 18.4883C12.6067 19.244 10.6923 19.3932 8.88876 18.9108C7.08522 18.4285 5.50074 17.3439 4.39868 15.8369C3.29645 14.33 2.74286 12.4914 2.82958 10.6265C2.91646 8.76145 3.63856 6.9823 4.87601 5.58451C6.11346 4.18647 7.79181 3.25367 9.63232 2.94106C11.473 2.62845 13.3651 2.95486 14.9949 3.86591C15.279 4.02507 15.6265 4.02047 15.9065 3.85402C16.1864 3.6874 16.3562 3.38431 16.3519 3.05851C16.3477 2.7329 16.17 2.43423 15.8857 2.27506C13.9704 1.2023 11.7552 0.789812 9.582 1.101C7.40891 1.41219 5.39831 2.42993 3.86104 3.99727C2.3238 5.56446 1.3449 7.59409 1.07556 9.77302C0.806219 11.9518 1.26135 14.1588 2.37088 16.0532C3.48025 17.9476 5.18233 19.4243 7.21444 20.2552C9.24642 21.0863 11.4951 21.2255 13.6143 20.6515C15.7334 20.0774 17.6046 18.8221 18.9392 17.0791C20.2739 15.3359 20.9979 13.2022 20.9993 11.0067C20.999 10.3336 20.9321 9.66205 20.7994 9.00225L20.799 9.00213Z" fill="#0ABF32" stroke="#0ABF32" stroke-width="0.2"/>
</svg>
