<svg width="24" height="27" viewBox="0 0 24 27" fill="none" xmlns="http://www.w3.org/2000/svg">
<path fill-rule="evenodd" clip-rule="evenodd" d="M3.41538 7.40506C3.41538 6.08755 4.03185 5.16953 4.58505 5.16953C5.13807 5.16953 5.75473 6.08755 5.75473 7.40506C5.75473 8.72238 5.13807 9.6404 4.58505 9.6404C4.03185 9.6404 3.41538 8.72238 3.41538 7.40506ZM6.57308 7.40506C6.57308 5.69255 5.69971 4.35132 4.58505 4.35132C3.4702 4.35132 2.59717 5.69255 2.59717 7.40506C2.59717 9.11738 3.47016 10.4586 4.58505 10.4586C5.69971 10.4586 6.57308 9.11738 6.57308 7.40506Z" fill="black"/>
<path fill-rule="evenodd" clip-rule="evenodd" d="M13.9328 7.17239H14.4485C14.6743 7.17239 14.8578 6.98894 14.8578 6.76311C14.8578 6.53727 14.6743 6.354 14.4485 6.354H13.9328C13.7069 6.354 13.5237 6.53727 13.5237 6.76311C13.5237 6.98894 13.7069 7.17239 13.9328 7.17239Z" fill="black"/>
<path fill-rule="evenodd" clip-rule="evenodd" d="M12.1285 7.17239H12.6442C12.8701 7.17239 13.0533 6.98894 13.0533 6.76311C13.0533 6.53727 12.8701 6.354 12.6442 6.354H12.1285C11.9027 6.354 11.7192 6.53727 11.7192 6.76311C11.7192 6.98894 11.9027 7.17239 12.1285 7.17239Z" fill="black"/>
<path fill-rule="evenodd" clip-rule="evenodd" d="M15.7382 7.17239H16.2539C16.4797 7.17239 16.663 6.98894 16.663 6.76311C16.663 6.53727 16.4797 6.354 16.2539 6.354H15.7382C15.5124 6.354 15.3291 6.53727 15.3291 6.76311C15.3291 6.98894 15.5124 7.17239 15.7382 7.17239Z" fill="black"/>
<path fill-rule="evenodd" clip-rule="evenodd" d="M10.3234 7.17239H10.8391C11.0649 7.17239 11.2482 6.98894 11.2482 6.76311C11.2482 6.53727 11.0649 6.354 10.8391 6.354H10.3234C10.0976 6.354 9.91431 6.53727 9.91431 6.76311C9.91431 6.98894 10.0976 7.17239 10.3234 7.17239Z" fill="black"/>
<path fill-rule="evenodd" clip-rule="evenodd" d="M19.3481 7.17239H19.8638C20.0896 7.17239 20.2729 6.98894 20.2729 6.76311C20.2729 6.53727 20.0896 6.354 19.8638 6.354H19.3481C19.1222 6.354 18.939 6.53727 18.939 6.76311C18.939 6.98894 19.1222 7.17239 19.3481 7.17239Z" fill="black"/>
<path fill-rule="evenodd" clip-rule="evenodd" d="M17.5424 7.17239H18.0583C18.2841 7.17239 18.4674 6.98894 18.4674 6.76311C18.4674 6.53727 18.2841 6.354 18.0583 6.354H17.5424C17.3166 6.354 17.1333 6.53727 17.1333 6.76311C17.1333 6.98894 17.3166 7.17239 17.5424 7.17239Z" fill="black"/>
<path fill-rule="evenodd" clip-rule="evenodd" d="M21.1532 7.17239H21.6689C21.8948 7.17239 22.078 6.98894 22.078 6.76311C22.078 6.53727 21.8948 6.354 21.6689 6.354H21.1532C20.9274 6.354 20.7441 6.53727 20.7441 6.76311C20.7441 6.98894 20.9274 7.17239 21.1532 7.17239Z" fill="black"/>
<path fill-rule="evenodd" clip-rule="evenodd" d="M9.16308 26.1824V18.6238C9.32543 18.5694 9.44276 18.4177 9.44276 18.2375C9.44276 18.0573 9.32543 17.9057 9.16308 17.8514V7.81406C9.1676 7.67864 9.17005 7.54191 9.17005 7.40423C9.17005 7.31835 9.16798 7.23303 9.16609 7.14753C9.32675 7.09254 9.44276 6.94168 9.44276 6.76256C9.44276 6.56877 9.30735 6.40717 9.12654 6.36479C9.12504 6.34577 9.12334 6.32637 9.12165 6.30735C9.10809 6.15366 9.0917 6.00205 9.07268 5.85213C9.06816 5.81748 9.06308 5.78358 9.05818 5.7493C9.04198 5.62989 9.02371 5.51124 9.00412 5.39372C8.99697 5.35172 8.99 5.30972 8.98265 5.26772C8.95666 5.12496 8.92935 4.98352 8.89865 4.8449C8.89771 4.84132 8.89696 4.83755 8.8962 4.83435C8.86475 4.69216 8.82991 4.55335 8.79337 4.41586C8.78264 4.37669 8.77171 4.3377 8.76079 4.2989C8.73085 4.19117 8.69958 4.08514 8.66625 3.98061C8.65645 3.94934 8.64685 3.9177 8.63687 3.88663C8.5943 3.75649 8.54948 3.62917 8.50239 3.50411C8.49147 3.47492 8.4796 3.44686 8.46849 3.41804C8.43007 3.31897 8.38995 3.22141 8.3487 3.12592C8.33345 3.09052 8.31819 3.0553 8.30275 3.02027C8.25171 2.90726 8.19992 2.79615 8.1453 2.68823C8.1421 2.68182 8.13908 2.67561 8.13607 2.66939C8.07844 2.55677 8.01873 2.4481 7.95734 2.34131C7.93945 2.30985 7.9208 2.27915 7.90253 2.24827C7.85356 2.16596 7.80328 2.08535 7.75186 2.00682C7.73566 1.98233 7.71966 1.95653 7.70289 1.93186C7.63697 1.8343 7.56936 1.73937 7.49968 1.64803C7.48348 1.62637 7.46653 1.60622 7.44977 1.58494C7.39364 1.51318 7.33638 1.44349 7.27781 1.37588C7.25597 1.35046 7.23412 1.32503 7.21171 1.30055C7.14165 1.2222 7.07026 1.14705 6.99738 1.07529C6.99191 1.07002 6.98683 1.0638 6.98099 1.05853C6.9034 0.983006 6.82373 0.912381 6.74274 0.8442C6.73276 0.835725 6.72353 0.826308 6.71374 0.818021H19.0548C20.9357 0.818021 22.4992 3.24178 22.7775 6.39695C22.6425 6.46381 22.5487 6.60149 22.5487 6.76252C22.5487 6.93861 22.6611 7.08778 22.8176 7.14503C22.8195 7.23148 22.8214 7.31736 22.8214 7.40419V17.8533C22.663 17.9098 22.5487 18.0597 22.5487 18.2373C22.5487 18.4149 22.663 18.5648 22.8214 18.6213V26.1819L9.16308 26.1824ZM6.71073 13.9908C7.36689 13.448 7.92628 12.6579 8.34497 11.6914V13.9908H6.71073ZM0.818407 7.40421C0.818407 3.77248 2.50838 0.818074 4.58519 0.818074C4.64978 0.818074 4.7142 0.821088 4.77804 0.82655C4.79838 0.828433 4.81854 0.832576 4.83925 0.835025C4.88238 0.839921 4.92589 0.84463 4.96827 0.851975C4.99313 0.856495 5.0178 0.863087 5.04228 0.86836C5.08014 0.876459 5.11837 0.883616 5.15604 0.893598C5.18241 0.900755 5.20859 0.91036 5.23533 0.91827C5.27055 0.929194 5.30577 0.938988 5.3408 0.951418C5.36698 0.960835 5.39278 0.972135 5.41859 0.98287C5.45305 0.996242 5.4879 1.00905 5.52217 1.02449C5.55005 1.03711 5.57735 1.05161 5.60466 1.06517C5.63649 1.08099 5.6687 1.09569 5.70034 1.11301C5.72934 1.12883 5.75759 1.14654 5.78622 1.16368C5.81579 1.18082 5.84536 1.1972 5.87436 1.21585C5.90355 1.2343 5.9318 1.2554 5.96081 1.27499C5.98868 1.29438 6.01731 1.31265 6.04481 1.33299C6.074 1.35465 6.10206 1.37801 6.13069 1.4006C6.15743 1.4217 6.18474 1.44185 6.21111 1.46426C6.23899 1.48762 6.26629 1.51323 6.29379 1.5379C6.32054 1.56163 6.34728 1.58442 6.37346 1.60909C6.40039 1.63471 6.42713 1.66258 6.45369 1.68914C6.4793 1.71513 6.50511 1.73999 6.53053 1.76674C6.55747 1.79536 6.58421 1.82607 6.61133 1.85639C6.63469 1.88313 6.65936 1.90913 6.68271 1.93681C6.71002 1.96883 6.73639 2.00254 6.76295 2.0355C6.78536 2.06337 6.80796 2.09049 6.82981 2.11912C6.85674 2.1534 6.88235 2.18994 6.90835 2.22591C6.92982 2.2551 6.95129 2.28354 6.972 2.3133C6.99781 2.35003 7.02229 2.38845 7.04734 2.42611C7.06749 2.45719 7.08859 2.48751 7.10874 2.51915C7.13322 2.55814 7.15695 2.59844 7.18106 2.63894C7.20065 2.67114 7.22023 2.7026 7.23907 2.73574C7.2628 2.7768 7.2854 2.81937 7.30856 2.86174C7.32721 2.89546 7.34604 2.92841 7.36393 2.96307C7.38672 3.00658 7.40819 3.05121 7.43023 3.09604C7.44774 3.13069 7.46526 3.16478 7.4824 3.20019C7.50387 3.24596 7.52458 3.29323 7.54568 3.33975C7.56206 3.37572 7.57845 3.41132 7.59427 3.44748C7.61461 3.49494 7.6342 3.54372 7.65397 3.59212C7.66885 3.62979 7.68467 3.66633 7.69936 3.70419C7.71857 3.75315 7.73684 3.80344 7.75511 3.85335C7.76923 3.89215 7.78374 3.93057 7.79767 3.96975C7.81538 4.01966 7.83176 4.07108 7.84871 4.12173C7.86209 4.1626 7.87583 4.20291 7.88902 4.24416C7.90503 4.29538 7.91991 4.34755 7.93535 4.39954C7.94797 4.44191 7.96078 4.48335 7.97245 4.52648C7.98714 4.57902 8.00089 4.63251 8.01464 4.68619C8.02594 4.7297 8.03762 4.77245 8.04854 4.81614C8.06191 4.87057 8.07416 4.92594 8.08677 4.98169C8.09657 5.0252 8.10693 5.06889 8.11653 5.11316C8.12821 5.16853 8.13876 5.22484 8.14968 5.28078C8.15872 5.32636 8.16833 5.37156 8.17642 5.4177C8.18659 5.47364 8.19563 5.5307 8.20486 5.58739C8.21277 5.63429 8.22087 5.68099 8.22765 5.72827C8.2365 5.78477 8.24385 5.8424 8.25138 5.89966C8.25835 5.94825 8.26475 5.99646 8.27116 6.04562C8.27756 6.10231 8.2834 6.16013 8.28943 6.21738C8.29451 6.26748 8.30035 6.31739 8.30487 6.36824C8.31014 6.42493 8.3141 6.48238 8.31824 6.53982C8.32239 6.59218 8.32672 6.64397 8.32973 6.69652C8.33331 6.75302 8.33576 6.81009 8.3384 6.86697C8.34066 6.92102 8.34367 6.9747 8.34536 7.02894C8.34725 7.08601 8.348 7.14364 8.34913 7.20089C8.34988 7.24666 8.35083 7.29224 8.35083 7.33801C8.34743 7.35948 8.34499 7.3817 8.34499 7.4043V7.78908C8.3448 7.79925 8.34386 7.80923 8.34367 7.8194C8.22388 11.1184 6.6426 13.8159 4.76898 13.9827C4.70777 13.9878 4.64656 13.9908 4.58516 13.9908C2.50836 13.9908 0.818381 11.0363 0.818381 7.40418L0.818407 7.40421ZM23.6394 6.76252C23.6394 6.71581 23.6302 6.67193 23.6157 6.63049C23.3831 2.85523 21.4633 0 19.0547 0H4.58493C2.01393 0 0 3.25262 0 7.40434C0 11.5565 2.01393 14.8087 4.58493 14.8087H8.34472V26.5909C8.34472 26.8167 8.52798 27 8.7538 27H23.2303C23.4561 27 23.6394 26.8167 23.6394 26.5909V7.40386C23.6394 7.2206 23.6343 7.03942 23.6264 6.85976C23.6343 6.8283 23.6394 6.79591 23.6394 6.7622L23.6394 6.76252Z" fill="black"/>
<path fill-rule="evenodd" clip-rule="evenodd" d="M20.2728 18.2375C20.2728 18.0116 20.0895 17.8284 19.8637 17.8284H19.348C19.1222 17.8284 18.9387 18.0116 18.9387 18.2375C18.9387 18.4633 19.1222 18.6466 19.348 18.6466H19.8637C20.0895 18.6466 20.2728 18.4633 20.2728 18.2375Z" fill="black"/>
<path fill-rule="evenodd" clip-rule="evenodd" d="M16.6627 18.2375C16.6627 18.0116 16.4794 17.8284 16.2536 17.8284H15.7377C15.5119 17.8284 15.3286 18.0116 15.3286 18.2375C15.3286 18.4633 15.5119 18.6466 15.7377 18.6466H16.2536C16.4794 18.6466 16.6627 18.4633 16.6627 18.2375Z" fill="black"/>
<path fill-rule="evenodd" clip-rule="evenodd" d="M18.4672 18.2375C18.4672 18.0116 18.2839 17.8284 18.0581 17.8284H17.5424C17.3166 17.8284 17.1333 18.0116 17.1333 18.2375C17.1333 18.4633 17.3166 18.6466 17.5424 18.6466H18.0581C18.2839 18.6466 18.4672 18.4633 18.4672 18.2375Z" fill="black"/>
<path fill-rule="evenodd" clip-rule="evenodd" d="M22.078 18.2375C22.078 18.0116 21.8945 17.8284 21.6687 17.8284H21.153C20.9272 17.8284 20.7439 18.0116 20.7439 18.2375C20.7439 18.4633 20.9272 18.6466 21.153 18.6466H21.6687C21.8945 18.6466 22.078 18.4633 22.078 18.2375Z" fill="black"/>
<path fill-rule="evenodd" clip-rule="evenodd" d="M11.2479 18.2375C11.2479 18.0116 11.0646 17.8284 10.8388 17.8284H10.3229C10.0971 17.8284 9.91382 18.0116 9.91382 18.2375C9.91382 18.4633 10.0971 18.6466 10.3229 18.6466H10.8388C11.0646 18.6466 11.2479 18.4633 11.2479 18.2375Z" fill="black"/>
<path fill-rule="evenodd" clip-rule="evenodd" d="M14.8576 18.2375C14.8576 18.0116 14.6743 17.8284 14.4485 17.8284H13.9328C13.7069 17.8284 13.5237 18.0116 13.5237 18.2375C13.5237 18.4633 13.7069 18.6466 13.9328 18.6466H14.4485C14.6743 18.6466 14.8576 18.4633 14.8576 18.2375Z" fill="black"/>
<path fill-rule="evenodd" clip-rule="evenodd" d="M13.0526 18.2375C13.0526 18.0116 12.8694 17.8284 12.6435 17.8284H12.1279C11.902 17.8284 11.7188 18.0116 11.7188 18.2375C11.7188 18.4633 11.902 18.6466 12.1279 18.6466H12.6435C12.8694 18.6466 13.0526 18.4633 13.0526 18.2375Z" fill="black"/>
</svg>
