<svg width="22" height="25" viewBox="0 0 22 25" fill="none" xmlns="http://www.w3.org/2000/svg">
<path d="M19.9431 3.91729V21.2963C19.9431 23.3619 18.2338 25.0001 16.1682 25.0001H5.48428C3.41865 25.0001 1.78049 23.3619 1.78049 21.2963V3.91729H0.712186C0.284767 3.91729 0 3.56119 0 3.20511C0 2.77769 0.284946 2.49292 0.712186 2.49292H21.0113C21.3674 2.49292 21.7234 2.77787 21.7234 3.20511C21.7234 3.5612 21.3673 3.84613 21.0113 3.84613L19.9431 3.91729ZM3.20522 3.91729V21.2963C3.20522 22.5784 4.27352 23.5755 5.48445 23.5755H16.1684C17.4505 23.5755 18.5187 22.5784 18.5187 21.2963V3.91729H3.20522Z" fill="black"/>
<path d="M6.41064 8.1907C6.41064 7.76328 6.76674 7.47852 7.12283 7.47852C7.55025 7.47852 7.83502 7.76346 7.83502 8.1907V19.3018C7.83502 19.7293 7.55007 20.014 7.12283 20.014C6.76673 20.014 6.41064 19.7291 6.41064 19.3018V8.1907Z" fill="black"/>
<path d="M13.8887 8.1907C13.8887 7.76328 14.1736 7.47852 14.6009 7.47852C14.957 7.47852 15.313 7.76346 15.313 8.1907V19.3018C15.313 19.7293 14.9569 20.014 14.6009 20.014C14.1734 20.014 13.8887 19.7291 13.8887 19.3018V8.1907Z" fill="black"/>
<path d="M10.1143 8.1907C10.1143 7.76328 10.4704 7.47852 10.8264 7.47852C11.2539 7.47852 11.5386 7.76346 11.5386 8.1907V19.3018C11.5386 19.7293 11.2537 20.014 10.8264 20.014C10.4703 20.014 10.1143 19.7291 10.1143 19.3018V8.1907Z" fill="black"/>
<path d="M8.40481 1.42437C8.04872 1.42437 7.69263 1.13943 7.69263 0.712186C7.69263 0.284767 8.04872 0 8.40481 0H13.2481C13.6755 0 13.9603 0.284946 13.9603 0.712186C13.9603 1.13961 13.6753 1.42437 13.2481 1.42437H8.40481Z" fill="black"/>
</svg>
