<svg width="10" height="24" viewBox="0 0 10 24" fill="none" xmlns="http://www.w3.org/2000/svg">
<path d="M5.56094 23.7918L9.77288 19.9285C10.0757 19.6508 10.0757 19.1964 9.77288 18.8933C9.47005 18.6155 8.97463 18.6155 8.64414 18.8933L5.78122 21.5191L5.78122 2.48076L8.64414 5.10665C8.94697 5.38441 9.44238 5.38441 9.77288 5.10665C10.0757 4.8289 10.0757 4.3745 9.77288 4.07137L5.56094 0.208318C5.25811 -0.0694396 4.76269 -0.0694396 4.4322 0.208318L0.220258 4.07155C0.0551126 4.22302 7.52998e-07 4.39985 7.44941e-07 4.5765C7.36875e-07 4.75333 0.0825727 4.95517 0.220258 5.08145C0.523086 5.35921 1.0185 5.35921 1.349 5.08145L4.21211 2.48071L4.21211 21.5191L1.37643 18.8932C1.0736 18.6154 0.578184 18.6154 0.247688 18.8932C0.0825435 19.0447 0.0274316 19.2215 0.0274316 19.3982C0.0274315 19.575 0.110004 19.7768 0.247688 19.9031L4.45982 23.7917C4.76265 24.0694 5.25807 24.0694 5.56089 23.7917L5.56094 23.7918Z" fill="black"/>
</svg>
