<svg width="30" height="25" viewBox="0 0 30 25" fill="none" xmlns="http://www.w3.org/2000/svg">
<path d="M29.5231 2.90153C29.5231 1.29914 28.2243 0.000111729 26.6225 0.000111729C25.0194 0.000111729 23.7206 1.29914 23.7206 2.90153C23.7206 4.15867 24.5217 5.22567 25.6409 5.62863V9.54808C25.6409 10.5764 24.7011 11.5164 23.6725 11.5164L15.7423 11.5162V5.62852C16.861 5.22579 17.6625 4.15856 17.6625 2.90142C17.6625 1.29902 16.3635 0 14.7617 0C13.1589 0 11.8603 1.29902 11.8603 2.90142C11.8603 4.15856 12.6617 5.22579 13.7806 5.62852L13.7808 11.5162H3.88172V5.62852C5.00044 5.22602 5.80196 4.15856 5.80196 2.90142C5.80196 1.29902 4.50294 0 2.90118 0C1.29879 0.000228805 0 1.29926 0 2.90166C0 4.1588 0.801344 5.22603 1.92024 5.62875V19.3717C0.801286 19.774 0 20.8414 0 22.0988C0 23.7006 1.29879 25 2.90142 25C4.50317 25 5.80219 23.7007 5.80219 22.0988C5.80219 20.8412 5.00038 19.7738 3.88195 19.3715V13.4844H13.781V19.3715C12.6621 19.774 11.8608 20.8412 11.8608 22.0988C11.8608 23.7006 13.1596 25 14.7622 25C16.3639 25 17.663 23.7007 17.663 22.0988C17.663 20.8412 16.8616 19.7738 15.7427 19.3715L15.7425 13.4844H23.6734C25.8225 13.4844 27.6097 11.6836 27.6097 9.53449H27.6031L27.6033 5.62852C28.7223 5.22648 29.5236 4.15903 29.5236 2.90166L29.5231 2.90153ZM14.7614 1.59566C15.4822 1.59566 16.0666 2.18029 16.0666 2.90153C16.0666 3.62234 15.482 4.20671 14.7614 4.20671C14.0398 4.20671 13.4556 3.62207 13.4556 2.90153C13.4556 2.18009 14.04 1.59566 14.7614 1.59566ZM2.90119 1.59566C3.62199 1.59566 4.20636 2.18029 4.20636 2.90153C4.20636 3.62234 3.62173 4.20671 2.90119 4.20671C2.17951 4.20671 1.59531 3.62207 1.59531 2.90153C1.59508 2.18009 2.17949 1.59566 2.90119 1.59566ZM2.90119 23.4048C2.17951 23.4048 1.59531 22.8199 1.59531 22.0992C1.59531 21.3779 2.17949 20.7935 2.90119 20.7935C3.62199 20.7935 4.20636 21.3777 4.20636 22.0992C4.20636 22.82 3.62195 23.4048 2.90119 23.4048ZM14.7614 23.4048C14.0398 23.4048 13.4556 22.8199 13.4556 22.0992C13.4556 21.3779 14.0397 20.7935 14.7614 20.7935C15.4822 20.7935 16.0666 21.3777 16.0666 22.0992C16.0668 22.82 15.4822 23.4048 14.7614 23.4048ZM26.6223 1.59566C27.3431 1.59566 27.9274 2.18029 27.9274 2.90153C27.9274 3.62234 27.3433 4.20671 26.6223 4.20671C25.9004 4.20671 25.3159 3.62207 25.3159 2.90153C25.3162 2.18009 25.9003 1.59566 26.6223 1.59566Z" fill="black"/>
</svg>
