<svg width="30" height="30" viewBox="0 0 30 30" fill="none" xmlns="http://www.w3.org/2000/svg">
<path d="M29.6548 5.52456H23.4407C23.2335 5.52456 23.0955 5.38647 23.0955 5.17933C23.0955 4.41983 23.7169 3.79843 24.4764 3.79843C24.5799 3.79843 24.718 3.79843 24.8216 3.83295C25.3049 2.96984 26.2025 2.41748 27.2382 2.41748C28.7572 2.41748 30 3.6603 30 5.17929C30 5.38643 29.8619 5.52452 29.6548 5.52452V5.52456ZM23.8895 4.83411H29.2751C29.1024 3.86747 28.2739 3.10797 27.2383 3.10797C26.3752 3.10797 25.6157 3.62581 25.305 4.41983C25.2705 4.5234 25.2014 4.59245 25.0979 4.62697C24.9943 4.66149 24.8907 4.66149 24.8217 4.59245C24.4764 4.38531 24.0622 4.5234 23.8896 4.83411H23.8895Z" fill="black"/>
<path d="M2.62372 8.63098C2.17493 8.63098 1.76062 8.45836 1.44995 8.14766C0.690453 8.28575 0 7.66434 0 6.90484C0 6.14535 0.690453 5.52394 1.44995 5.66203C1.76066 5.35132 2.17493 5.17871 2.62372 5.17871C3.59036 5.17871 4.34986 5.93821 4.34986 6.90484C4.34986 7.87148 3.55587 8.63098 2.62372 8.63098ZM1.55356 7.42272C1.65713 7.42272 1.76069 7.45725 1.82974 7.56081C2.03688 7.80247 2.31306 7.94056 2.62372 7.94056C3.21061 7.94056 3.6594 7.49177 3.6594 6.90488C3.6594 6.318 3.21061 5.8692 2.62372 5.8692C2.31302 5.8692 2.00231 6.00729 1.82974 6.24895C1.72617 6.35252 1.58808 6.42157 1.44999 6.35252C1.38094 6.318 1.3119 6.318 1.24285 6.318C0.93215 6.318 0.655969 6.55966 0.655969 6.90488C0.655969 7.25011 0.897628 7.49177 1.24285 7.49177C1.3119 7.49177 1.38094 7.49177 1.44999 7.45725C1.44999 7.42272 1.48451 7.42272 1.55356 7.42272Z" fill="black"/>
<path d="M4.10804 11.3929H0.310547V10.7025H3.76281C3.93543 8.38948 5.86873 6.55974 8.25076 6.55974C8.73408 6.55974 9.21739 6.62878 9.70071 6.8014C10.909 4.35033 13.4292 2.76221 16.191 2.76221C20.0575 2.76221 23.2682 5.83476 23.4407 9.66674H28.9644V10.3572H23.0955C22.8884 10.3572 22.7503 10.2191 22.7503 10.012C22.7503 6.38705 19.8158 3.45266 16.191 3.45266C13.6018 3.45266 11.2197 5.00622 10.184 7.38824C10.115 7.56086 9.90785 7.6299 9.73523 7.56086C9.25192 7.35372 8.7686 7.25015 8.2508 7.25015C6.14488 7.25015 4.45331 8.9418 4.45331 11.0476C4.45331 11.2548 4.31522 11.3929 4.10808 11.3929L4.10804 11.3929Z" fill="black"/>
<path d="M10.3222 29.6897H9.28652C8.14723 29.6897 7.21516 28.7576 7.21516 27.6183V12.774C7.21516 12.0145 6.59375 11.3931 5.83425 11.3931H5.1438V10.7026H5.83425C6.97354 10.7026 7.90561 11.6347 7.90561 12.774V27.6183C7.90561 28.3778 8.52702 28.9993 9.28652 28.9993H10.3222V29.6897Z" fill="black"/>
<path d="M13.7743 26.2382H12.7387C11.5994 26.2382 10.6673 25.3062 10.6673 24.1669V12.774C10.6673 12.0145 10.0459 11.3931 9.2864 11.3931H8.59595V10.7026H9.2864C10.4257 10.7026 11.3578 11.6347 11.3578 12.774V24.1669C11.3578 24.9264 11.9792 25.5478 12.7387 25.5478H13.7743V26.2382Z" fill="black"/>
<path d="M17.2267 29.6897H16.1911C15.0518 29.6897 14.1197 28.7576 14.1197 27.6183V12.774C14.1197 12.0145 13.4983 11.3931 12.7388 11.3931H12.0483V10.7026H12.7388C13.8781 10.7026 14.8102 11.6347 14.8102 12.774V27.6183C14.8102 28.3778 15.4316 28.9993 16.1911 28.9993H17.2267V29.6897Z" fill="black"/>
<path d="M20.6789 25.547H19.6432C18.5039 25.547 17.5718 24.6149 17.5718 23.4756V12.774C17.5718 12.0145 16.9504 11.3931 16.1909 11.3931H15.5005V10.7026H16.1909C17.3302 10.7026 18.2623 11.6347 18.2623 12.774V23.4756C18.2623 24.2351 18.8837 24.8565 19.6432 24.8565H20.6789V25.547Z" fill="black"/>
<path d="M24.131 29.6897H23.0954C21.9561 29.6897 21.024 28.7576 21.024 27.6183V12.774C21.024 12.0145 20.4026 11.3931 19.6431 11.3931H18.9526V10.7026H19.6431C20.7824 10.7026 21.7144 11.6347 21.7144 12.774V27.6183C21.7144 28.3778 22.3359 28.9993 23.0954 28.9993H24.131V29.6897Z" fill="black"/>
<path d="M27.5834 29.6897H26.5477C25.4085 29.6897 24.4764 28.7576 24.4764 27.6183V12.774C24.4764 12.0145 23.855 11.3931 23.0955 11.3931H22.405V10.7026H23.0955C24.2348 10.7026 25.1668 11.6347 25.1668 12.774V27.6183C25.1668 28.3778 25.7882 28.9993 26.5477 28.9993H27.5834V29.6897Z" fill="black"/>
<path d="M23.095 18.6422C22.8878 18.6422 22.7498 18.5041 22.7498 18.297V15.5352C22.7498 15.328 22.8878 15.1899 23.095 15.1899C23.3021 15.1899 23.4402 15.328 23.4402 15.5352V18.297C23.4402 18.5041 23.3021 18.6422 23.095 18.6422Z" fill="black"/>
<path d="M9.2859 17.9527C9.07876 17.9527 8.94067 17.8146 8.94067 17.6075V15.5361C8.94067 15.329 9.07876 15.1909 9.2859 15.1909C9.49304 15.1909 9.63113 15.329 9.63113 15.5361V17.6075C9.63113 17.8146 9.49304 17.9527 9.2859 17.9527Z" fill="black"/>
<path d="M12.7383 23.4761C12.5312 23.4761 12.3931 23.338 12.3931 23.1309V22.4404C12.3931 22.2333 12.5312 22.0952 12.7383 22.0952C12.9454 22.0952 13.0835 22.2333 13.0835 22.4404V23.1309C13.0835 23.338 12.9454 23.4761 12.7383 23.4761Z" fill="black"/>
<path d="M5.14339 4.83317C3.79705 4.83317 2.72681 3.76301 2.72681 2.41659C2.72681 1.07016 3.79697 0 5.14339 0C6.48982 0 7.55998 1.07016 7.55998 2.41659C7.55998 3.76301 6.48982 4.83317 5.14339 4.83317ZM5.14339 0.690453C4.17676 0.690453 3.41726 1.44995 3.41726 2.41659C3.41726 3.38322 4.17676 4.14272 5.14339 4.14272C6.11003 4.14272 6.86953 3.38322 6.86953 2.41659C6.86953 1.44995 6.11003 0.690453 5.14339 0.690453Z" fill="black"/>
</svg>
