<svg width="26" height="32" viewBox="0 0 26 32" fill="none" xmlns="http://www.w3.org/2000/svg">
<path d="M9.0002 1C6.80291 1 5.00021 2.8027 5.00021 4.99999C5.00021 6.92965 6.39208 8.54938 8.21894 8.91676L11.0315 18.9169L11.0419 18.9378C11.201 19.5193 11.4575 20.0306 11.8543 20.4064C12.2566 20.7873 12.8098 21.0002 13.3336 21.0002H19.3438C19.6221 21.0002 19.6933 21.0288 19.75 21.0733C19.807 21.1174 19.9219 21.2551 20.0523 21.6462V21.6564L22.021 27.3336C22.0954 27.5993 22.2763 27.8225 22.5209 27.9504C22.7655 28.0783 23.0522 28.0992 23.3129 28.0085C23.5736 27.9179 23.7851 27.7235 23.8975 27.4714C24.01 27.2192 24.013 26.932 23.9065 26.6774L21.948 21.0107C21.9471 21.0072 21.9492 21.0033 21.948 21.0002C21.7451 20.395 21.4465 19.8709 20.9689 19.5003C20.489 19.1278 19.8912 19.0001 19.3438 19.0001H13.3337C13.2769 19.0001 13.2867 19.0036 13.2295 18.9481C13.1721 18.8939 13.0588 18.7416 12.9691 18.4065L12.9586 18.3961L11.4482 13.0003H22.6668C22.9346 13.004 23.1925 12.9003 23.3831 12.7124C23.5738 12.5243 23.681 12.2678 23.681 12.0002C23.681 11.7326 23.5738 11.4759 23.3831 11.288C23.1925 11.1001 22.9346 10.9964 22.6668 11.0001H10.8857L10.2607 8.79167C11.8464 8.25943 13.0002 6.75736 13.0002 5.00001C13.0002 2.80273 11.1975 1.00003 9.00016 1.00003L9.0002 1ZM9.0002 3.00014C10.1165 3.00014 11.0001 3.88372 11.0001 5.00005C11.0001 6.11661 10.1165 7.00019 9.0002 7.00019C7.88364 7.00019 7.00006 6.11661 7.00006 5.00005C7.00006 3.88372 7.88364 3.00014 9.0002 3.00014ZM7.68763 13.8021C7.59578 13.8035 7.50464 13.8176 7.41674 13.8437C3.68551 14.841 1 18.3262 1 22.3331C1 27.1078 4.89213 30.9998 9.66677 30.9998C14.189 30.9998 17.9532 27.5312 18.3335 23.0938C18.367 22.8231 18.2894 22.5506 18.118 22.3385C17.9469 22.1265 17.6967 21.993 17.4251 21.9691C17.1537 21.9449 16.884 22.0323 16.678 22.2111C16.4722 22.3897 16.3478 22.6443 16.3334 22.9166C16.0413 26.3269 13.1663 29 9.66664 29C5.97285 29 2.99989 26.0271 2.99989 22.3333C2.99989 19.2254 5.10278 16.5283 7.93739 15.7707C8.25478 15.6893 8.51217 15.4575 8.62609 15.1503C8.74026 14.8432 8.69654 14.4995 8.50937 14.2307C8.3222 13.9617 8.01504 13.8017 7.68739 13.802L7.68763 13.8021ZM24.0003 28.9999C23.4481 28.9999 23.0002 29.4477 23.0002 29.9999C23.0002 30.5522 23.4481 31 24.0003 31C24.5525 31 25.0004 30.5522 25.0004 29.9999C25.0004 29.4477 24.5526 28.9999 24.0003 28.9999Z" fill="black" stroke="white"/>
</svg>
