<svg width="58" height="36" viewBox="0 0 58 36" fill="none" xmlns="http://www.w3.org/2000/svg">
<rect width="58" height="36" rx="4" fill="white"/>
<path d="M29.9185 8.23751C29.9185 9.47336 28.9234 10.4752 27.696 10.4752C26.4685 10.4752 25.4734 9.47336 25.4734 8.23751C25.4734 7.00185 26.4685 6 27.696 6C28.9234 6 29.9185 7.00185 29.9185 8.23751Z" fill="#00BEE8"/>
<path d="M37.5788 24.8953L36.4462 18.4287C36.3625 17.8967 35.9753 17.4711 35.4676 17.3314C35.445 17.3251 35.4236 17.3156 35.4005 17.3104C35.3578 17.3013 35.3127 17.2987 35.269 17.2937C35.2207 17.2877 35.1736 17.2795 35.1241 17.279C35.1191 17.279 35.1149 17.2773 35.1099 17.2773L30.1313 17.2765L29.7703 15.2144H33.6437C34.1038 15.2144 34.4774 14.8387 34.4774 14.3755C34.4774 13.9123 34.104 13.5366 33.6437 13.5366L29.4765 13.5364H29.4764L29.2657 12.3342C29.0996 11.3872 28.2028 10.755 27.2626 10.9217C26.3219 11.0885 25.6938 11.9918 25.8599 12.9388L26.8469 18.5721C26.9936 19.4115 27.7161 20.0008 28.5333 20.0082C28.5444 20.0084 28.5551 20.0114 28.5664 20.0114H33.9664L34.9052 25.3704C35.0354 26.1139 35.7396 26.6108 36.4788 26.4794C37.2166 26.3487 37.7096 25.639 37.5791 24.8953L37.5788 24.8953Z" fill="#00BEE8"/>
<path d="M33.7056 26.0622C33.5164 26.0622 33.3472 26.1454 33.2292 26.2756L33.2273 26.2743L33.1037 26.4107C33.1031 26.4114 32.9664 26.5626 32.8953 26.6365C31.6101 27.9637 29.8915 28.6949 28.0557 28.6949C24.3284 28.6949 21.2959 25.6424 21.2959 21.8892C21.2961 19.5066 22.5628 17.2661 24.6012 16.0411L24.711 15.977L24.7075 15.9708C24.9092 15.8603 25.0482 15.6474 25.0482 15.3996C25.0482 15.0391 24.7575 14.7471 24.4 14.7471C24.2589 14.7471 24.1295 14.7938 24.0231 14.8711C23.9646 14.9054 23.8919 14.948 23.8452 14.9774C21.4376 16.4692 20 19.0534 20 21.8897C19.9991 26.362 23.6135 30.0001 28.0558 30.0001C30.2519 30.0001 32.3055 29.1239 33.839 27.5316C33.9177 27.4499 34.0692 27.2818 34.0692 27.2818L34.1634 27.1774C34.1647 27.1757 34.1658 27.1744 34.1675 27.1729L34.195 27.1426L34.1937 27.141C34.2926 27.0266 34.3544 26.8789 34.3544 26.7148C34.3546 26.3545 34.064 26.0625 33.7063 26.0625L33.7056 26.0622Z" fill="#00BEE8"/>
</svg>
