<svg width="18" height="24" viewBox="0 0 18 24" fill="none" xmlns="http://www.w3.org/2000/svg">
<path d="M9.91847 2.23751C9.91847 3.47336 8.92336 4.47522 7.69602 4.47522C6.4685 4.47522 5.47339 3.47336 5.47339 2.23751C5.47339 1.00185 6.4685 0 7.69602 0C8.92336 0 9.91847 1.00185 9.91847 2.23751Z" fill="#00BEE8"/>
<path d="M17.5788 18.8953L16.4462 12.4287C16.3625 11.8967 15.9753 11.4711 15.4676 11.3314C15.445 11.3251 15.4236 11.3156 15.4005 11.3104C15.3578 11.3013 15.3127 11.2987 15.269 11.2937C15.2207 11.2877 15.1736 11.2795 15.1241 11.279C15.1191 11.279 15.1149 11.2773 15.1099 11.2773L10.1313 11.2765L9.77026 9.21441H13.6437C14.1038 9.21441 14.4774 8.83867 14.4774 8.37551C14.4774 7.91234 14.104 7.53661 13.6437 7.53661L9.47654 7.53642H9.47635L9.26573 6.33424C9.09963 5.38724 8.2028 4.75501 7.26256 4.92167C6.32194 5.08853 5.69377 5.99181 5.85989 6.93876L6.84686 12.5721C6.99356 13.4115 7.71615 14.0008 8.53332 14.0082C8.5444 14.0084 8.55512 14.0114 8.56639 14.0114H13.9664L14.9052 19.3704C15.0354 20.1139 15.7396 20.6108 16.4788 20.4794C17.2166 20.3487 17.7096 19.639 17.5791 18.8953L17.5788 18.8953Z" fill="#00BEE8"/>
<path d="M13.7056 20.0622C13.5164 20.0622 13.3472 20.1454 13.2292 20.2756L13.2273 20.2743L13.1037 20.4107C13.1031 20.4114 12.9664 20.5626 12.8953 20.6365C11.6101 21.9637 9.89148 22.6949 8.05574 22.6949C4.32841 22.6949 1.29589 19.6424 1.29589 15.8892C1.29608 13.5066 2.56277 11.2661 4.60123 10.0411L4.71097 9.97696L4.70746 9.97083C4.90922 9.86034 5.04816 9.64735 5.04816 9.39959C5.04816 9.0391 4.75753 8.74707 4.40003 8.74707C4.25887 8.74707 4.12954 8.79376 4.02312 8.87114C3.96455 8.90537 3.89194 8.94796 3.8452 8.97735C1.43763 10.4692 1.77037e-07 13.0534 1.77037e-07 15.8897C-0.000923603 20.362 3.61349 24.0001 8.05582 24.0001C10.2519 24.0001 12.3055 23.1239 13.839 21.5316C13.9177 21.4499 14.0692 21.2818 14.0692 21.2818L14.1634 21.1774C14.1647 21.1757 14.1658 21.1744 14.1675 21.1729L14.195 21.1426L14.1937 21.141C14.2926 21.0266 14.3544 20.8789 14.3544 20.7148C14.3546 20.3545 14.064 20.0625 13.7063 20.0625L13.7056 20.0622Z" fill="#00BEE8"/>
</svg>
