<svg width="30" height="26" viewBox="0 0 30 26" fill="none" xmlns="http://www.w3.org/2000/svg">
<path d="M15 0.0920432L14.9999 6.58182e-06C15 6.61198e-06 14.9999 6.64225e-06 15 6.67262e-06C15 6.64226e-06 15.0001 6.612e-06 15.0001 6.58185e-06L15 0.0920432ZM15 0.0920432L14.9999 0.150007C12.2411 0.147764 9.51143 0.71523 6.98158 1.81677C4.45205 2.91834 2.17689 4.52998 0.299217 6.55114L0.298674 6.55172C0.195464 6.66164 0.141934 6.8091 0.150988 6.95925L0.151 6.95945C0.159868 7.10983 0.230201 7.24969 0.345667 7.34643L0.347666 7.34811L0.347652 7.34813L1.42757 8.28541L1.43426 8.29122C1.66362 8.47915 2.00148 8.45349 2.19987 8.23146L2.20238 8.22864L2.20242 8.22868C4.39804 5.8925 7.19134 4.20185 10.2797 3.34005C13.368 2.47826 16.6326 2.47826 19.7203 3.34006C22.8081 4.20185 25.6017 5.8925 27.7976 8.22867L27.8002 8.23143L27.8001 8.23146C28.0006 8.45586 28.3436 8.47967 28.573 8.28513C28.5732 8.28498 28.5734 8.28482 28.5736 8.28466L29.6007 7.39323V7.3914L29.6543 7.34643C29.7698 7.24969 29.8401 7.10983 29.849 6.95945L29.849 6.95926C29.8581 6.80909 29.8045 6.66164 29.7013 6.55172L29.7008 6.55115C27.8229 4.52998 25.5478 2.91834 23.0184 1.81677C20.4889 0.715206 17.7592 0.147774 15.0001 0.150007L15 0.0926768L15 0.150007H15L15 0.0920432Z" fill="black" stroke="white" stroke-width="0.3"/>
<path d="M4.78379 11.8072L4.7842 11.8076L5.87975 12.7095L5.88407 12.7129C6.11372 12.8935 6.44421 12.8651 6.63976 12.6478L6.64153 12.6458L6.64154 12.6459C8.06741 11.1167 9.88654 10.0094 11.8996 9.44483C13.9127 8.88024 16.0423 8.88024 18.0556 9.44483L18.0151 9.58925L18.0556 9.44483C20.0686 10.0094 21.8878 11.1167 23.3137 12.6459L23.3176 12.65L23.3175 12.6501C23.5147 12.8784 23.8583 12.9072 24.0909 12.7151L24.0911 12.7149L25.1933 11.8076L25.1938 11.8072C25.3106 11.7117 25.3835 11.5727 25.3958 11.4226C25.408 11.2724 25.3588 11.1239 25.2595 11.011C23.961 9.5791 22.378 8.43425 20.6114 7.64996C18.8444 6.86554 16.9333 6.45914 15 6.45664C13.0631 6.4559 11.1474 6.86103 9.37659 7.64544C7.6058 8.43 6.01906 9.57631 4.71834 11.011C4.6189 11.124 4.56954 11.2725 4.58176 11.4226L4.78379 11.8072ZM4.78379 11.8072C4.66696 11.7117 4.59402 11.5728 4.58176 11.4226L4.78379 11.8072Z" fill="black" stroke="white" stroke-width="0.3"/>
<path d="M10.434 17.1754L10.4344 17.1757C10.6653 17.3308 10.9754 17.2909 11.1595 17.0821C12.1127 15.9587 13.5118 15.311 14.985 15.311C16.4585 15.311 17.8573 15.9587 18.8105 17.0821C18.9946 17.2908 19.3047 17.3308 19.5359 17.1757L19.5363 17.1754L20.7256 16.3826C20.8522 16.2883 20.9365 16.1473 20.9601 15.9909C20.9834 15.8343 20.9442 15.6752 20.8508 15.5475C19.4147 13.7919 17.2684 12.7705 14.9999 12.7635C12.7212 12.7616 10.5621 13.7837 9.11949 15.5475C9.02602 15.6754 8.98666 15.8345 9.01016 15.9909L10.434 17.1754ZM10.434 17.1754L9.24466 16.3826M10.434 17.1754L9.24466 16.3826M9.24466 16.3826C9.11811 16.2883 9.03372 16.1473 9.01017 15.9909L9.24466 16.3826ZM15.0001 12.6135H15H15.0001Z" fill="black" stroke="white" stroke-width="0.3"/>
<path d="M16.1471 19.1399C17.6813 19.7756 18.41 21.5345 17.7745 23.069C17.1389 24.6033 15.3799 25.3318 13.8455 24.6964C12.3111 24.0607 11.5826 22.3018 12.2181 20.7674C12.8537 19.2332 14.6127 18.5045 16.1471 19.1399Z" fill="black" stroke="white" stroke-width="0.3"/>
</svg>
