<svg width="26" height="27" viewBox="0 0 26 27" fill="none" xmlns="http://www.w3.org/2000/svg">
<path d="M22.2307 1.00034H14.6382C12.9272 1.00034 11.5354 2.39218 11.5354 4.10318V7.12934L11.2925 7.3344L10.1215 6.16342C10.1091 6.15056 10.0923 6.14536 10.0787 6.13473C10.0584 6.11989 10.0401 6.1043 10.0174 6.09392C9.99509 6.08402 9.97233 6.07982 9.94884 6.07437C9.92831 6.06968 9.90901 6.06349 9.88824 6.06275C9.86202 6.06127 9.83654 6.06671 9.81056 6.07091C9.79176 6.07413 9.77395 6.07512 9.75664 6.08155C9.72869 6.09119 9.7042 6.10752 9.67897 6.12409C9.66734 6.13152 9.65423 6.13448 9.6436 6.14363L9.62084 6.16268C9.62084 6.16268 9.62059 6.16268 9.62009 6.16293V6.16318L9.15581 6.55474L8.8711 6.26509C6.06955 3.41161 3.66003 0.948145 1.35842 1.00083C1.35743 1.00083 1.35619 1.00009 1.35496 1.00009C1.35421 1.00009 1.35347 1.00034 1.35248 1.00034C1.35001 1.00034 1.34754 1.00009 1.34506 1.00009C1.3228 1.00083 1.304 1.00998 1.28298 1.01468C1.25923 1.01963 1.23449 1.02136 1.21248 1.03101C1.19145 1.04016 1.17562 1.0555 1.15757 1.06786C1.13852 1.08097 1.11749 1.09136 1.10117 1.10794C1.08558 1.12426 1.07594 1.14479 1.06357 1.16359C1.0512 1.18264 1.03587 1.1997 1.02696 1.22147C1.01855 1.24274 1.01731 1.26723 1.01311 1.29023C1.0089 1.31175 1 1.33179 1 1.3543V3.66636C1 3.68763 1.00841 3.70569 1.01212 3.72548C1.01608 3.74848 1.01756 3.77223 1.02597 3.79399C1.03414 3.81551 1.04823 3.83332 1.0606 3.85287C1.07272 3.87191 1.08262 3.89195 1.09795 3.90827C1.11354 3.92485 1.13333 3.93622 1.15188 3.94983C1.17043 3.96294 1.18651 3.97778 1.20753 3.98718C1.22905 3.99707 1.25305 4.00004 1.27629 4.00573C1.29534 4.01043 1.3129 4.01958 1.33343 4.02057C2.83268 4.11111 4.5911 6.01944 6.62739 8.22911L6.86634 8.48809L6.07625 9.15469C6.07229 9.15791 6.07081 9.16285 6.0671 9.16607C6.06388 9.16928 6.05918 9.17027 6.05621 9.17349C6.04409 9.18561 6.03915 9.20119 6.029 9.2143C6.01243 9.23632 5.99487 9.2571 5.98423 9.28208C5.97755 9.29692 5.97582 9.3125 5.97112 9.32809C5.96296 9.35727 5.95505 9.38547 5.95406 9.41565C5.95381 9.42876 5.95678 9.44113 5.95826 9.45424C5.96074 9.48689 5.96494 9.5183 5.97681 9.54972C5.98102 9.56134 5.98918 9.57124 5.99487 9.58262C6.00724 9.6071 6.01614 9.63258 6.0342 9.65459C6.0389 9.66028 6.04583 9.66202 6.05077 9.66746C6.053 9.66993 6.05349 9.67315 6.05621 9.67537L7.18489 10.804L6.13733 11.6889C5.49124 12.2771 5.12068 13.1149 5.12068 13.9863L5.12043 22.8972C5.12043 24.6082 6.51227 26 8.22327 26H22.2304C23.9411 26 25.3332 24.6082 25.3332 22.8972V4.10279C25.334 2.3918 23.9418 1.0002 22.2312 1.0002L22.2307 1.00034ZM7.14896 7.7487C5.14193 5.57025 3.3911 3.671 1.70936 3.35463V1.72532C3.62489 1.92741 5.8281 4.17784 8.36527 6.76301L8.61238 7.01433L7.40848 8.03073L7.14896 7.7487ZM6.83011 9.44653L7.61051 8.78809C7.61323 8.78562 7.61719 8.78488 7.62016 8.78216C7.62189 8.78067 7.62238 8.7782 7.62411 8.77647L9.38083 7.29381C9.38157 7.29307 9.38256 7.29282 9.3833 7.29208C9.38405 7.29184 9.38405 7.29134 9.38405 7.29109L9.8513 6.8968L10.7485 7.79397L7.72801 10.3449L6.83011 9.44653ZM24.6246 22.8977C24.6246 24.2176 23.5506 25.2914 22.2309 25.2914H8.2238C6.90389 25.2914 5.83011 24.2176 5.83011 22.8977V13.9862C5.83011 13.3134 6.1163 12.667 6.60481 12.2215L7.95189 11.0839C7.95461 11.0815 7.95856 11.0807 7.96079 11.078C7.96178 11.077 7.96227 11.0755 7.96326 11.0745L11.4824 8.10278C11.4977 8.0919 11.5153 8.08571 11.5291 8.07186C11.5351 8.06617 11.5366 8.05875 11.542 8.05281L12.1184 7.56602C12.1987 7.49873 12.245 7.3993 12.245 7.29442V4.10305C12.245 2.78313 13.3185 1.70936 14.6387 1.70936H22.2305C23.5499 1.70936 24.6242 2.78313 24.6242 4.10305L24.6246 22.8977Z" fill="black" stroke="black" stroke-width="0.5"/>
<path d="M21.607 2.95068H15.2763C14.5416 2.95068 13.9431 3.54879 13.9431 4.28396V5.60659C13.9431 6.34171 14.5417 6.93986 15.2763 6.93986H21.607C22.3416 6.93986 22.9402 6.34176 22.9402 5.60659V4.28396C22.9402 3.54909 22.3419 2.95068 21.607 2.95068ZM22.231 5.60678C22.231 5.95085 21.9513 6.23086 21.607 6.23086H15.2763C14.932 6.23086 14.6522 5.95061 14.6522 5.60678V4.28415C14.6522 3.94007 14.932 3.66006 15.2763 3.66006H21.607C21.9513 3.66006 22.231 3.94032 22.231 4.28415V5.60678Z" fill="black" stroke="black" stroke-width="0.5"/>
<path d="M20.7084 12.3331C20.5696 12.1943 20.3455 12.1943 20.207 12.3331L16.0838 16.456L11.9604 12.3331C11.8216 12.1943 11.5975 12.1943 11.459 12.3331C11.3202 12.4718 11.3202 12.696 11.459 12.8345L15.5824 16.9576L11.459 21.0806C11.3202 21.2193 11.3202 21.4434 11.459 21.582C11.5283 21.6512 11.619 21.6858 11.7098 21.6858C11.8006 21.6858 11.8914 21.6512 11.9606 21.582L16.0835 17.459L20.2065 21.582C20.2757 21.6512 20.3665 21.6858 20.4573 21.6858C20.5481 21.6858 20.6388 21.6512 20.7081 21.582C20.8469 21.4432 20.8469 21.2191 20.7081 21.0806L16.5852 16.9576L20.7081 12.8347C20.8466 12.696 20.8466 12.4719 20.7083 12.3331L20.7084 12.3331Z" fill="black" stroke="black" stroke-width="0.5"/>
</svg>
