<svg width="32" height="26" viewBox="0 0 32 26" fill="none" xmlns="http://www.w3.org/2000/svg">
<path d="M5.84093 0C4.42301 0 3.27268 1.19722 3.27268 2.6533V10.427H2.60228C1.1826 10.427 6.61136e-05 11.5972 6.61136e-05 13.0454V24.5779C-0.00551423 24.9714 0.343003 25.3333 0.727277 25.3333C1.11155 25.3333 1.46007 24.9713 1.45449 24.5779V21.9711H30.5455V24.5779C30.5399 24.9714 30.8885 25.3333 31.2727 25.3333C31.657 25.3333 32.0055 24.9713 31.9999 24.5779V13.0454C31.9999 11.5971 30.8174 10.427 29.3977 10.427H28.7273V2.6533C28.7273 1.19722 27.577 0 26.1591 0H5.84093ZM5.84093 1.48961H26.1592C26.7834 1.48961 27.2727 1.98363 27.2727 2.6533V10.427H24.5683C24.668 10.1209 24.7273 9.78251 24.7273 9.43794V6.92421C24.7273 6.30702 24.564 5.74076 24.2499 5.28338C23.9362 4.82601 23.4231 4.45725 22.8181 4.45725H19.3636C18.7586 4.45725 18.2457 4.82601 17.9317 5.28338C17.6179 5.74076 17.4543 6.30704 17.4543 6.92421V9.43794C17.4543 9.78279 17.5136 10.1209 17.6133 10.427H14.3861C14.4858 10.1209 14.5452 9.78251 14.5452 9.43794V6.92421C14.5452 6.30702 14.3818 5.74076 14.0678 5.28338C13.754 4.82601 13.2409 4.45725 12.6359 4.45725H9.18139C8.57643 4.45725 8.06353 4.82601 7.7495 5.28338C7.43573 5.74076 7.27212 6.30704 7.27212 6.92421V9.43794C7.27212 9.78279 7.33148 10.1209 7.43116 10.427H4.72673V2.6533C4.72673 1.98364 5.21603 1.48961 5.84025 1.48961H5.84093ZM9.18179 5.94666H12.6363C12.6855 5.94666 12.7621 5.96823 12.875 6.13299C12.9879 6.29749 13.0908 6.58802 13.0908 6.92433V9.43806C13.0908 9.77433 12.9879 10.0646 12.875 10.2294C12.7621 10.3939 12.6857 10.4157 12.6363 10.4157H9.18179C9.13258 10.4157 9.05598 10.3942 8.9431 10.2294C8.83022 10.0646 8.72724 9.7741 8.72724 9.43786V6.92413C8.72724 6.58786 8.83022 6.29732 8.9431 6.13279C9.05598 5.96803 9.13233 5.94646 9.18179 5.94646V5.94666ZM19.3637 5.94666H22.8181C22.8674 5.94666 22.944 5.96823 23.0568 6.13299C23.1697 6.29749 23.2727 6.58802 23.2727 6.92433V9.43806C23.2727 9.77433 23.1697 10.0646 23.0568 10.2294C22.944 10.3939 22.8676 10.4157 22.8181 10.4157H19.3637C19.3144 10.4157 19.2378 10.3942 19.125 10.2294C19.0121 10.0646 18.9091 9.7741 18.9091 9.43786V6.92413C18.9091 6.58786 19.0121 6.29732 19.125 6.13279C19.2378 5.96803 19.3142 5.94646 19.3637 5.94646V5.94666ZM2.60254 11.9167C12.3571 11.9304 20.7818 11.9167 29.3981 11.9167C30.0551 11.9167 30.5459 12.4151 30.5459 13.0456V15.6407L1.45488 15.7337V13.0453C1.45488 12.4149 1.9457 11.9164 2.60267 11.9164L2.60254 11.9167ZM30.5455 17.1302V20.4818H1.45449V17.2233L30.5455 17.1302Z" fill="black"/>
</svg>
