<svg width="20" height="20" viewBox="0 0 20 20" fill="none" xmlns="http://www.w3.org/2000/svg">
<path d="M0.526592 9.46964L4.42542 12.3023C4.87097 12.6258 5.0576 13.1993 4.8877 13.7229L3.39761 18.3072C3.01744 19.4782 4.35771 20.4522 5.35447 19.7287L9.2533 16.8957C9.69884 16.5717 10.3015 16.5717 10.7471 16.8957L14.6459 19.7287C15.6422 20.4522 16.9829 19.4782 16.6028 18.3072L15.1132 13.7229C14.9425 13.1992 15.1291 12.6258 15.5751 12.3023L19.4736 9.46964C20.4695 8.74554 19.9583 7.16971 18.7267 7.16971L13.9075 7.16985C13.3571 7.16985 12.868 6.8151 12.6983 6.29142L11.2094 1.70861C10.8288 0.536584 9.17213 0.536584 8.7911 1.70861L7.30115 6.29178C7.13151 6.81548 6.64422 7.17021 6.09286 7.17021L1.27329 7.17007C0.0417924 7.17007 -0.469524 8.7459 0.526412 9.46971L0.526592 9.46964Z" fill="#D4002A"/>
</svg>
